{"glyphs":{"0":{"ha":646,"x_min":54,"x_max":586,"o":"m 317 -14 q 176 44 235 -14 q 87 199 119 101 q 54 408 54 297 q 92 644 54 546 q 192 795 131 743 q 322 847 254 847 q 422 820 379 847 q 492 757 464 793 q 586 421 586 632 q 560 215 586 299 q 492 81 533 132 q 403 8 450 31 q 317 -14 357 -14 m 322 799 q 273 783 299 799 q 225 724 247 767 q 189 601 203 681 q 175 393 175 521 q 179 287 175 347 q 198 169 183 226 q 241 73 213 111 q 318 35 269 35 q 354 42 331 35 q 402 77 378 50 q 442 161 426 104 q 461 283 457 214 q 465 447 465 351 q 441 668 465 588 q 385 775 417 749 q 322 799 358 799 z "},"1":{"ha":646,"x_min":124,"x_max":528,"o":"m 400 169 q 410 86 400 113 q 446 53 419 60 q 521 43 472 46 q 528 21 528 38 q 521 -3 528 4 q 435 -1 469 -1 q 351 0 401 0 q 252 -1 294 0 q 158 -3 210 -1 q 153 21 153 4 q 158 43 153 38 q 237 53 207 46 q 280 86 267 60 q 293 169 293 113 l 293 622 q 288 681 293 658 q 265 703 282 703 q 219 695 246 703 q 144 668 192 688 q 124 706 128 679 q 277 778 215 749 q 396 844 339 808 q 404 838 404 844 q 401 769 403 824 q 400 651 400 714 l 400 169 z "},"2":{"ha":646,"x_min":72,"x_max":572,"o":"m 85 650 q 115 738 85 692 q 202 815 146 783 q 335 847 258 847 q 445 826 392 847 q 534 758 499 804 q 569 636 569 711 q 530 503 569 557 q 431 393 490 450 l 290 258 q 272 239 288 256 q 236 197 256 222 q 202 143 217 171 q 188 90 188 115 l 435 90 q 493 120 472 90 q 532 224 514 150 q 572 217 558 229 q 567 158 572 196 q 556 77 563 121 q 539 -3 549 33 q 521 -2 539 -3 q 478 -1 503 -1 q 431 0 453 0 l 188 0 q 138 -1 165 0 q 92 -2 111 -1 q 72 -3 72 -3 q 83 78 72 39 q 128 166 94 117 q 231 285 163 215 l 333 386 q 421 506 394 449 q 447 631 447 564 q 428 734 447 697 q 380 785 408 771 q 326 799 351 799 q 219 769 250 799 q 189 714 189 740 q 194 697 189 706 q 200 681 199 688 q 204 667 203 674 q 206 651 206 660 q 182 612 206 628 q 140 596 158 596 q 101 612 118 596 q 85 650 85 628 z "},"3":{"ha":646,"x_min":61,"x_max":574,"o":"m 299 799 q 249 791 281 799 q 192 760 218 783 q 167 693 167 738 q 163 663 167 681 q 149 633 160 646 q 113 621 138 621 q 76 638 88 621 q 65 668 65 654 q 78 715 65 685 q 120 775 90 744 q 201 826 150 806 q 328 847 251 847 q 419 832 382 847 q 479 793 457 817 q 513 741 504 768 q 522 683 522 714 q 492 583 522 628 q 376 499 463 539 l 378 496 q 465 466 419 489 q 542 398 510 443 q 574 276 574 353 q 530 119 574 185 q 415 20 486 54 q 261 -14 344 -14 q 173 -2 219 -14 q 94 31 126 10 q 61 79 61 51 q 79 112 61 96 q 119 128 97 128 q 155 117 140 128 q 179 92 169 107 q 209 54 192 74 q 279 35 226 35 q 326 44 297 35 q 383 76 354 53 q 432 144 413 100 q 451 257 451 188 q 422 374 451 336 q 351 424 393 413 q 269 436 310 436 q 238 436 256 436 q 203 433 221 436 l 196 478 q 314 521 265 488 q 388 597 363 554 q 414 674 414 639 q 378 769 414 740 q 299 799 343 799 z "},"4":{"ha":646,"x_min":39,"x_max":618,"o":"m 597 304 q 618 282 618 304 q 606 254 618 269 q 578 239 593 239 l 482 239 l 482 111 q 492 65 482 78 q 524 49 503 53 q 579 43 546 46 q 586 21 586 38 q 579 -3 586 4 q 508 -1 546 -1 q 428 0 469 0 q 339 -1 381 0 q 264 -3 297 -1 q 258 21 258 4 q 264 43 258 38 q 319 49 294 46 q 360 66 344 53 q 376 111 376 79 l 376 239 l 93 239 q 52 260 63 239 q 39 297 42 282 q 138 449 86 372 q 242 599 190 526 q 338 731 293 671 q 415 832 382 792 q 425 842 419 836 q 438 847 431 847 l 482 847 l 485 844 q 483 799 483 836 q 482 710 482 763 l 482 304 l 597 304 m 376 704 q 234 498 304 606 q 111 304 164 390 l 376 304 l 376 704 z "},"5":{"ha":646,"x_min":75,"x_max":567,"o":"m 443 263 q 397 425 443 376 q 282 474 350 474 q 203 467 244 474 q 106 440 161 461 l 153 840 q 226 835 189 838 q 303 833 264 833 q 415 838 358 833 q 531 849 471 843 l 540 843 l 518 749 q 372 740 433 740 q 285 744 322 740 q 210 753 249 749 l 182 521 q 238 535 201 528 q 318 543 274 543 q 451 507 396 543 q 537 413 507 471 q 567 288 567 356 q 529 132 567 200 q 425 24 492 64 q 272 -15 358 -15 q 187 -1 233 -15 q 108 37 140 13 q 75 89 75 61 q 92 125 75 110 q 128 140 108 140 q 167 127 150 140 q 199 96 185 114 q 233 54 214 75 q 290 33 251 33 q 367 63 332 33 q 422 145 401 93 q 443 263 443 197 z "},"6":{"ha":646,"x_min":61,"x_max":585,"o":"m 200 476 q 269 499 232 492 q 332 507 306 507 q 482 475 426 507 q 561 392 538 443 q 585 281 585 340 q 570 185 585 236 q 524 88 556 133 q 444 14 493 43 q 328 -15 396 -15 q 242 -2 288 -15 q 155 47 196 11 q 88 150 114 83 q 61 322 61 217 q 94 494 61 404 q 190 658 126 583 q 319 772 249 726 q 494 849 389 818 q 511 813 511 839 q 357 723 419 778 q 257 604 294 668 q 200 476 219 540 m 188 426 q 179 369 182 396 q 176 318 176 342 q 200 138 176 200 q 262 55 224 76 q 343 33 300 33 q 432 88 394 33 q 469 256 469 142 q 463 316 469 282 q 438 383 456 350 q 387 437 419 415 q 303 458 354 458 q 253 453 285 458 q 188 426 222 449 z "},"7":{"ha":646,"x_min":71,"x_max":589,"o":"m 236 743 q 192 736 214 743 q 150 703 169 729 q 115 622 131 678 q 71 626 94 619 q 88 740 79 681 q 99 849 97 799 q 104 853 99 853 q 123 845 117 850 q 140 837 129 840 q 174 833 150 833 l 460 833 q 524 838 500 833 q 567 849 549 843 l 589 832 q 456 497 511 643 q 360 227 401 350 q 278 -14 318 104 l 183 -18 l 172 -8 q 324 346 243 150 q 485 743 404 542 l 236 743 z "},"8":{"ha":646,"x_min":64,"x_max":582,"o":"m 546 674 q 517 591 546 629 q 448 525 488 553 q 375 481 408 497 l 474 421 q 556 337 529 388 q 582 225 582 286 q 552 117 582 172 q 463 24 522 61 q 311 -14 403 -14 q 133 42 201 -14 q 64 203 64 97 q 83 288 64 243 q 144 369 101 332 q 199 411 171 393 q 257 446 226 429 l 221 468 q 128 553 157 508 q 99 656 99 597 q 128 753 99 710 q 209 822 157 796 q 332 847 261 847 q 490 798 435 847 q 546 674 546 749 m 325 799 q 230 765 263 799 q 197 682 197 731 q 213 615 197 650 q 294 536 229 579 l 338 510 q 383 548 357 524 q 428 605 408 572 q 449 675 449 638 q 421 761 449 724 q 325 799 393 799 m 314 35 q 385 47 346 35 q 452 93 424 58 q 481 197 481 128 q 453 295 481 247 q 360 382 425 343 l 294 421 q 206 339 235 382 q 167 260 176 296 q 157 203 157 224 q 183 103 157 140 q 247 51 210 67 q 314 35 283 35 z "},"9":{"ha":646,"x_min":69,"x_max":593,"o":"m 454 356 q 386 333 422 340 q 322 325 350 325 q 172 357 228 325 q 93 440 117 389 q 69 551 69 492 q 84 647 69 596 q 130 744 99 699 q 210 819 161 790 q 326 847 258 847 q 413 834 367 847 q 499 785 458 821 q 567 682 540 749 q 593 510 593 615 q 561 338 593 428 q 464 174 529 249 q 335 60 406 106 q 160 -17 265 15 q 143 19 143 -6 q 298 109 236 54 q 397 228 360 164 q 454 356 435 292 m 467 406 q 475 463 472 436 q 478 514 478 490 q 454 694 478 633 q 393 777 431 756 q 311 799 356 799 q 222 745 260 799 q 185 576 185 692 q 192 516 185 550 q 217 449 199 482 q 267 395 235 417 q 351 374 300 374 q 401 378 369 374 q 467 406 432 383 z "}," ":{"ha":347,"x_min":0,"x_max":0,"o":""},"!":{"ha":400,"x_min":126,"x_max":274,"o":"m 200 914 q 249 892 225 914 q 274 813 274 869 q 268 729 274 768 q 255 647 263 690 q 240 544 247 604 q 224 369 226 432 q 219 292 222 307 q 215 272 218 281 q 200 264 211 264 q 186 270 190 264 q 181 282 182 276 q 176 339 179 297 q 169 435 174 381 q 158 544 164 490 q 145 647 153 606 q 132 726 138 689 q 126 813 126 764 q 151 892 126 869 q 200 914 175 914 m 126 60 q 148 112 126 90 q 200 133 169 133 q 252 112 231 133 q 274 60 274 90 q 252 8 274 29 q 200 -14 231 -14 q 148 8 169 -14 q 126 60 126 29 z "},"\"":{"ha":467,"x_min":88,"x_max":382,"o":"m 299 593 q 295 615 299 593 q 286 671 292 638 q 275 739 281 704 q 266 798 269 774 q 263 826 263 822 q 283 873 263 850 q 333 896 303 896 q 372 881 361 896 q 382 850 382 867 q 377 816 382 843 q 366 752 372 789 q 353 681 360 715 q 341 622 346 646 q 336 599 336 599 l 299 593 m 124 592 q 120 614 124 592 q 111 669 117 636 q 100 738 106 703 q 91 797 94 772 q 88 825 88 821 q 108 872 88 849 q 158 894 128 894 q 197 880 186 894 q 207 849 207 865 q 202 815 207 842 q 191 751 197 788 q 178 679 185 714 q 166 621 171 644 q 161 597 161 597 l 124 592 z "},"#":{"ha":646,"x_min":36,"x_max":608,"o":"m 465 500 l 439 340 l 571 340 l 561 267 l 431 267 l 389 19 l 336 19 l 374 267 l 218 267 l 178 19 l 126 19 l 165 267 l 36 267 l 47 340 l 178 340 l 203 500 l 74 500 l 85 574 l 214 574 l 254 822 l 307 822 l 265 574 l 424 574 l 463 822 l 515 822 l 475 574 l 608 574 l 597 500 l 465 500 m 388 340 l 413 500 l 256 500 l 229 340 l 388 340 z "},"$":{"ha":646,"x_min":40,"x_max":579,"o":"m 515 813 q 531 727 526 761 q 539 646 536 693 q 519 638 531 639 q 496 638 507 638 q 449 738 479 692 q 354 799 419 785 l 338 488 q 374 474 357 479 q 401 463 390 468 q 489 414 449 443 q 554 342 529 385 q 579 238 579 300 q 547 120 579 176 q 458 29 514 64 q 389 -1 428 10 q 310 -12 350 -11 l 304 -129 q 279 -135 296 -133 q 253 -136 263 -136 l 260 -11 q 187 -1 217 -8 q 130 11 157 6 q 67 17 103 17 q 55 74 60 49 q 47 131 50 100 q 40 213 43 163 q 82 217 61 224 q 147 90 101 133 q 261 36 192 47 l 281 390 q 258 400 268 396 q 166 451 208 422 q 97 524 124 481 q 71 626 71 567 q 103 742 71 693 q 190 817 136 790 q 306 847 243 844 l 313 958 q 336 963 322 961 q 364 965 350 965 l 357 846 q 422 838 400 844 q 463 824 444 831 q 515 813 482 817 m 288 510 l 304 803 q 235 782 267 803 q 183 729 203 761 q 164 661 164 697 q 202 569 164 606 q 288 510 240 532 m 331 372 l 313 33 q 430 75 389 35 q 471 193 471 115 q 451 281 471 247 q 398 336 431 315 q 331 372 365 357 z "},"%":{"ha":885,"x_min":79,"x_max":831,"o":"m 506 724 q 576 731 535 724 q 655 753 617 738 q 714 799 693 769 l 758 776 l 189 -17 l 142 4 l 640 699 q 563 678 601 683 q 492 672 524 672 q 434 681 468 672 q 381 701 400 690 q 385 667 385 688 q 374 592 385 633 q 340 510 363 550 q 284 446 317 471 q 207 421 251 421 q 135 444 164 421 q 93 502 107 467 q 79 572 79 538 q 105 683 79 633 q 172 763 131 733 q 264 793 214 793 q 320 782 293 793 q 357 758 347 771 q 451 728 414 732 q 506 724 488 724 m 154 553 q 176 481 154 499 q 215 464 197 464 q 281 497 254 464 q 324 578 308 531 q 339 665 339 625 q 319 734 339 718 q 279 750 299 750 q 217 717 246 750 q 172 639 189 685 q 154 553 154 593 m 525 136 q 550 243 525 193 q 617 324 575 293 q 711 356 660 356 q 767 345 739 356 q 813 308 794 335 q 831 229 831 281 q 819 152 831 194 q 786 72 808 110 q 731 8 764 33 q 654 -17 697 -17 q 583 6 613 -17 q 540 65 554 29 q 525 136 525 100 m 601 115 q 622 44 601 61 q 663 26 643 26 q 728 60 701 26 q 770 142 756 94 q 785 228 785 189 q 774 282 785 264 q 750 306 764 300 q 726 313 736 313 q 665 280 693 313 q 619 201 636 247 q 601 115 601 156 z "},"&":{"ha":979,"x_min":60,"x_max":928,"o":"m 585 131 q 476 26 538 65 q 326 -14 415 -14 q 192 8 253 -14 q 95 81 131 31 q 60 217 60 132 q 119 372 60 299 q 317 522 179 446 q 262 634 278 589 q 246 718 246 679 q 270 801 246 760 q 342 871 294 843 q 460 899 390 899 q 585 856 533 899 q 638 749 638 814 q 610 669 638 710 q 535 588 582 628 q 431 515 489 549 l 436 504 q 476 442 449 483 q 539 351 504 400 q 606 260 574 303 q 669 360 643 315 q 713 438 696 404 q 742 508 739 486 q 726 538 744 531 q 669 546 707 544 q 664 569 664 553 q 669 592 664 586 q 728 590 690 590 q 801 589 767 589 q 867 590 838 589 q 918 592 897 590 q 925 569 925 586 q 918 546 925 553 q 853 535 875 543 q 811 502 831 528 q 760 419 792 476 q 705 324 732 369 q 636 218 678 278 l 686 149 q 747 83 718 104 q 793 61 776 61 q 853 78 828 61 q 899 136 878 96 q 916 132 910 136 q 928 122 922 128 q 863 18 904 50 q 785 -14 821 -14 q 739 -10 764 -14 q 686 15 714 -6 q 625 79 658 35 l 585 131 m 401 568 q 505 662 468 613 q 542 749 542 711 q 519 824 542 796 q 453 853 496 853 q 410 839 435 853 q 367 796 386 825 q 349 721 349 767 q 362 658 349 697 q 401 568 375 619 m 347 469 q 239 391 276 431 q 188 309 201 351 q 174 217 174 267 q 222 74 174 115 q 336 32 271 32 q 456 69 410 32 q 553 175 501 106 q 490 260 524 214 q 426 351 457 307 q 374 426 396 394 q 347 469 353 458 z "},"'":{"ha":264,"x_min":74,"x_max":193,"o":"m 110 592 q 106 614 110 592 q 97 669 103 636 q 86 738 92 703 q 77 797 81 772 q 74 825 74 821 q 94 872 74 849 q 144 894 114 894 q 183 880 172 894 q 193 849 193 865 q 188 815 193 842 q 177 751 183 788 q 164 679 171 714 q 152 621 157 644 q 147 597 147 597 l 110 592 z "},"(":{"ha":414,"x_min":61,"x_max":385,"o":"m 61 350 q 100 597 61 479 q 206 813 139 715 q 356 982 274 911 q 385 957 376 981 q 334 892 368 939 q 264 772 300 846 q 202 592 228 697 q 176 350 176 488 q 202 108 176 213 q 264 -72 228 3 q 334 -194 300 -147 q 385 -260 368 -240 q 356 -283 378 -279 q 214 -128 269 -208 q 127 30 158 -47 q 82 172 96 107 q 65 285 68 238 q 61 350 61 332 z "},")":{"ha":414,"x_min":29,"x_max":353,"o":"m 353 350 q 314 103 353 221 q 208 -112 275 -14 q 58 -282 142 -211 q 29 -257 38 -281 q 80 -192 46 -237 q 150 -72 114 -146 q 212 108 186 3 q 238 350 238 213 q 212 592 238 488 q 150 772 186 697 q 80 894 114 847 q 29 960 46 940 q 58 983 36 979 q 200 828 144 908 q 287 670 256 747 q 332 528 318 593 q 349 416 346 463 q 353 350 353 369 z "},"*":{"ha":513,"x_min":63,"x_max":450,"o":"m 233 760 q 205 764 219 763 q 175 765 190 765 q 93 776 124 765 q 63 817 63 786 q 73 845 63 832 q 108 858 83 858 q 151 846 132 858 q 190 817 169 833 q 242 788 211 800 q 224 858 238 828 q 210 915 210 889 q 222 953 210 938 q 251 969 233 969 q 284 958 271 969 q 297 921 297 946 q 285 856 297 893 q 271 786 274 818 q 324 817 303 800 q 363 846 344 833 q 403 858 381 858 q 440 843 431 858 q 450 817 450 828 q 420 776 450 786 q 354 765 390 765 q 316 764 335 765 q 278 760 297 763 q 328 718 301 735 q 374 684 356 701 q 393 639 393 667 q 381 610 393 621 q 353 599 368 599 q 311 624 326 599 q 284 683 296 649 q 254 743 272 717 q 225 678 238 713 q 198 622 213 644 q 157 599 183 599 q 128 610 139 599 q 117 638 117 622 q 136 685 117 668 q 183 719 156 703 q 233 760 211 735 z "},"+":{"ha":764,"x_min":83,"x_max":681,"o":"m 347 604 q 365 630 347 618 q 393 642 383 642 q 409 638 401 642 q 417 622 417 633 l 417 383 l 661 383 q 676 376 672 383 q 681 360 681 368 q 669 332 681 350 q 643 314 657 314 l 417 314 l 417 92 q 401 68 417 79 q 369 57 385 57 q 354 63 361 57 q 347 78 347 68 l 347 314 l 104 314 q 89 321 94 314 q 83 336 83 328 q 94 367 83 351 q 118 383 106 383 l 347 383 l 347 604 z "},",":{"ha":306,"x_min":60,"x_max":236,"o":"m 144 132 q 211 94 186 132 q 236 -6 236 57 q 213 -92 236 -54 q 151 -153 189 -129 q 72 -185 114 -178 q 60 -151 60 -172 q 124 -121 96 -142 q 167 -77 151 -100 q 182 -40 182 -54 q 167 -8 182 -17 q 132 3 151 1 q 92 18 114 6 q 71 64 71 31 q 92 113 71 93 q 144 132 113 132 z "},"-":{"ha":469,"x_min":56,"x_max":414,"o":"m 376 310 l 76 310 q 61 318 67 310 q 56 336 56 326 q 67 374 56 356 q 90 393 78 393 l 394 393 q 410 385 406 393 q 414 365 414 376 q 402 331 414 353 q 376 310 390 310 z "},".":{"ha":306,"x_min":79,"x_max":226,"o":"m 79 60 q 101 112 79 90 q 153 133 122 133 q 205 112 183 133 q 226 60 226 90 q 205 8 226 29 q 153 -14 183 -14 q 101 8 122 -14 q 79 60 79 29 z "},"/":{"ha":449,"x_min":21,"x_max":407,"o":"m 407 897 l 78 -82 l 21 -82 l 350 897 l 407 897 z "},":":{"ha":328,"x_min":97,"x_max":244,"o":"m 97 497 q 119 549 97 528 q 171 571 140 571 q 223 549 201 571 q 244 497 244 528 q 223 445 244 467 q 171 424 201 424 q 119 445 140 424 q 97 497 97 467 m 97 83 q 119 135 97 114 q 171 157 140 157 q 223 135 201 157 q 244 83 244 114 q 223 31 244 53 q 171 10 201 10 q 119 31 140 10 q 97 83 97 53 z "},";":{"ha":328,"x_min":86,"x_max":263,"o":"m 171 132 q 238 94 213 132 q 263 -6 263 57 q 239 -92 263 -54 q 178 -153 215 -129 q 99 -185 140 -178 q 86 -151 86 -172 q 150 -121 122 -142 q 193 -77 178 -100 q 208 -40 208 -54 q 193 -8 208 -17 q 158 3 178 1 q 119 18 140 6 q 97 64 97 31 q 118 113 97 93 q 171 132 139 132 m 97 493 q 119 545 97 524 q 171 567 140 567 q 223 545 201 567 q 244 493 244 524 q 223 441 244 463 q 171 419 201 419 q 119 441 140 419 q 97 493 97 463 z "},"<":{"ha":764,"x_min":71,"x_max":647,"o":"m 192 332 l 632 171 q 647 133 646 157 q 632 101 647 108 l 90 299 q 90 365 71 329 l 632 561 q 647 531 647 556 q 632 492 646 507 l 192 332 z "},"=":{"ha":764,"x_min":83,"x_max":682,"o":"m 644 429 l 104 429 q 89 436 94 429 q 83 451 83 443 q 94 483 83 467 q 118 499 106 499 l 663 499 q 678 491 674 499 q 682 475 682 483 q 670 447 682 465 q 644 429 658 429 m 644 199 l 104 199 q 89 206 94 199 q 83 221 83 213 q 94 252 83 236 q 118 268 106 268 l 663 268 q 678 260 674 268 q 682 244 682 253 q 670 217 682 235 q 644 199 658 199 z "},">":{"ha":764,"x_min":118,"x_max":693,"o":"m 572 328 l 132 489 q 118 528 118 504 q 132 558 118 553 l 674 361 q 674 294 693 331 l 132 99 q 118 130 118 106 q 132 168 118 154 l 572 328 z "},"?":{"ha":604,"x_min":64,"x_max":540,"o":"m 158 794 q 160 772 158 779 q 167 758 163 764 q 175 725 175 749 q 158 689 175 701 q 121 676 140 676 q 84 688 104 676 q 64 736 64 700 q 84 806 64 776 q 135 861 104 836 q 307 915 197 915 q 477 858 414 915 q 540 706 540 800 q 516 611 540 651 q 457 541 492 571 q 389 488 422 511 q 346 453 365 469 q 317 418 326 436 q 300 367 303 392 q 297 317 297 342 l 297 256 q 290 245 297 249 q 274 242 282 242 q 258 245 265 242 q 251 256 251 249 l 251 319 q 257 386 251 350 q 283 463 263 422 q 349 543 304 503 q 408 617 390 582 q 425 700 425 651 q 389 819 425 768 q 293 869 353 869 q 196 848 233 869 q 158 794 158 826 m 200 60 q 222 112 200 90 q 274 133 243 133 q 326 112 304 133 q 347 60 347 90 q 326 8 347 29 q 274 -14 304 -14 q 222 8 243 -14 q 200 60 200 29 z "},"@":{"ha":1243,"x_min":82,"x_max":1165,"o":"m 810 103 q 817 90 810 93 q 825 86 824 86 q 947 112 896 86 q 1026 202 999 138 q 1054 382 1054 267 q 1015 569 1054 489 q 911 701 975 649 q 775 780 847 754 q 638 806 703 806 q 480 778 558 806 q 336 694 401 751 q 232 547 271 636 q 193 335 193 458 q 207 203 193 272 q 253 67 221 133 q 338 -55 285 0 q 471 -142 392 -110 q 657 -174 550 -174 q 813 -150 746 -174 q 936 -82 881 -126 l 954 -107 q 868 -165 913 -139 q 767 -205 824 -190 q 631 -219 710 -219 q 405 -178 506 -219 q 232 -65 304 -137 q 121 103 160 7 q 82 310 82 199 q 126 519 82 422 q 249 691 171 617 q 431 807 328 765 q 651 849 535 849 q 858 814 764 849 q 1020 717 951 779 q 1127 572 1089 656 q 1165 392 1165 489 q 1145 270 1165 332 q 1079 156 1125 208 q 956 70 1033 103 q 765 38 879 38 q 725 58 735 38 q 715 94 715 78 q 722 133 715 110 q 736 182 728 156 l 733 183 q 636 74 688 107 q 549 40 585 40 q 464 59 497 40 q 412 106 431 78 q 386 163 393 133 q 379 213 379 192 q 408 352 379 288 q 485 465 438 417 q 590 542 533 514 q 703 569 647 569 q 769 553 738 569 q 810 510 800 538 l 817 543 l 890 561 l 911 554 l 828 196 q 816 139 822 168 q 810 103 810 110 m 790 439 q 764 503 790 479 q 700 526 738 526 q 644 515 682 526 q 575 471 607 503 q 501 354 522 418 q 481 225 481 290 q 502 136 481 175 q 589 97 524 97 q 671 149 625 97 q 749 278 717 201 q 776 357 763 310 q 790 439 790 404 z "},"A":{"ha":965,"x_min":4,"x_max":958,"o":"m 215 110 q 218 67 204 81 q 258 49 232 54 q 311 43 285 44 q 318 21 318 38 q 311 -3 318 4 q 224 -1 272 -1 q 133 0 176 0 q 69 -1 101 0 q 10 -3 38 -1 q 4 21 4 4 q 10 43 4 38 q 89 62 56 46 q 149 142 122 78 l 464 886 q 501 895 478 886 q 540 914 525 904 l 826 119 q 878 58 844 69 q 951 43 911 47 q 958 21 958 38 q 951 -3 958 4 q 876 -1 915 -1 q 793 0 836 0 q 701 -1 753 0 q 611 -3 650 -1 q 606 21 606 4 q 611 43 606 38 q 694 56 661 47 q 714 100 726 64 l 633 335 l 340 335 q 306 330 315 335 q 292 311 297 325 l 215 110 m 365 393 l 611 393 l 481 771 l 472 771 l 331 411 q 335 397 326 401 q 365 393 343 393 z "},"B":{"ha":817,"x_min":21,"x_max":760,"o":"m 206 896 q 293 897 243 896 q 379 899 343 899 q 535 878 476 899 q 625 826 594 858 q 667 757 656 794 q 678 685 678 719 q 638 578 678 628 q 546 503 599 529 l 546 500 q 698 415 636 474 q 760 256 760 356 q 744 165 760 211 q 689 81 728 119 q 582 20 650 43 q 410 -3 514 -3 q 316 -2 351 -3 q 256 -1 281 -1 q 207 0 232 0 q 117 -1 168 0 q 26 -3 67 -1 q 21 21 21 4 q 26 43 21 38 q 101 53 75 46 q 138 86 128 60 q 147 169 147 113 l 147 726 q 138 810 147 785 q 101 844 128 836 q 26 853 75 851 q 21 876 21 860 q 26 899 21 893 q 117 897 67 897 q 206 896 168 896 m 265 764 l 265 508 l 368 508 q 510 544 454 508 q 565 668 565 579 q 537 779 565 739 q 467 835 508 819 q 386 851 425 851 q 301 845 326 851 q 270 820 275 839 q 265 764 265 801 m 265 461 l 265 164 q 287 72 265 100 q 381 43 308 43 q 540 69 486 43 q 612 137 593 94 q 631 229 631 179 q 603 344 631 292 q 516 429 575 397 q 361 461 457 461 l 265 461 z "},"C":{"ha":897,"x_min":51,"x_max":849,"o":"m 496 -14 q 247 47 346 -14 q 100 209 149 108 q 51 431 51 310 q 90 635 51 539 q 199 796 129 732 q 334 883 260 853 q 497 914 408 914 q 638 900 583 914 q 729 871 692 886 q 801 851 767 856 q 819 742 813 794 q 832 636 826 690 q 810 628 821 631 q 786 629 799 625 q 733 742 768 689 q 638 829 699 796 q 482 863 578 863 q 370 833 428 863 q 260 739 313 803 q 200 619 222 692 q 178 457 178 547 q 201 307 178 381 q 266 174 224 233 q 367 78 308 114 q 494 43 425 43 q 667 78 592 43 q 817 194 743 114 q 849 174 838 194 q 688 33 778 81 q 496 -14 597 -14 z "},"D":{"ha":974,"x_min":21,"x_max":914,"o":"m 206 896 q 303 897 246 896 q 435 899 361 899 q 622 862 535 899 q 774 760 708 825 q 877 610 840 696 q 914 428 914 525 q 872 216 914 300 q 760 84 829 132 q 613 17 692 36 q 460 -3 533 -3 q 342 -2 389 -3 q 264 -1 294 -1 q 207 0 233 0 q 117 -1 168 0 q 26 -3 67 -1 q 21 21 21 4 q 26 43 21 38 q 101 53 75 46 q 138 86 128 60 q 147 169 147 113 l 147 726 q 138 810 147 785 q 101 844 128 836 q 26 853 75 851 q 21 876 21 860 q 26 899 21 893 q 118 897 68 897 q 206 896 168 896 m 265 117 q 275 78 265 94 q 317 53 285 63 q 417 44 349 44 q 556 60 490 44 q 672 114 621 75 q 751 221 722 153 q 781 394 781 289 q 760 556 781 475 q 694 703 740 636 q 571 811 647 771 q 382 851 494 851 q 298 835 331 851 q 265 783 265 819 l 265 117 z "},"E":{"ha":774,"x_min":19,"x_max":733,"o":"m 390 501 q 476 509 450 501 q 508 538 501 517 q 517 596 515 558 q 540 603 524 603 q 563 596 557 603 q 560 538 561 571 q 560 476 560 506 q 560 411 560 440 q 563 354 561 382 q 540 349 557 349 q 517 354 524 349 q 508 407 515 386 q 476 438 501 428 q 390 449 450 449 l 264 449 l 264 142 q 281 74 264 93 q 342 54 299 54 l 503 54 q 623 108 582 54 q 685 236 664 161 q 733 229 710 242 q 711 113 725 176 q 682 -3 697 50 q 651 -2 682 -3 q 579 -1 621 -1 q 504 0 538 0 l 206 0 q 117 -1 171 0 q 25 -3 64 -1 q 19 21 19 4 q 25 43 19 38 q 100 53 74 46 q 136 86 126 60 q 146 169 146 113 l 146 726 q 136 810 146 785 q 100 844 126 836 q 25 853 74 851 q 19 876 19 860 q 25 899 19 893 q 119 897 67 897 q 204 896 172 896 l 558 896 q 596 897 583 896 q 626 901 608 899 q 632 897 632 901 q 637 869 633 893 q 645 814 640 846 q 655 749 650 782 q 663 696 660 717 q 617 689 640 685 q 585 771 601 738 q 541 822 569 804 q 460 840 513 840 l 356 840 q 282 819 300 840 q 264 751 264 797 l 264 501 l 390 501 z "},"F":{"ha":674,"x_min":19,"x_max":660,"o":"m 393 449 l 264 449 l 264 169 q 274 86 264 113 q 310 53 283 60 q 385 43 336 46 q 392 21 392 38 q 385 -3 392 4 q 301 -1 349 -1 q 206 0 253 0 q 110 -1 158 0 q 25 -3 61 -1 q 19 21 19 4 q 25 43 19 38 q 100 53 74 46 q 136 86 126 60 q 146 169 146 113 l 146 726 q 136 810 146 785 q 100 844 126 836 q 25 853 74 851 q 19 876 19 860 q 25 899 19 893 q 119 897 67 897 q 204 896 171 896 l 558 896 q 595 897 585 896 q 624 901 606 897 q 629 897 629 901 q 634 869 631 893 q 642 814 638 846 q 652 749 647 782 q 660 696 657 717 q 617 689 642 689 q 580 771 601 738 q 518 822 558 804 q 404 840 478 840 l 342 840 q 280 824 296 840 q 264 751 264 808 l 264 501 l 393 501 q 478 509 453 501 q 511 538 504 517 q 519 596 518 558 q 543 603 526 603 q 565 596 560 603 q 563 540 564 569 q 563 476 563 511 q 563 410 563 440 q 565 354 564 381 q 543 349 560 349 q 519 354 526 349 q 511 407 518 386 q 478 438 504 428 q 393 449 453 449 z "},"G":{"ha":951,"x_min":51,"x_max":925,"o":"m 524 914 q 649 901 601 914 q 734 874 697 889 q 813 851 771 858 q 835 729 829 776 q 844 638 842 682 q 799 629 821 628 q 751 742 781 689 q 663 830 721 796 q 504 864 606 864 q 386 834 443 864 q 284 750 329 804 q 212 621 239 696 q 185 454 185 546 q 206 313 185 386 q 270 176 228 239 q 376 75 313 114 q 521 36 439 36 q 640 46 578 36 q 736 89 701 56 l 736 301 q 708 353 736 343 q 622 368 679 364 q 617 394 617 375 q 622 418 617 413 q 714 416 668 417 q 794 415 760 415 q 865 416 836 415 q 918 418 893 417 q 925 394 925 413 q 918 368 925 375 q 871 351 888 365 q 854 301 854 338 l 854 140 q 876 101 854 119 q 709 14 806 42 q 489 -14 613 -14 q 258 44 357 -14 q 106 202 160 103 q 51 426 51 301 q 92 632 51 542 q 200 785 132 722 q 352 881 268 847 q 524 914 436 914 z "},"H":{"ha":1014,"x_min":21,"x_max":986,"o":"m 858 169 q 868 86 858 113 q 904 53 878 60 q 979 43 931 46 q 986 21 986 38 q 979 -3 986 4 q 886 -1 933 -1 q 800 0 839 0 q 714 -1 761 0 q 619 -3 667 -1 q 614 21 614 4 q 619 43 614 38 q 694 53 668 46 q 731 86 721 60 q 740 169 740 113 l 740 446 l 265 446 l 265 169 q 275 86 265 113 q 311 53 285 60 q 386 43 338 46 q 393 21 393 38 q 386 -3 393 4 q 292 -1 340 -1 q 207 0 244 0 q 120 -1 168 0 q 26 -3 72 -1 q 21 21 21 4 q 26 43 21 38 q 101 53 75 46 q 138 86 128 60 q 147 169 147 113 l 147 726 q 138 810 147 785 q 101 844 128 836 q 26 853 75 851 q 21 876 21 860 q 26 899 21 893 q 110 897 67 897 q 206 896 154 896 q 303 897 258 896 q 386 899 347 897 q 393 876 393 893 q 386 853 393 860 q 311 844 338 851 q 275 810 285 836 q 265 726 265 785 l 265 504 l 740 504 l 740 726 q 731 810 740 785 q 694 844 721 836 q 619 853 668 851 q 614 876 614 860 q 619 899 614 893 q 713 897 665 897 q 799 896 760 896 q 888 897 839 896 q 979 899 936 897 q 986 876 986 893 q 979 853 986 860 q 904 844 931 851 q 868 810 878 836 q 858 726 858 785 l 858 169 z "},"I":{"ha":413,"x_min":21,"x_max":393,"o":"m 265 169 q 275 86 265 113 q 311 53 285 60 q 386 43 338 46 q 393 21 393 38 q 386 -3 393 4 q 292 -1 339 -1 q 207 0 244 0 q 122 -1 169 0 q 26 -3 74 -1 q 21 21 21 4 q 26 43 21 38 q 101 53 75 46 q 138 86 128 60 q 147 169 147 113 l 147 726 q 138 810 147 785 q 101 844 128 836 q 26 853 75 851 q 21 876 21 860 q 26 899 21 893 q 123 897 75 897 q 206 896 171 896 q 293 897 246 896 q 386 899 340 897 q 393 876 393 893 q 386 853 393 860 q 311 844 338 851 q 275 810 285 836 q 265 726 265 785 l 265 169 z "},"J":{"ha":447,"x_min":-94,"x_max":428,"o":"m 314 726 l 314 143 q 291 -17 314 44 q 235 -116 268 -79 q 172 -179 203 -153 q 93 -227 129 -215 q 10 -239 57 -239 q -31 -231 -6 -239 q -75 -206 -56 -222 q -94 -164 -94 -189 q -71 -122 -94 -140 q -33 -104 -47 -104 q 4 -115 -7 -104 q 22 -139 15 -126 q 44 -166 29 -156 q 78 -176 58 -176 q 115 -166 94 -176 q 154 -126 136 -156 q 184 -38 172 -96 q 196 113 196 19 l 196 726 q 185 810 196 785 q 146 844 175 836 q 61 853 117 851 q 56 876 56 860 q 61 899 56 893 q 165 897 114 897 q 254 896 217 896 q 338 897 294 896 q 421 899 382 897 q 428 876 428 893 q 421 853 428 860 q 356 844 379 851 q 323 810 332 836 q 314 726 314 785 z "},"K":{"ha":885,"x_min":21,"x_max":878,"o":"m 265 169 q 275 86 265 113 q 311 53 285 60 q 386 43 338 46 q 393 21 393 38 q 386 -3 393 4 q 293 -1 339 -1 q 207 0 247 0 q 120 -1 167 0 q 26 -3 74 -1 q 21 21 21 4 q 26 43 21 38 q 101 53 75 46 q 138 86 128 60 q 147 169 147 113 l 147 726 q 138 810 147 785 q 101 844 128 836 q 26 853 75 851 q 21 876 21 860 q 26 899 21 893 q 119 897 74 897 q 206 896 165 896 q 291 897 243 896 q 386 899 339 897 q 393 876 393 893 q 386 853 393 860 q 311 844 338 851 q 275 810 285 836 q 265 726 265 785 l 265 482 q 327 499 301 485 q 375 536 353 513 l 604 781 q 632 826 633 811 q 610 845 631 840 q 565 853 590 850 q 560 876 560 860 q 565 899 560 893 q 644 897 604 897 q 722 896 683 896 q 789 897 756 896 q 854 899 822 897 q 861 876 861 893 q 854 853 861 860 q 770 838 813 850 q 679 775 728 826 l 475 565 q 433 517 440 529 q 426 497 426 504 q 431 481 426 489 q 444 463 436 472 l 749 101 q 810 55 781 64 q 871 43 840 46 q 878 21 878 38 q 871 -3 878 4 q 801 -1 836 -1 q 731 0 767 0 q 692 -1 708 0 q 656 -3 676 -1 q 649 6 650 -3 q 599 101 643 44 l 381 376 q 330 415 360 403 q 265 429 300 428 l 265 169 z "},"L":{"ha":733,"x_min":21,"x_max":704,"o":"m 207 0 q 119 -1 172 0 q 26 -3 67 -1 q 21 21 21 4 q 26 43 21 38 q 101 53 75 46 q 138 86 128 60 q 147 169 147 113 l 147 726 q 138 810 147 785 q 101 844 128 836 q 26 853 75 851 q 21 876 21 860 q 26 899 21 893 q 122 897 75 897 q 206 896 168 896 q 292 897 246 896 q 386 899 339 897 q 393 876 393 893 q 386 853 393 860 q 311 844 338 851 q 275 810 285 836 q 265 726 265 785 l 265 151 q 285 76 265 99 q 344 54 304 54 l 432 54 q 550 79 506 54 q 619 145 594 104 q 658 236 644 186 q 704 229 682 240 q 689 113 699 175 q 668 -3 679 50 q 648 -2 668 -3 q 599 -1 628 -1 q 544 -1 571 -1 q 503 0 517 0 l 207 0 z "},"M":{"ha":1165,"x_min":22,"x_max":1139,"o":"m 921 161 l 885 742 l 882 742 l 569 7 q 561 -8 565 -1 q 550 -14 557 -14 q 538 -7 544 -14 q 529 7 532 0 l 242 728 l 239 728 l 186 171 q 195 81 181 113 q 278 43 210 49 q 285 21 285 38 q 278 -3 285 4 q 210 -1 247 -1 q 147 0 172 0 q 91 -1 122 0 q 28 -3 60 -1 q 22 21 22 4 q 28 43 22 38 q 106 77 88 49 q 132 168 125 106 l 188 740 q 189 815 193 793 q 163 844 185 838 q 93 853 142 850 q 88 876 88 860 q 93 899 88 893 l 294 896 l 579 190 q 590 172 586 172 q 603 192 594 172 l 897 896 l 1079 899 q 1086 876 1086 893 q 1079 853 1086 860 q 1011 841 1032 850 q 985 811 990 832 q 983 753 981 790 l 1025 168 q 1036 85 1029 111 q 1064 53 1043 60 q 1132 43 1085 46 q 1139 21 1139 38 q 1132 -3 1139 4 q 1055 -1 1097 -1 q 981 0 1013 0 q 910 -1 950 0 q 832 -3 871 -1 q 826 21 826 4 q 832 43 826 38 q 897 51 878 46 q 920 81 917 57 q 921 161 924 106 z "},"N":{"ha":971,"x_min":15,"x_max":968,"o":"m 772 711 q 763 803 772 775 q 726 840 753 831 q 651 853 700 849 q 646 876 646 860 q 651 899 646 893 q 740 897 697 897 q 806 896 783 896 q 874 897 831 896 q 961 899 918 897 q 968 876 968 893 q 961 853 968 860 q 886 839 913 849 q 850 801 860 829 q 840 711 840 774 l 840 29 q 808 -14 840 -14 q 753 19 778 -14 l 268 632 q 221 678 233 678 q 211 662 213 678 q 210 610 210 646 l 210 185 q 219 94 210 122 q 256 57 229 65 q 331 43 282 49 q 338 21 338 38 q 331 -3 338 4 q 244 -1 288 -1 q 176 0 200 0 q 108 -1 151 0 q 21 -3 65 -1 q 15 21 15 4 q 21 43 15 38 q 96 58 69 49 q 132 95 122 67 q 142 185 142 124 l 142 764 q 106 821 136 792 q 32 853 76 850 q 26 876 26 860 q 32 899 26 893 l 219 896 l 696 292 q 763 215 756 215 q 771 226 769 215 q 772 257 772 238 l 772 711 z "},"O":{"ha":975,"x_min":51,"x_max":925,"o":"m 925 457 q 903 295 925 369 q 839 161 881 221 q 692 33 782 79 q 486 -14 601 -14 q 269 40 368 -14 q 111 194 171 94 q 51 431 51 294 q 102 675 51 565 q 248 849 153 785 q 478 914 343 914 q 704 860 603 914 q 865 703 806 806 q 925 457 925 601 m 460 864 q 328 822 392 864 q 225 690 265 781 q 185 454 185 600 q 232 228 185 321 q 354 85 279 135 q 514 36 429 36 q 656 83 593 36 q 756 218 719 129 q 792 431 792 307 q 747 667 792 571 q 626 814 701 764 q 460 864 551 864 z "},"P":{"ha":751,"x_min":18,"x_max":704,"o":"m 144 726 q 135 810 144 785 q 99 844 125 836 q 24 853 72 851 q 18 876 18 860 q 24 899 18 893 q 115 897 65 897 q 203 896 164 896 q 299 901 244 896 q 393 906 353 906 q 550 882 489 906 q 644 822 611 858 q 691 745 678 785 q 704 675 704 706 q 688 581 704 631 q 635 489 672 532 q 533 419 597 446 q 375 392 469 392 q 263 406 306 392 l 263 169 q 276 87 263 113 q 319 53 289 61 q 404 43 350 46 q 411 21 411 38 q 404 -3 411 4 q 297 -1 353 -1 q 204 0 242 0 q 119 -1 167 0 q 24 -3 71 -1 q 18 21 18 4 q 24 43 18 38 q 99 53 72 46 q 135 86 125 60 q 144 169 144 113 l 144 726 m 263 769 l 263 446 q 308 441 274 443 q 368 439 342 439 q 522 488 469 439 q 575 650 575 538 q 547 783 575 739 q 476 843 519 828 q 383 858 432 858 q 307 844 333 858 q 272 810 281 831 q 263 769 263 790 z "},"Q":{"ha":975,"x_min":51,"x_max":946,"o":"m 925 457 q 903 295 925 369 q 839 161 881 221 q 724 51 793 94 q 568 -7 656 7 q 486 -39 535 -17 q 386 -99 438 -61 q 414 -97 401 -97 q 527 -116 474 -97 q 629 -158 581 -135 q 715 -195 672 -179 q 801 -211 758 -211 q 866 -199 832 -211 q 922 -160 900 -187 l 946 -176 q 858 -262 906 -235 q 746 -290 811 -290 q 617 -267 672 -290 q 513 -215 561 -243 q 433 -176 472 -193 q 349 -158 393 -158 q 327 -162 340 -158 q 300 -176 314 -167 q 247 -240 271 -207 l 193 -212 q 218 -181 203 -196 q 310 -90 256 -136 q 429 -11 365 -44 q 238 58 324 1 q 102 210 153 115 q 51 431 51 306 q 102 675 51 565 q 248 849 153 785 q 478 914 343 914 q 704 860 603 914 q 865 703 806 806 q 925 457 925 601 m 460 864 q 328 822 392 864 q 225 690 265 781 q 185 454 185 600 q 232 228 185 321 q 354 85 279 135 q 514 36 429 36 q 656 83 593 36 q 756 218 719 129 q 792 431 792 307 q 747 667 792 571 q 626 814 701 764 q 460 864 551 864 z "},"R":{"ha":815,"x_min":18,"x_max":824,"o":"m 263 169 q 272 86 263 113 q 308 53 282 60 q 383 43 335 46 q 390 21 390 38 q 383 -3 390 4 q 290 -1 338 -1 q 204 0 243 0 q 117 -1 164 0 q 24 -3 71 -1 q 18 21 18 4 q 24 43 18 38 q 99 53 72 46 q 135 86 125 60 q 144 169 144 113 l 144 726 q 135 810 144 785 q 99 844 125 836 q 24 853 72 851 q 18 876 18 860 q 24 899 18 893 q 119 897 72 897 q 203 896 167 896 q 284 901 240 896 q 376 906 328 906 q 504 896 442 906 q 617 839 567 886 q 690 665 690 769 q 670 569 690 611 q 620 499 650 528 q 559 453 590 471 q 506 428 528 435 l 681 136 q 738 60 708 90 q 814 29 767 29 q 815 -4 824 11 q 789 -12 806 -10 q 757 -14 772 -14 q 649 24 694 -14 q 574 110 604 61 l 425 351 q 400 380 415 368 q 353 398 385 392 q 263 404 321 404 l 263 169 m 378 858 q 304 844 329 858 q 271 810 279 831 q 263 769 263 790 l 263 451 l 329 451 q 449 468 397 451 q 532 531 501 485 q 563 664 563 578 q 534 788 563 746 q 463 844 506 829 q 378 858 421 858 z "},"S":{"ha":674,"x_min":38,"x_max":617,"o":"m 549 876 q 564 784 558 821 q 574 697 569 747 q 551 689 564 690 q 528 689 539 688 q 492 775 514 735 q 429 841 469 815 q 322 867 389 867 q 247 844 281 867 q 191 785 213 821 q 169 711 169 750 q 192 635 169 667 q 250 579 215 603 q 322 539 285 556 q 392 511 360 522 q 500 458 449 489 q 584 378 551 426 q 617 256 617 329 q 581 129 617 189 q 486 32 546 69 q 315 -14 413 -14 q 214 -6 253 -14 q 142 10 175 1 q 65 18 110 18 q 52 80 57 53 q 44 142 47 107 q 38 229 40 176 q 83 233 60 240 q 167 83 106 129 q 326 36 229 36 q 455 79 410 36 q 500 207 500 122 q 471 315 500 275 q 399 376 442 354 q 314 414 356 397 q 197 470 253 438 q 106 551 142 503 q 71 674 71 600 q 108 801 71 747 q 205 885 144 856 q 335 914 265 914 q 415 910 386 914 q 463 899 444 906 q 499 887 481 893 q 549 876 518 881 z "},"T":{"ha":829,"x_min":4,"x_max":821,"o":"m 486 169 q 497 86 486 113 q 536 53 507 60 q 621 43 565 46 q 628 21 628 38 q 621 -3 628 4 q 519 -1 569 -1 q 428 0 468 0 q 335 -1 386 0 q 233 -3 285 -1 q 228 21 228 4 q 233 43 228 38 q 318 53 289 46 q 358 86 347 60 q 368 169 368 113 l 368 704 q 355 805 368 768 q 303 842 342 842 l 235 842 q 119 810 167 842 q 51 694 72 778 q 27 696 39 694 q 4 701 15 697 q 25 803 15 751 q 39 903 35 856 q 44 907 39 907 q 127 903 71 906 q 249 898 183 900 q 368 896 315 896 l 488 896 q 606 898 543 896 q 722 903 669 900 q 799 907 775 906 q 803 903 803 907 q 809 805 804 856 q 821 706 814 754 q 798 700 811 701 q 774 699 785 699 q 707 810 756 779 q 581 842 658 842 l 550 842 q 499 804 513 842 q 486 700 486 767 l 486 169 z "},"U":{"ha":918,"x_min":8,"x_max":913,"o":"m 239 726 l 239 369 q 242 277 239 325 q 261 185 246 229 q 310 108 276 142 q 383 60 342 78 q 475 43 425 43 q 614 74 563 43 q 690 156 665 106 q 723 266 715 206 q 731 385 731 326 l 731 726 q 720 808 731 783 q 683 840 710 832 q 603 853 656 849 q 597 876 597 860 q 603 899 597 893 q 697 897 651 897 q 764 896 742 896 q 827 897 788 896 q 906 899 867 897 q 913 876 913 893 q 906 853 913 860 q 841 840 864 849 q 808 807 818 832 q 799 726 799 782 l 799 410 q 783 240 799 317 q 729 106 768 163 q 622 17 690 49 q 446 -14 553 -14 q 336 -1 393 -14 q 230 49 279 13 q 151 151 181 85 q 121 324 121 218 l 121 726 q 112 810 121 785 q 79 844 103 836 q 14 853 56 851 q 8 876 8 860 q 14 899 8 893 q 97 897 54 897 q 179 896 139 896 q 269 897 221 896 q 367 899 318 897 q 374 876 374 893 q 367 853 374 860 q 286 844 314 851 q 249 810 258 836 q 239 726 239 785 z "},"V":{"ha":906,"x_min":1,"x_max":903,"o":"m 622 853 q 617 876 617 860 q 622 899 617 893 q 708 897 665 897 q 774 896 750 896 q 831 897 797 896 q 896 899 865 897 q 903 876 903 893 q 896 853 903 860 q 828 830 853 849 q 788 784 803 811 q 760 724 772 757 l 472 15 q 439 -17 460 -17 q 407 15 419 -17 l 133 726 q 101 801 114 775 q 67 838 88 826 q 8 853 47 850 q 2 876 3 860 q 7 899 1 893 q 78 897 42 897 q 151 896 114 896 q 233 897 189 896 q 319 899 278 897 q 326 876 326 893 q 319 853 326 860 q 237 825 249 846 q 249 742 225 804 l 471 176 l 476 176 l 696 733 q 709 819 718 790 q 622 853 700 847 z "},"W":{"ha":1321,"x_min":3,"x_max":1314,"o":"m 1125 785 q 1124 828 1136 814 q 1087 847 1111 842 q 1033 853 1063 851 q 1028 876 1028 860 q 1033 899 1028 893 q 1117 897 1075 897 q 1186 896 1160 896 q 1245 897 1214 896 q 1307 899 1276 897 q 1314 876 1314 893 q 1307 853 1314 860 q 1226 827 1250 850 q 1188 768 1201 804 l 908 19 q 895 -6 903 4 q 876 -17 888 -17 q 857 -7 864 -17 q 844 21 850 3 l 685 482 q 665 521 671 521 q 656 514 660 521 q 642 486 651 507 l 435 21 q 419 -6 426 4 q 399 -17 413 -17 q 380 -6 386 -17 q 368 21 374 4 l 107 772 q 83 826 94 810 q 56 847 72 842 q 8 853 40 851 q 3 876 3 860 q 8 899 3 893 q 70 897 39 897 q 138 896 101 896 q 221 897 178 896 q 299 899 264 897 q 306 876 306 893 q 299 853 306 860 q 240 841 263 851 q 229 794 217 831 l 432 181 l 439 179 l 618 586 q 628 614 626 604 q 631 635 631 624 q 628 655 631 644 q 621 678 625 665 l 589 769 q 553 823 579 796 q 472 853 528 850 q 467 876 467 860 q 472 899 467 893 q 541 897 506 897 q 611 896 576 896 q 697 897 653 896 q 785 899 742 897 q 792 876 792 893 q 785 853 792 860 q 740 846 761 851 q 710 824 719 840 q 713 769 700 807 l 904 183 l 908 182 l 1125 785 z "},"X":{"ha":917,"x_min":4,"x_max":896,"o":"m 747 142 q 797 81 776 101 q 838 53 818 60 q 888 43 858 46 q 895 21 894 38 q 889 -3 896 4 q 823 -1 858 -1 q 747 0 788 0 q 667 -1 706 0 q 589 -3 628 -1 q 583 21 583 4 q 589 43 583 38 q 649 61 647 46 q 622 118 651 76 l 450 363 q 431 378 439 378 q 410 358 424 378 l 226 101 q 218 56 201 67 q 281 43 235 46 q 288 21 288 38 q 281 -3 288 4 q 199 -1 239 -1 q 135 0 158 0 q 76 -1 111 0 q 10 -3 42 -1 q 4 21 4 4 q 10 43 4 38 q 92 65 57 47 q 164 129 128 82 l 369 404 q 383 436 383 422 q 378 456 383 447 q 364 478 372 465 l 167 760 q 117 819 138 800 q 75 845 96 839 q 25 853 54 851 q 19 876 19 860 q 24 899 18 893 q 90 897 56 897 q 165 896 125 896 q 246 897 207 896 q 324 899 285 897 q 331 876 331 893 q 324 853 331 860 q 263 835 265 850 q 292 778 261 819 l 444 550 q 461 535 456 535 q 483 551 472 535 l 654 794 q 663 840 679 829 q 600 853 646 850 q 594 876 594 860 q 600 899 594 893 q 682 897 642 897 q 746 896 722 896 q 805 897 769 896 q 871 899 840 897 q 878 876 878 893 q 871 853 878 860 q 788 831 824 849 q 717 767 753 814 l 526 521 q 515 499 517 508 q 513 479 513 489 q 519 458 513 469 q 535 433 525 447 l 747 142 z "},"Y":{"ha":799,"x_min":1,"x_max":797,"o":"m 468 169 q 478 86 468 113 q 518 53 489 60 q 603 43 547 46 q 610 21 610 38 q 603 -3 610 4 q 501 -1 551 -1 q 410 0 450 0 q 318 -1 369 0 q 215 -3 267 -1 q 210 21 210 4 q 215 43 210 38 q 300 53 271 46 q 340 86 329 60 q 350 169 350 113 l 350 346 q 344 403 350 385 q 321 453 339 422 l 139 760 q 96 819 114 800 q 58 844 78 838 q 8 853 38 851 q 2 876 3 860 q 7 899 1 893 q 74 897 39 897 q 149 896 108 896 q 230 897 190 896 q 307 899 269 897 q 314 876 314 893 q 307 853 314 860 q 240 835 249 850 q 257 776 232 821 l 418 492 q 434 474 428 475 q 449 489 440 474 l 603 779 q 610 835 625 821 q 549 853 594 850 q 543 876 543 860 q 549 899 543 893 q 617 897 582 897 q 675 896 651 896 q 730 897 699 896 q 790 899 761 897 q 797 876 797 893 q 790 853 797 860 q 715 833 743 849 q 658 764 688 817 l 493 464 q 472 411 475 433 q 468 358 468 389 l 468 169 z "},"Z":{"ha":839,"x_min":57,"x_max":803,"o":"m 765 -3 q 744 -2 765 -3 q 692 -1 722 -1 q 632 -1 661 -1 q 589 0 603 0 l 83 0 q 57 21 57 0 q 68 53 57 38 q 165 195 111 117 q 280 359 219 274 q 401 527 340 444 q 515 681 461 610 q 608 804 568 753 q 619 829 619 819 q 606 842 619 842 l 313 836 q 192 798 235 835 q 126 689 149 761 q 106 691 115 689 q 85 696 96 693 q 102 795 93 739 q 115 907 111 851 q 188 903 142 906 q 285 898 235 900 q 367 896 335 896 l 674 896 q 734 897 706 896 q 775 899 763 899 q 793 883 793 899 q 788 860 793 872 q 760 821 782 849 q 653 679 711 757 q 535 519 594 601 q 419 357 475 436 q 316 211 363 278 q 239 100 269 144 q 228 72 228 81 q 263 53 228 51 l 531 58 q 649 83 607 60 q 715 147 690 107 q 760 236 739 188 q 785 234 774 236 q 803 229 796 232 q 781 115 790 175 q 765 -3 771 56 z "},"[":{"ha":494,"x_min":150,"x_max":451,"o":"m 150 -268 l 150 976 l 444 976 q 451 956 451 971 q 444 935 451 942 q 333 921 374 929 q 272 897 292 913 q 248 853 253 881 q 243 779 243 825 l 243 -69 q 248 -143 243 -115 q 272 -187 253 -171 q 331 -212 290 -204 q 444 -226 372 -221 q 451 -247 451 -232 q 444 -268 451 -261 l 150 -268 z "},"\\":{"ha":399,"x_min":15,"x_max":396,"o":"m 76 969 l 396 -67 l 335 -67 l 15 969 l 76 969 z "},"]":{"ha":494,"x_min":44,"x_max":344,"o":"m 344 978 l 344 -267 l 50 -267 q 44 -245 44 -260 q 50 -225 44 -231 q 162 -211 121 -219 q 222 -187 203 -203 q 247 -143 242 -171 q 251 -69 251 -115 l 251 779 q 247 853 251 825 q 223 897 242 881 q 163 922 204 914 q 50 936 122 931 q 44 958 44 943 q 50 978 44 972 l 344 978 z "},"^":{"ha":719,"x_min":156,"x_max":565,"o":"m 360 824 l 218 481 l 156 481 l 332 903 l 390 903 l 565 481 l 503 481 l 360 824 z "},"_":{"ha":675,"x_min":6,"x_max":669,"o":"m 661 -153 q 669 -183 669 -161 q 661 -214 669 -206 l 14 -214 q 6 -183 6 -206 q 14 -153 6 -161 l 661 -153 z "},"`":{"ha":544,"x_min":133,"x_max":353,"o":"m 247 971 l 344 796 q 351 778 350 786 q 353 763 353 769 q 347 752 353 757 q 332 747 340 747 q 292 775 321 747 l 133 926 l 136 942 q 168 961 144 949 q 226 974 192 974 q 247 971 236 974 z "},"a":{"ha":635,"x_min":50,"x_max":632,"o":"m 407 67 l 404 67 l 376 44 q 296 -2 331 10 q 225 -14 261 -14 q 101 19 153 -14 q 50 136 50 51 q 115 260 50 207 q 279 338 179 313 l 399 367 q 407 383 407 369 q 389 501 407 463 q 344 551 371 539 q 294 564 318 564 q 219 551 256 564 q 183 506 183 538 q 184 488 183 494 q 186 478 185 481 q 190 453 190 469 q 173 422 190 439 q 125 406 156 406 q 76 456 76 406 q 110 531 76 496 q 196 588 143 565 q 306 610 249 610 q 405 592 357 610 q 484 524 453 575 q 515 375 515 474 l 515 171 q 521 88 515 124 q 557 53 526 53 q 585 60 571 53 q 608 75 600 68 q 632 38 628 64 q 575 1 610 17 q 500 -14 540 -14 q 431 10 447 -14 q 407 67 414 35 m 407 324 l 297 294 q 193 232 221 275 q 165 142 165 189 q 190 76 165 110 q 265 43 214 43 q 328 63 294 43 q 388 104 361 82 q 401 119 396 111 q 407 140 407 126 l 407 324 z "},"b":{"ha":685,"x_min":10,"x_max":633,"o":"m 232 547 q 303 593 264 576 q 388 610 343 610 q 505 576 449 610 q 597 482 561 543 q 633 336 633 421 q 606 188 633 253 q 533 78 578 124 q 433 10 488 33 q 326 -14 379 -14 q 259 -7 290 -14 q 204 21 228 0 q 185 30 193 31 q 167 17 176 29 q 149 -2 158 7 q 133 -17 140 -11 q 115 -12 121 -17 q 103 0 108 -8 q 107 37 106 15 q 108 99 108 58 l 108 776 q 101 858 108 835 q 75 885 94 881 q 19 890 56 889 q 12 910 14 897 q 11 932 10 924 q 78 941 39 935 q 153 955 117 947 q 206 969 189 963 q 224 956 224 969 q 221 917 224 956 q 218 810 218 878 l 218 554 q 232 547 218 535 m 242 504 q 223 480 228 492 q 218 446 218 468 l 218 99 q 263 53 239 72 q 318 33 286 33 q 428 70 385 33 q 492 169 471 107 q 514 311 514 232 q 493 433 514 379 q 438 517 472 486 q 360 549 403 549 q 299 538 329 549 q 242 504 269 528 z "},"c":{"ha":594,"x_min":51,"x_max":553,"o":"m 553 126 q 445 14 501 42 q 326 -14 389 -14 q 124 70 196 -14 q 51 289 51 154 q 94 460 51 388 q 202 571 136 532 q 336 610 268 610 q 492 572 436 610 q 549 478 549 535 q 526 431 549 446 q 481 417 503 417 q 444 428 458 417 q 428 467 431 439 q 417 514 425 492 q 390 550 410 536 q 329 564 371 564 q 216 499 261 564 q 171 319 171 435 q 197 179 171 239 q 265 87 222 119 q 357 54 307 54 q 445 77 401 54 q 524 146 489 100 q 553 126 546 143 z "},"d":{"ha":703,"x_min":54,"x_max":697,"o":"m 464 69 q 372 7 413 28 q 290 -14 331 -14 q 163 24 215 -14 q 82 130 110 63 q 54 282 54 197 q 80 421 54 360 q 150 526 106 482 q 241 588 192 567 q 358 610 290 610 q 406 604 382 610 q 447 592 429 599 q 467 586 464 586 q 479 599 479 586 l 479 776 q 472 858 479 835 q 446 885 465 881 q 390 890 426 889 q 383 910 385 897 q 382 932 381 924 q 449 941 410 935 q 524 955 488 947 q 576 969 560 963 q 594 956 594 969 q 592 917 594 956 q 589 810 589 878 l 589 181 q 606 107 589 129 q 690 79 624 85 q 697 61 697 74 q 690 42 697 49 q 588 20 626 35 q 526 -14 550 6 q 500 -14 514 -19 q 494 15 500 -14 q 485 68 488 43 q 476 74 483 75 q 464 69 469 74 m 479 172 l 479 436 q 475 481 479 468 q 456 511 471 494 q 408 548 435 535 q 343 561 381 561 q 284 551 322 561 q 214 492 246 540 q 186 426 199 469 q 174 307 174 382 q 197 164 174 221 q 254 79 219 107 q 326 51 289 51 q 457 118 381 51 q 476 142 472 131 q 479 172 479 153 z "},"e":{"ha":621,"x_min":51,"x_max":565,"o":"m 536 129 q 565 107 560 128 q 466 19 524 53 q 329 -14 408 -14 q 203 10 254 -14 q 117 75 153 33 q 67 169 82 115 q 51 281 51 222 q 77 421 51 360 q 144 523 103 482 q 235 585 186 564 q 329 607 283 607 q 476 571 426 607 q 545 479 526 535 q 564 365 564 424 q 538 342 564 342 l 168 344 q 180 237 168 285 q 213 154 192 189 q 285 78 244 101 q 364 54 326 54 q 461 72 425 54 q 536 129 497 90 m 172 392 l 424 396 q 444 415 444 396 q 426 506 444 474 q 382 549 408 538 q 329 561 356 561 q 294 556 317 561 q 248 535 272 551 q 203 485 224 519 q 172 392 182 450 z "},"f":{"ha":431,"x_min":31,"x_max":549,"o":"m 243 169 q 249 87 243 113 q 281 53 256 61 q 360 43 306 46 q 367 21 367 38 q 360 -3 367 4 q 277 -1 324 -1 q 189 0 231 0 q 110 -1 147 0 q 36 -3 72 -1 q 31 21 31 4 q 36 43 31 38 q 95 53 74 46 q 125 87 117 61 q 133 169 133 113 l 133 542 l 38 542 q 31 550 31 542 l 31 568 q 38 586 31 576 q 63 596 44 596 l 133 596 l 133 651 q 171 831 133 760 q 265 935 208 901 q 379 969 321 969 q 449 965 419 969 q 504 940 478 960 q 549 869 549 907 q 529 831 549 849 q 492 813 510 813 q 457 826 469 813 q 436 857 444 839 q 403 908 422 893 q 353 922 385 922 q 305 905 331 922 q 261 835 279 888 q 243 675 243 782 l 243 596 l 393 596 q 404 588 404 596 l 404 560 q 393 546 404 550 q 372 542 382 542 l 243 542 l 243 169 z "},"g":{"ha":694,"x_min":44,"x_max":668,"o":"m 617 538 q 594 546 606 538 q 578 563 582 554 q 550 579 567 579 q 519 568 536 579 q 494 546 501 557 q 540 483 525 515 q 554 401 554 450 q 521 286 554 333 q 434 214 488 239 q 319 189 381 189 q 249 197 279 189 q 193 218 218 204 q 168 138 168 183 q 197 76 168 93 q 257 58 226 58 q 273 59 263 58 q 299 61 283 60 q 349 66 324 64 q 392 68 374 68 q 455 66 418 68 q 530 54 492 64 q 594 22 568 44 q 640 -30 625 -3 q 656 -90 656 -57 q 622 -191 656 -146 q 531 -267 588 -236 q 405 -314 474 -297 q 265 -331 336 -331 q 161 -316 213 -331 q 77 -267 110 -301 q 44 -172 44 -232 q 74 -83 44 -128 q 158 -4 103 -37 q 113 38 132 10 q 94 103 94 65 q 110 178 94 139 q 156 243 126 218 q 105 307 126 271 q 83 399 83 343 q 117 510 83 463 q 205 583 150 557 q 321 610 260 610 q 417 594 382 610 q 465 571 453 579 q 535 624 493 607 q 604 642 578 642 q 650 627 632 642 q 668 590 668 613 q 652 553 668 569 q 617 538 636 538 m 443 388 q 408 520 443 474 q 308 567 374 567 q 197 419 197 567 q 206 332 197 375 q 241 260 214 289 q 326 232 268 232 q 379 244 353 232 q 424 290 406 256 q 443 388 443 324 m 183 -14 q 147 -79 153 -50 q 140 -144 140 -108 q 159 -205 140 -179 q 205 -247 178 -231 q 260 -272 232 -264 q 307 -279 289 -279 q 433 -262 369 -279 q 538 -210 496 -244 q 579 -126 579 -176 q 564 -81 579 -99 q 508 -40 549 -62 q 435 -20 478 -24 q 340 -17 393 -17 q 299 -19 326 -17 q 239 -21 271 -21 q 183 -14 208 -21 z "},"h":{"ha":747,"x_min":19,"x_max":732,"o":"m 232 397 l 232 169 q 238 87 232 113 q 262 53 244 61 q 315 43 279 46 q 321 21 321 38 q 315 -3 321 4 q 252 -1 286 -1 q 178 0 218 0 q 98 -1 136 0 q 25 -3 60 -1 q 19 21 19 4 q 25 43 19 38 q 86 53 65 46 q 115 87 107 61 q 122 169 122 113 l 122 776 q 115 858 122 835 q 89 885 108 881 q 33 890 69 889 q 26 910 28 897 q 25 932 24 924 q 92 941 53 935 q 167 955 131 947 q 219 969 203 963 q 238 956 238 969 q 235 917 238 956 q 232 810 232 878 l 231 497 q 235 488 231 483 q 244 497 240 493 q 369 589 308 568 q 481 610 429 610 q 547 598 517 610 q 596 563 578 586 q 626 482 619 531 q 633 376 633 433 l 633 169 q 640 87 633 113 q 667 54 647 61 q 726 43 688 47 q 732 21 732 38 q 726 -3 732 4 q 656 -1 692 -1 q 579 0 621 0 q 502 -1 538 0 q 438 -3 467 -1 q 432 21 432 4 q 438 43 432 38 q 492 54 474 47 q 517 87 511 61 q 524 169 524 113 l 524 381 q 521 440 524 413 q 507 488 518 467 q 474 524 494 511 q 433 538 454 538 q 344 516 392 538 q 256 456 296 494 q 240 433 247 446 q 232 397 232 419 z "},"i":{"ha":376,"x_min":36,"x_max":358,"o":"m 251 169 q 259 87 251 113 q 288 53 267 61 q 351 43 310 46 q 358 21 358 38 q 351 -3 358 4 q 278 -1 317 -1 q 197 0 239 0 q 116 -1 156 0 q 42 -3 76 -1 q 36 21 36 4 q 42 43 36 38 q 106 54 85 47 q 134 87 126 61 q 142 169 142 113 l 142 440 q 135 499 142 481 q 108 524 128 518 q 51 535 89 531 q 49 555 50 542 q 49 574 47 568 q 165 593 121 583 q 239 614 210 603 q 257 604 257 614 q 256 579 257 604 q 253 517 254 554 q 251 446 251 481 l 251 169 m 125 832 q 149 878 125 857 q 197 899 172 899 q 244 875 225 899 q 264 826 264 851 q 242 782 264 804 q 192 760 221 760 q 146 783 167 760 q 125 832 125 806 z "},"j":{"ha":378,"x_min":-67,"x_max":276,"o":"m 157 440 q 150 499 157 481 q 124 525 143 518 q 67 535 104 532 q 64 555 65 542 q 64 574 63 568 q 181 593 136 583 q 254 614 225 603 q 272 604 272 614 q 271 579 272 604 q 268 517 269 554 q 267 446 267 481 l 267 153 q 254 -60 267 22 q 219 -189 242 -142 q 163 -262 196 -236 q 78 -302 124 -294 q 10 -310 32 -310 q -38 -295 -10 -310 q -67 -250 -67 -281 q -50 -214 -67 -231 q -22 -197 -33 -197 q 15 -210 1 -197 q 39 -233 29 -222 q 82 -249 54 -249 q 133 -198 117 -249 q 153 -67 149 -147 q 157 106 157 14 l 157 440 m 138 832 q 161 878 138 857 q 210 899 185 899 q 257 875 238 899 q 276 826 276 851 q 255 782 276 804 q 204 760 233 760 q 158 783 179 760 q 138 832 138 806 z "},"k":{"ha":711,"x_min":21,"x_max":706,"o":"m 119 169 l 119 776 q 113 858 119 835 q 86 885 106 881 q 31 890 67 889 q 23 910 25 897 q 22 932 21 924 q 89 941 50 935 q 164 955 128 947 q 217 969 200 963 q 235 956 235 969 q 232 917 235 956 q 229 810 229 878 l 229 325 q 324 368 274 332 q 381 419 350 388 q 435 482 411 451 q 449 506 442 490 q 449 536 457 522 q 403 553 442 550 q 397 576 397 560 q 403 599 397 593 q 463 597 426 597 q 539 596 500 596 q 606 597 576 596 q 660 599 636 597 q 667 576 667 593 q 660 553 667 560 q 582 537 618 549 q 514 492 546 525 l 392 365 q 386 351 386 360 q 389 341 386 346 q 396 332 392 336 l 579 101 q 635 57 607 67 q 699 43 664 47 q 706 21 706 38 q 699 -3 706 4 q 647 -1 678 -1 q 585 0 617 0 q 542 -1 564 0 q 499 -3 519 -1 q 493 4 494 -3 q 478 38 492 17 q 435 101 465 60 l 333 238 q 289 283 311 268 q 229 290 271 289 l 229 169 q 235 87 229 113 q 258 53 242 61 q 301 43 274 46 q 308 21 308 38 q 301 -3 308 4 q 244 -1 278 -1 q 175 0 211 0 q 97 -1 133 0 q 26 -3 61 -1 q 21 21 21 4 q 26 43 21 38 q 85 53 65 46 q 113 87 106 61 q 119 169 119 113 z "},"l":{"ha":367,"x_min":26,"x_max":349,"o":"m 132 169 l 132 776 q 126 852 132 829 q 102 881 121 875 q 43 890 83 888 q 35 910 38 897 q 35 932 33 924 q 101 941 63 935 q 176 955 140 947 q 229 969 213 963 q 247 956 247 969 q 244 917 247 956 q 242 810 242 878 l 242 169 q 249 86 242 113 q 278 53 257 60 q 342 43 300 46 q 349 21 349 38 q 342 -3 349 4 q 268 -1 307 -1 q 188 0 229 0 q 107 -1 146 0 q 32 -3 68 -1 q 26 21 26 4 q 32 43 26 38 q 96 53 75 46 q 124 86 117 60 q 132 169 132 113 z "},"m":{"ha":1097,"x_min":31,"x_max":1085,"o":"m 236 497 q 242 488 236 485 q 253 497 249 492 q 350 578 296 546 q 464 610 404 610 q 556 580 518 610 q 603 508 593 550 q 610 501 606 499 q 618 507 615 504 q 733 587 672 564 q 847 610 794 610 q 939 581 908 610 q 980 501 969 551 q 990 389 990 451 l 990 169 q 997 87 990 113 q 1022 53 1003 61 q 1079 43 1042 46 q 1085 21 1085 38 q 1079 -3 1085 4 q 1014 -1 1050 -1 q 936 0 978 0 q 858 -1 894 0 q 794 -3 821 -1 q 789 21 789 4 q 794 43 789 38 q 849 53 831 46 q 874 87 868 61 q 881 169 881 113 l 881 414 q 859 510 881 483 q 797 538 838 538 q 710 519 757 538 q 614 446 664 501 q 615 419 615 433 q 615 390 615 406 l 615 169 q 622 87 615 113 q 645 53 628 61 q 697 43 663 46 q 703 21 703 38 q 697 -3 703 4 q 637 -1 671 -1 q 561 0 603 0 q 483 -1 519 0 q 419 -3 446 -1 q 414 21 414 4 q 419 43 414 38 q 476 53 457 46 q 500 87 494 61 q 506 169 506 113 l 506 411 q 480 509 506 481 q 414 538 454 538 q 264 456 347 538 q 248 433 256 446 q 240 397 240 419 l 240 169 q 247 87 240 113 q 272 54 254 61 q 326 43 290 47 q 332 21 332 38 q 326 -3 332 4 q 261 -1 294 -1 q 186 0 228 0 q 106 -1 144 0 q 36 -3 68 -1 q 31 21 31 4 q 36 43 31 38 q 95 53 75 46 q 123 87 115 61 q 131 169 131 113 l 131 440 q 124 499 131 481 q 97 525 117 518 q 40 535 78 532 q 38 555 39 542 q 38 574 36 568 q 144 593 110 583 q 208 614 179 603 q 219 610 217 614 q 225 603 222 607 q 233 560 231 592 q 236 497 235 528 z "},"n":{"ha":753,"x_min":31,"x_max":735,"o":"m 256 497 q 374 589 317 568 q 483 610 432 610 q 550 598 519 610 q 599 563 581 586 q 629 482 622 531 q 636 376 636 433 l 636 169 q 643 87 636 113 q 670 54 650 61 q 729 43 690 47 q 735 21 735 38 q 729 -3 735 4 q 661 -1 699 -1 q 582 0 624 0 q 506 -1 540 0 q 440 -3 472 -1 q 435 21 435 4 q 440 43 435 38 q 495 54 476 47 q 520 87 514 61 q 526 169 526 113 l 526 381 q 524 440 526 413 q 510 488 521 467 q 477 524 497 511 q 436 538 457 538 q 351 516 396 538 q 267 456 307 494 q 251 433 258 446 q 243 397 243 419 l 243 169 q 249 87 243 113 q 274 54 256 61 q 328 43 293 47 q 335 21 335 38 q 328 -3 335 4 q 264 -1 297 -1 q 189 0 231 0 q 108 -1 147 0 q 36 -3 68 -1 q 31 21 31 4 q 36 43 31 38 q 99 54 78 47 q 126 87 119 61 q 133 169 133 113 l 133 440 q 126 499 133 481 q 100 525 119 518 q 43 535 81 532 q 40 555 42 542 q 40 574 39 568 q 147 593 113 583 q 211 614 182 603 q 222 610 219 614 q 228 603 225 607 q 235 558 233 592 q 239 497 238 525 q 244 489 239 488 q 256 497 249 490 z "},"o":{"ha":700,"x_min":57,"x_max":643,"o":"m 57 285 q 76 409 57 350 q 133 513 96 468 q 228 583 172 557 q 351 610 283 610 q 487 582 431 610 q 577 508 543 554 q 627 406 611 461 q 643 297 643 351 q 621 172 643 233 q 553 64 599 110 q 466 8 517 29 q 349 -14 415 -14 q 185 31 250 -14 q 89 145 121 76 q 57 285 57 214 m 331 561 q 235 525 268 561 q 189 433 201 489 q 176 317 176 378 q 186 228 176 276 q 218 135 196 179 q 277 63 240 92 q 368 35 314 35 q 438 53 401 35 q 499 118 474 71 q 524 253 524 165 q 472 482 524 403 q 331 561 421 561 z "},"p":{"ha":721,"x_min":6,"x_max":668,"o":"m 217 511 q 232 506 218 490 q 324 581 274 551 q 422 610 374 610 q 549 569 493 610 q 636 465 604 529 q 668 326 668 400 q 641 177 668 242 q 565 64 614 113 q 471 5 522 24 q 361 -14 419 -14 q 240 8 293 -14 q 225 12 229 13 q 221 -3 221 11 l 221 -153 q 228 -235 221 -210 q 261 -269 236 -261 q 335 -279 286 -276 q 342 -301 342 -285 q 335 -325 342 -318 q 254 -323 300 -324 q 167 -322 208 -322 q 86 -323 125 -322 q 11 -325 47 -324 q 6 -301 6 -318 q 11 -279 6 -285 q 75 -269 54 -276 q 103 -236 96 -262 q 111 -153 111 -210 l 111 440 q 104 499 111 481 q 78 525 97 518 q 21 535 58 532 q 18 555 19 542 q 18 574 17 568 q 125 593 90 583 q 189 614 160 603 q 200 610 197 614 q 206 603 203 607 q 213 567 211 592 q 217 511 215 543 m 243 460 q 226 433 231 444 q 221 399 221 421 l 221 146 q 227 95 221 108 q 254 63 233 82 q 304 40 274 46 q 353 33 335 33 q 449 57 411 33 q 509 119 488 81 q 540 201 531 157 q 549 289 549 246 q 526 426 549 368 q 465 515 503 483 q 383 546 428 546 q 312 519 353 546 q 243 460 271 493 z "},"q":{"ha":699,"x_min":49,"x_max":697,"o":"m 481 -154 l 481 0 q 474 22 481 22 q 443 8 467 22 q 394 -8 425 -3 q 336 -14 364 -14 q 207 15 261 -14 q 117 88 153 43 q 65 186 82 133 q 49 288 49 239 q 87 452 49 379 q 192 567 125 525 q 343 610 258 610 q 427 600 388 610 q 500 569 467 590 q 519 565 513 561 q 540 588 526 569 q 556 606 549 599 q 569 614 563 614 q 585 604 581 614 q 590 579 590 594 l 590 -154 q 598 -237 590 -211 q 627 -269 606 -262 q 690 -279 649 -276 q 697 -301 697 -285 q 690 -325 697 -318 q 617 -323 656 -324 q 536 -322 578 -322 q 456 -323 494 -322 q 381 -325 417 -324 q 375 -301 375 -318 q 381 -279 375 -285 q 444 -269 424 -276 q 473 -237 465 -262 q 481 -154 481 -211 m 447 511 q 338 563 401 563 q 211 493 254 563 q 168 315 168 424 q 188 185 168 236 q 238 103 207 133 q 304 60 269 72 q 369 47 339 47 q 411 50 386 47 q 461 65 436 53 q 478 81 475 72 q 481 107 481 89 l 481 426 q 474 470 481 451 q 447 511 468 489 z "},"r":{"ha":517,"x_min":31,"x_max":497,"o":"m 244 497 q 249 488 244 492 q 260 494 254 483 q 324 572 283 535 q 414 610 365 610 q 478 586 458 610 q 497 543 497 563 q 477 495 497 517 q 432 474 457 474 q 402 485 414 474 q 382 506 390 496 q 365 520 374 517 q 346 524 356 524 q 326 511 338 524 q 302 483 314 499 q 282 456 290 467 q 259 414 269 438 q 249 363 249 390 l 249 169 q 257 87 249 113 q 290 54 265 61 q 363 43 314 47 q 369 21 369 38 q 363 -3 369 4 q 281 -1 326 -1 q 194 0 236 0 q 113 -1 153 0 q 36 -3 72 -1 q 31 21 31 4 q 36 43 31 38 q 101 53 79 46 q 131 87 124 61 q 139 169 139 113 l 139 440 q 132 499 139 481 q 106 525 125 518 q 49 535 86 532 q 46 555 47 542 q 46 574 44 568 q 153 593 118 583 q 217 614 188 603 q 228 610 225 614 q 233 603 231 607 q 241 565 239 592 q 244 497 243 539 z "},"s":{"ha":542,"x_min":67,"x_max":486,"o":"m 67 192 q 89 199 74 199 q 110 193 104 200 q 129 128 117 167 q 164 65 142 89 q 199 43 175 54 q 263 32 222 32 q 316 42 289 32 q 362 74 343 53 q 381 129 381 96 q 369 181 381 160 q 328 222 358 203 q 239 265 297 242 q 122 338 158 299 q 86 454 86 378 q 114 534 86 499 q 186 590 142 569 q 282 610 231 610 q 384 599 336 610 q 464 583 432 589 q 460 511 463 549 q 456 436 458 474 q 434 430 450 431 q 411 435 418 429 q 377 522 403 494 q 324 556 351 549 q 282 564 297 564 q 216 541 247 564 q 185 475 185 518 q 223 394 185 418 q 324 346 261 369 q 440 276 394 319 q 486 161 486 232 q 463 76 486 110 q 405 22 440 42 q 332 -6 369 3 q 265 -14 294 -14 q 197 -10 226 -14 q 139 1 167 -6 q 125 4 132 4 q 111 4 118 4 q 76 0 97 4 q 74 92 76 44 q 67 192 71 140 z "},"t":{"ha":439,"x_min":35,"x_max":418,"o":"m 60 596 l 124 596 q 123 685 124 654 q 122 728 122 715 q 120 747 121 742 q 119 757 119 751 q 128 768 119 764 q 150 776 138 772 q 197 796 174 783 q 228 808 219 808 q 239 796 239 808 q 236 757 239 796 q 233 650 233 718 l 233 596 l 400 596 q 411 588 411 596 l 411 560 q 400 546 411 550 q 378 542 389 542 l 233 542 l 233 190 q 242 94 233 126 q 279 63 251 63 q 337 72 307 63 q 393 101 367 81 q 418 78 414 100 q 328 9 378 32 q 231 -14 279 -14 q 153 18 183 -14 q 124 124 124 50 l 124 542 l 42 542 q 35 550 35 542 l 35 568 q 40 586 35 576 q 60 596 46 596 z "},"u":{"ha":738,"x_min":31,"x_max":722,"o":"m 301 -14 q 194 13 233 -14 q 138 84 154 40 q 122 175 122 128 l 122 442 q 104 529 122 510 q 36 553 86 549 q 31 576 31 560 q 36 599 31 593 q 108 597 72 597 q 178 596 144 596 q 226 599 213 596 q 238 590 238 599 q 236 563 238 590 q 233 502 235 536 q 232 447 232 468 l 232 194 q 251 102 232 133 q 297 61 271 71 q 343 51 322 51 q 406 68 369 51 q 482 118 443 85 q 501 142 497 131 q 504 172 504 153 l 504 440 q 487 530 504 510 q 418 553 469 550 q 413 576 413 560 q 418 599 413 593 q 490 597 454 597 q 560 596 526 596 q 608 599 594 596 q 619 590 619 599 q 618 563 619 590 q 615 502 617 536 q 614 447 614 468 l 614 181 q 631 107 614 129 q 715 79 649 85 q 722 61 722 74 q 715 42 722 49 q 613 20 651 35 q 551 -14 575 6 q 525 -14 539 -19 q 519 14 525 -14 q 510 68 513 42 q 501 74 508 75 q 489 69 494 74 q 301 -14 388 -14 z "},"v":{"ha":690,"x_min":10,"x_max":683,"o":"m 451 553 q 446 576 446 560 q 451 599 446 593 q 511 597 478 597 q 579 596 544 596 q 631 597 607 596 q 676 599 656 597 q 683 576 683 593 q 676 553 683 560 q 597 522 618 547 q 557 450 576 496 l 372 15 q 339 -17 358 -17 q 304 13 315 -17 l 126 451 q 101 507 113 486 q 72 538 90 528 q 15 553 53 549 q 10 576 10 560 q 15 599 10 593 q 78 597 47 597 q 144 596 110 596 q 215 597 179 596 q 285 599 250 597 q 292 576 292 593 q 285 553 292 560 q 226 528 229 546 q 242 460 222 510 l 342 192 q 367 147 358 149 q 393 188 376 146 l 506 460 q 517 531 526 513 q 451 553 508 549 z "},"w":{"ha":1038,"x_min":10,"x_max":1028,"o":"m 282 553 q 226 530 232 550 q 240 460 221 510 l 351 174 q 371 141 365 140 q 390 176 376 142 l 488 422 l 479 444 q 440 520 460 492 q 372 553 421 549 q 367 576 367 560 q 372 599 367 593 q 436 597 404 597 q 494 596 468 596 q 565 597 526 596 q 633 599 603 597 q 640 576 640 593 q 633 553 640 560 q 571 533 578 549 q 583 468 564 517 l 703 164 q 717 142 711 142 q 733 169 724 143 l 850 458 q 863 503 860 483 q 849 537 865 524 q 779 553 832 550 q 774 576 774 560 q 779 599 774 593 q 851 597 811 597 q 921 596 890 596 q 976 597 953 596 q 1021 599 1000 597 q 1028 576 1028 593 q 1021 553 1028 560 q 944 523 968 550 q 904 453 921 496 l 722 13 q 690 -17 711 -17 q 657 11 669 -17 l 514 356 l 374 14 q 340 -17 360 -17 q 307 11 319 -17 l 125 460 q 98 515 111 496 q 67 542 85 533 q 15 553 49 550 q 10 576 10 560 q 15 599 10 593 q 73 597 43 597 q 142 596 103 596 q 215 597 179 596 q 282 599 251 597 q 289 576 289 593 q 282 553 289 560 z "},"x":{"ha":681,"x_min":24,"x_max":658,"o":"m 253 497 l 338 372 q 351 360 346 361 q 364 369 357 360 l 454 496 q 469 540 479 531 q 421 553 460 549 q 415 576 415 560 q 421 599 415 593 q 478 597 449 597 q 538 596 507 596 q 594 597 569 596 q 639 599 618 597 q 646 576 646 593 q 639 553 646 560 q 572 538 601 550 q 504 476 543 525 l 388 328 q 388 307 379 318 l 513 131 q 560 74 540 92 q 599 51 579 56 q 651 43 619 46 q 658 21 658 38 q 651 -3 658 4 q 597 -1 626 -1 q 528 0 568 0 q 456 -1 490 0 q 390 -3 422 -1 q 385 21 385 4 q 390 43 385 38 q 425 50 413 46 q 435 69 438 54 q 408 117 432 83 l 328 228 q 316 237 321 236 q 303 225 311 238 l 215 99 q 200 56 192 65 q 246 43 208 47 q 253 21 253 38 q 246 -3 253 4 q 190 -1 219 -1 q 129 0 161 0 q 74 -1 99 0 q 29 -3 50 -1 q 24 21 24 4 q 29 43 24 38 q 74 49 54 44 q 115 70 94 54 q 164 121 136 86 l 281 271 q 279 292 288 279 l 158 468 q 99 531 129 511 q 33 553 69 550 q 28 576 28 560 q 33 599 28 593 q 92 597 61 597 q 153 596 122 596 q 225 597 185 596 q 293 599 265 597 q 300 576 300 593 q 293 553 300 560 q 238 540 246 547 q 253 497 229 532 z "},"y":{"ha":715,"x_min":17,"x_max":706,"o":"m 283 -222 q 208 -306 246 -289 q 149 -322 171 -322 q 102 -308 121 -322 q 83 -271 83 -293 q 99 -234 83 -257 q 144 -211 114 -211 q 163 -213 156 -211 q 185 -215 171 -215 q 254 -175 232 -215 q 283 -112 269 -143 q 308 -47 296 -82 q 313 -3 315 -28 q 302 46 310 22 q 289 83 294 69 l 132 449 q 99 513 114 492 q 67 542 85 533 q 22 553 50 550 q 17 576 17 560 q 22 599 17 593 q 72 597 43 597 q 135 596 100 596 q 213 597 172 596 q 292 599 253 597 q 299 576 299 593 q 292 553 299 560 q 231 528 233 549 q 246 463 228 507 l 369 174 q 403 172 386 135 l 540 490 q 543 528 551 515 q 515 546 535 540 q 474 553 496 551 q 468 576 468 560 q 474 599 468 593 q 538 597 506 597 q 600 596 569 596 q 653 597 629 596 q 699 599 678 597 q 706 576 706 593 q 699 553 706 560 q 628 528 650 547 q 586 464 607 508 q 515 307 550 386 q 438 130 479 228 q 340 -103 396 32 q 314 -163 328 -133 q 283 -222 300 -193 z "},"z":{"ha":589,"x_min":51,"x_max":561,"o":"m 99 610 q 131 600 114 604 q 181 596 147 596 l 435 596 q 490 597 465 596 q 521 599 515 599 q 538 589 538 599 q 533 574 538 585 q 513 538 528 564 q 439 420 481 485 q 352 288 397 356 q 263 158 307 221 q 179 47 218 96 l 364 47 q 446 73 418 49 q 500 153 474 97 l 519 193 q 561 185 546 193 q 542 83 554 133 q 517 -4 529 32 l 83 0 q 51 17 51 0 q 53 27 51 22 q 64 44 56 32 q 179 205 118 118 q 299 381 240 292 q 406 549 358 469 l 228 544 q 167 519 197 543 q 115 418 136 494 q 91 417 103 415 q 69 422 79 418 q 84 514 79 474 q 90 601 89 554 q 99 610 90 610 z "},"{":{"ha":385,"x_min":3,"x_max":365,"o":"m 247 767 l 258 536 q 244 438 261 475 q 193 380 226 400 q 113 346 160 360 l 113 340 q 223 265 183 311 q 258 132 263 218 l 247 -75 q 278 -212 243 -162 q 358 -261 313 -261 q 365 -277 365 -267 q 358 -294 365 -287 q 240 -276 289 -294 q 168 -208 192 -257 q 147 -68 144 -158 l 156 168 q 127 274 158 232 q 19 326 96 317 q 19 360 3 343 q 101 389 71 365 q 143 446 131 413 q 156 514 156 479 l 147 769 q 172 895 144 849 q 247 962 199 942 q 358 982 296 982 q 365 966 365 976 q 358 949 365 956 q 305 926 332 942 q 261 874 278 911 q 247 767 244 838 z "},"|":{"ha":285,"x_min":113,"x_max":174,"o":"m 174 -322 l 113 -322 l 113 969 l 174 969 l 174 -322 z "},"}":{"ha":385,"x_min":15,"x_max":376,"o":"m 132 -81 l 121 150 q 135 249 118 213 q 186 306 153 286 q 267 340 219 326 l 267 346 q 156 422 196 375 q 121 554 117 468 l 132 761 q 101 898 136 849 q 21 947 67 947 q 15 965 15 954 q 21 981 15 975 q 140 962 92 981 q 212 894 188 943 q 232 754 236 844 l 224 518 q 253 412 222 454 q 360 360 283 369 q 360 326 376 343 q 278 298 308 322 q 236 240 249 274 q 224 172 224 207 l 232 -83 q 208 -208 235 -161 q 132 -276 181 -256 q 21 -296 83 -296 q 15 -278 15 -289 q 21 -262 15 -268 q 74 -240 47 -254 q 119 -188 101 -225 q 132 -81 136 -151 z "},"~":{"ha":624,"x_min":36,"x_max":579,"o":"m 36 290 q 72 376 46 336 q 134 442 97 417 q 214 468 171 468 q 265 456 238 468 q 318 424 293 443 q 371 390 346 403 q 418 378 396 378 q 490 399 447 378 q 556 471 533 419 q 579 463 572 471 q 525 353 558 389 q 460 306 492 317 q 413 296 429 296 q 360 310 389 296 q 307 342 332 324 q 257 374 282 361 q 206 386 232 386 q 126 358 169 386 q 60 285 83 331 q 36 290 47 285 z "},"":{"ha":347,"x_min":0,"x_max":0,"o":""},"":{"ha":400,"x_min":126,"x_max":274,"o":"m 126 536 q 148 588 126 567 q 200 610 169 610 q 252 588 231 610 q 274 536 274 567 q 252 484 274 506 q 200 463 231 463 q 148 484 169 463 q 126 536 126 506 m 200 -318 q 151 -295 175 -318 q 126 -217 126 -272 q 132 -133 126 -172 q 145 -51 138 -94 q 160 51 153 -8 q 176 227 174 164 q 181 304 179 290 q 186 324 182 315 q 200 332 190 332 q 215 326 211 332 q 219 314 218 321 q 224 258 221 300 q 232 160 228 215 q 242 51 236 106 q 256 -51 249 -10 q 268 -131 263 -93 q 274 -217 274 -168 q 249 -295 274 -272 q 200 -318 225 -318 z "},"":{"ha":646,"x_min":96,"x_max":572,"o":"m 322 849 l 372 849 l 372 714 q 517 678 465 714 q 569 589 569 643 q 547 544 569 558 q 504 531 525 531 q 470 541 483 531 q 454 579 457 551 q 436 639 450 611 q 372 671 422 667 l 372 188 q 386 186 381 186 q 470 208 429 186 q 544 274 511 229 q 572 256 565 271 q 477 151 526 179 q 372 122 428 124 l 372 -18 l 322 -18 l 322 124 q 155 213 214 135 q 96 410 96 292 q 128 556 96 493 q 213 659 161 619 q 322 710 264 699 l 322 849 m 322 201 l 322 665 q 241 590 272 649 q 210 439 210 531 q 242 288 210 350 q 322 201 274 226 z "},"":{"ha":646,"x_min":22,"x_max":625,"o":"m 103 417 q 94 426 94 417 l 94 442 q 102 460 94 450 q 128 471 110 471 l 190 471 l 190 499 q 219 649 190 588 q 304 767 247 711 q 387 826 340 804 q 489 849 433 849 q 532 842 506 849 q 579 821 558 836 q 600 781 600 806 q 584 739 600 754 q 543 724 568 724 q 517 731 528 724 q 493 750 506 739 q 463 772 479 763 q 424 782 447 782 q 342 721 376 782 q 308 569 308 660 l 308 471 l 481 471 q 492 463 492 471 l 492 435 q 481 422 492 426 q 458 417 469 417 l 308 417 q 292 277 308 333 q 251 185 275 221 q 204 126 228 149 q 304 117 269 126 q 360 94 339 107 q 401 71 381 81 q 457 61 421 61 q 531 73 489 61 q 600 122 574 85 q 625 107 618 119 q 550 19 600 53 q 432 -15 500 -15 q 357 -3 385 -15 q 307 26 329 10 q 257 56 285 43 q 183 68 229 68 q 138 56 147 68 q 128 33 128 44 q 112 -3 128 10 q 72 -15 96 -15 q 38 -4 53 -15 q 22 24 22 7 q 44 60 22 43 q 93 93 65 78 q 172 217 154 138 q 190 390 190 296 l 190 417 l 103 417 z "},"":{"ha":646,"x_min":40,"x_max":606,"o":"m 321 165 q 163 218 235 165 l 100 140 l 40 200 l 119 263 q 61 422 61 333 q 119 583 61 514 l 43 644 l 97 703 l 164 628 q 321 679 236 679 q 481 625 410 679 l 549 706 l 606 646 l 525 581 q 581 422 581 513 q 526 265 581 336 l 603 201 l 550 146 l 483 219 q 321 165 411 165 m 150 424 q 171 326 150 371 q 231 254 192 281 q 321 228 269 228 q 410 255 372 228 q 470 326 449 282 q 492 422 492 371 q 469 522 492 478 q 408 592 446 565 q 324 618 369 618 q 233 591 272 618 q 172 520 194 564 q 150 424 150 476 z "},"":{"ha":646,"x_min":-6,"x_max":654,"o":"m 265 176 l 265 186 l 69 186 q 61 196 61 186 l 61 214 q 69 231 61 222 q 94 240 76 240 l 265 240 l 265 340 l 69 340 q 61 349 61 340 l 61 365 q 69 384 61 374 q 94 394 76 394 l 260 394 l 111 699 q 68 763 93 739 q 0 790 43 786 q -6 814 -6 797 q 0 836 -6 831 q 72 834 33 835 q 125 833 111 833 q 151 834 129 833 q 199 835 172 835 q 249 836 226 836 q 256 814 256 831 q 249 790 256 797 q 200 782 211 790 q 207 738 189 774 l 356 432 l 358 432 l 465 676 q 495 751 488 728 q 491 781 503 774 q 444 790 479 788 q 439 814 439 797 q 444 836 439 831 q 507 834 478 835 q 554 833 536 833 q 593 834 572 833 q 647 836 614 835 q 653 814 654 831 q 644 790 651 797 q 591 780 608 788 q 561 750 574 772 q 525 676 549 728 l 397 394 l 576 394 q 588 386 588 394 l 588 360 q 576 345 588 350 q 553 340 564 340 l 383 340 l 383 240 l 576 240 q 588 232 588 240 l 588 206 q 576 191 588 196 q 553 186 564 186 l 383 186 l 383 176 q 394 88 383 115 q 436 53 406 61 q 525 43 467 46 q 532 21 532 38 q 525 -3 532 4 q 427 -1 469 -1 q 326 0 385 0 q 222 -1 267 0 q 124 -3 178 -1 q 118 21 118 4 q 124 43 118 38 q 213 53 183 46 q 254 88 243 61 q 265 176 265 115 z "},"":{"ha":293,"x_min":113,"x_max":181,"o":"m 181 936 l 181 433 l 113 433 l 113 936 l 181 936 m 181 224 l 181 -279 l 113 -279 l 113 224 l 181 224 z "},"":{"ha":657,"x_min":69,"x_max":588,"o":"m 174 576 q 124 651 138 614 q 111 731 111 688 q 135 819 111 776 q 208 888 160 861 q 328 914 257 914 q 438 890 396 914 q 501 834 481 867 q 521 774 521 801 q 510 736 521 751 q 471 721 499 721 q 432 740 444 721 q 414 778 419 758 q 384 844 404 818 q 319 871 364 871 q 239 839 271 871 q 207 758 207 807 q 236 669 207 710 q 333 593 265 629 q 418 548 374 572 q 501 492 463 524 q 563 414 539 460 q 588 304 588 368 q 559 185 588 235 q 483 99 531 136 q 533 25 519 61 q 546 -56 546 -11 q 522 -143 546 -101 q 449 -212 497 -185 q 329 -239 401 -239 q 219 -215 263 -239 q 156 -158 176 -192 q 136 -99 136 -125 q 147 -61 136 -76 q 186 -46 158 -46 q 226 -65 214 -46 q 243 -103 238 -83 q 274 -169 254 -142 q 338 -196 293 -196 q 418 -163 386 -196 q 450 -83 450 -131 q 421 6 450 -35 q 324 82 392 46 q 239 127 283 103 q 156 183 194 151 q 94 261 118 215 q 69 371 69 307 q 99 488 69 438 q 174 576 128 539 m 454 125 q 496 176 479 147 q 513 238 513 204 q 482 344 513 301 q 405 419 451 388 q 308 479 358 450 q 203 550 243 517 q 160 499 176 525 q 144 438 144 474 q 175 331 144 374 q 252 256 206 288 q 349 196 299 225 q 454 125 414 158 z "},"":{"ha":526,"x_min":69,"x_max":435,"o":"m 69 799 q 89 846 69 826 q 135 865 108 865 q 181 846 163 865 q 200 799 200 826 q 181 753 200 772 q 135 733 163 733 q 89 753 108 733 q 69 799 69 772 m 304 799 q 324 846 304 826 q 369 865 343 865 q 416 846 397 865 q 435 799 435 826 q 416 753 435 772 q 369 733 397 733 q 324 753 343 733 q 304 799 304 772 z "},"":{"ha":965,"x_min":47,"x_max":844,"o":"m 446 32 q 292 63 364 32 q 165 147 219 93 q 78 273 110 201 q 47 425 47 344 q 78 578 47 507 q 165 702 110 649 q 293 786 221 756 q 446 817 365 817 q 599 786 528 817 q 726 702 671 756 q 813 578 782 649 q 844 425 844 507 q 813 273 844 344 q 726 147 782 201 q 599 63 671 93 q 446 32 528 32 m 446 772 q 271 726 349 772 q 148 601 193 679 q 103 425 103 522 q 148 250 103 329 q 271 124 193 171 q 446 76 349 76 q 619 124 542 76 q 743 250 697 171 q 789 425 789 329 q 743 601 789 522 q 620 726 697 679 q 446 772 543 772 m 610 300 q 546 240 589 268 q 446 211 503 211 q 304 260 363 211 q 249 333 268 290 q 229 422 229 376 q 242 499 229 463 q 279 564 254 535 q 449 635 343 635 q 524 630 497 635 q 567 620 551 625 q 597 614 583 615 q 599 549 600 575 q 597 499 599 524 q 569 493 588 493 q 527 572 551 542 q 443 603 503 603 q 388 588 415 603 q 341 537 360 574 q 322 432 322 500 q 361 303 322 356 q 458 251 400 251 q 542 278 511 251 q 583 321 572 304 q 599 313 593 318 q 610 300 606 307 z "},"":{"ha":426,"x_min":43,"x_max":393,"o":"m 326 497 q 285 515 300 497 q 268 551 271 533 q 209 509 233 521 q 150 497 185 497 q 75 524 107 497 q 43 594 43 550 q 82 668 43 639 q 186 714 121 697 l 267 735 q 255 812 267 788 q 226 843 243 836 q 192 850 208 850 q 137 840 157 850 q 117 813 117 829 q 119 794 117 800 q 122 778 122 789 q 114 759 122 769 q 86 749 106 749 q 60 758 71 749 q 50 783 50 768 q 74 834 50 811 q 132 871 99 857 q 194 885 165 885 q 263 872 229 885 q 319 826 296 860 q 342 726 342 792 l 342 622 q 347 561 342 579 q 361 543 351 543 q 378 550 371 543 q 392 528 393 544 q 364 508 382 518 q 326 497 346 497 m 267 697 q 147 653 178 675 q 115 599 115 631 q 129 559 115 576 q 178 542 143 542 q 220 553 200 542 q 267 588 240 564 l 267 697 z "},"":{"ha":754,"x_min":103,"x_max":643,"o":"m 217 299 q 297 199 256 254 q 393 63 339 144 q 381 45 390 53 q 360 36 371 38 q 219 182 276 125 q 103 290 161 239 l 103 307 q 219 415 161 358 q 360 561 276 472 q 381 553 371 560 q 393 535 390 546 q 297 398 339 453 q 217 299 256 343 m 467 299 q 547 199 506 254 q 643 63 589 144 q 631 45 640 53 q 610 36 621 38 q 469 182 526 125 q 353 290 411 239 l 353 307 q 469 415 411 358 q 610 561 526 472 q 631 553 621 560 q 643 535 640 546 q 547 398 589 453 q 467 299 506 343 z "},"":{"ha":832,"x_min":49,"x_max":768,"o":"m 693 138 l 693 449 l 56 449 q 50 477 51 463 q 56 510 49 492 l 768 510 l 768 138 q 732 129 751 131 q 693 138 713 128 z "},"":{"ha":469,"x_min":56,"x_max":414,"o":"m 376 310 l 76 310 q 61 318 67 310 q 56 336 56 326 q 67 374 56 356 q 90 393 78 393 l 394 393 q 410 385 406 393 q 414 365 414 376 q 402 331 414 353 q 376 310 390 310 z "},"":{"ha":965,"x_min":47,"x_max":844,"o":"m 446 32 q 292 63 364 32 q 165 147 219 93 q 78 273 110 201 q 47 425 47 344 q 78 578 47 507 q 165 702 110 649 q 293 786 221 756 q 446 817 365 817 q 599 786 528 817 q 726 702 671 756 q 813 578 782 649 q 844 425 844 507 q 813 273 844 344 q 726 147 782 201 q 599 63 671 93 q 446 32 528 32 m 446 772 q 271 726 349 772 q 148 601 193 679 q 103 425 103 522 q 148 250 103 329 q 271 124 193 171 q 446 76 349 76 q 619 124 542 76 q 743 250 697 171 q 789 425 789 329 q 743 601 789 522 q 620 726 697 679 q 446 772 543 772 m 365 615 q 413 617 382 615 q 465 618 444 618 q 547 601 518 618 q 586 559 575 583 q 597 514 597 535 q 574 448 597 474 q 518 411 550 422 l 585 297 q 644 264 608 257 q 650 240 653 256 q 600 231 626 231 q 556 242 579 231 q 515 283 533 253 l 449 394 q 424 399 444 397 q 397 400 403 400 l 397 322 q 408 278 397 289 q 453 265 419 268 q 457 249 457 261 q 453 232 457 236 q 408 234 435 233 q 365 235 382 235 q 322 234 349 235 q 276 232 296 233 q 272 249 272 236 q 276 265 272 261 q 321 278 310 268 q 332 322 332 289 l 332 528 q 321 572 332 561 q 276 585 310 582 q 272 601 272 589 q 276 618 272 614 q 322 616 296 617 q 365 615 349 615 m 522 514 q 453 585 522 585 q 412 571 426 585 q 397 538 397 557 l 397 433 l 456 433 q 505 450 488 433 q 522 514 522 467 z "},"":{"ha":551,"x_min":82,"x_max":471,"o":"m 438 735 l 99 735 q 85 742 89 735 q 82 756 82 749 q 91 782 82 768 q 113 796 100 796 l 451 796 q 467 790 463 796 q 471 776 471 783 q 461 749 471 764 q 438 735 451 735 z "},"":{"ha":371,"x_min":47,"x_max":324,"o":"m 47 707 q 88 806 47 765 q 186 847 129 847 q 283 806 243 847 q 324 707 324 765 q 283 609 324 650 q 186 568 243 568 q 88 609 129 568 q 47 707 47 650 m 276 706 q 255 773 276 740 q 186 806 233 806 q 118 774 142 806 q 94 706 94 743 q 119 640 94 669 q 186 610 143 610 q 253 640 229 610 q 276 706 276 671 z "},"":{"ha":764,"x_min":83,"x_max":681,"o":"m 347 722 q 365 748 347 736 q 393 760 383 760 q 409 756 401 760 q 417 740 417 751 l 417 501 l 661 501 q 676 494 672 501 q 681 478 681 486 q 669 450 681 468 q 643 432 657 432 l 417 432 l 417 210 q 401 186 417 197 q 369 175 385 175 q 354 181 361 175 q 347 196 347 186 l 347 432 l 104 432 q 89 439 94 432 q 83 454 83 446 q 94 485 83 469 q 118 501 106 501 l 347 501 l 347 722 m 643 51 l 104 51 q 89 58 94 51 q 83 74 83 65 q 94 105 83 89 q 118 121 106 121 l 661 121 q 676 113 672 121 q 681 97 681 106 q 669 69 681 88 q 643 51 657 51 z "},"":{"ha":426,"x_min":63,"x_max":375,"o":"m 101 815 q 77 825 89 815 q 65 849 65 835 q 80 892 65 867 q 127 936 94 917 q 214 956 160 956 q 283 945 249 956 q 341 910 318 935 q 364 840 364 885 q 331 755 364 793 q 240 675 299 717 q 178 615 197 644 q 149 550 158 585 l 264 550 q 313 582 296 550 q 342 643 331 614 q 375 636 364 643 q 349 506 365 560 l 63 506 q 97 599 63 556 q 182 682 132 643 q 253 751 229 719 q 278 839 278 783 q 266 888 278 872 q 238 909 254 904 q 208 914 221 914 q 162 906 176 914 q 142 885 147 897 q 139 865 138 876 q 139 844 140 853 q 124 821 136 826 q 101 815 113 815 z "},"":{"ha":426,"x_min":53,"x_max":381,"o":"m 258 867 q 240 904 258 894 q 206 914 222 914 q 164 906 188 914 q 133 881 140 897 q 124 855 128 869 q 96 840 119 840 q 70 851 76 840 q 64 865 64 863 q 78 899 64 878 q 128 938 93 921 q 222 956 163 956 q 308 934 276 956 q 340 874 340 913 q 320 819 340 843 q 269 779 300 796 q 319 764 293 778 q 363 724 344 750 q 381 657 381 697 q 326 541 381 585 q 188 497 271 497 q 138 503 169 497 q 79 522 106 508 q 53 557 53 535 q 64 579 53 571 q 88 588 75 588 q 129 564 118 588 q 147 545 135 551 q 193 539 160 539 q 238 547 214 539 q 278 578 261 556 q 294 646 294 601 q 276 703 294 686 q 232 726 257 721 q 190 731 207 731 q 177 730 183 731 q 163 728 171 729 q 157 745 157 735 q 160 765 157 756 q 232 798 206 772 q 258 867 258 824 z "},"":{"ha":474,"x_min":122,"x_max":343,"o":"m 243 976 q 263 979 251 979 q 292 975 269 979 q 339 947 315 971 l 343 932 l 183 781 q 158 760 168 765 q 142 754 149 754 q 128 760 135 754 q 122 772 122 765 q 126 790 122 783 q 138 811 129 797 l 243 976 z "},"":{"ha":715,"x_min":64,"x_max":708,"o":"m 472 83 q 384 12 432 38 q 269 -14 336 -14 q 217 -5 242 -14 q 179 18 192 4 q 167 15 174 18 q 161 6 161 11 q 173 -85 161 -39 q 197 -171 185 -131 q 208 -242 208 -211 q 191 -305 208 -285 q 149 -325 174 -325 q 118 -315 138 -325 q 84 -283 99 -304 q 69 -235 69 -262 q 81 -129 69 -182 q 92 -11 92 -76 q 85 75 92 24 q 79 186 79 126 l 79 447 q 77 487 79 463 q 72 536 75 511 q 66 578 68 561 q 64 596 64 596 q 122 601 89 596 q 185 610 154 607 q 186 585 185 610 q 188 530 188 561 q 189 476 189 499 l 189 204 q 210 94 189 140 q 290 49 232 49 q 365 64 329 49 q 431 103 401 79 q 475 149 460 126 l 475 596 q 530 601 501 596 q 585 610 558 607 l 585 168 q 592 84 585 121 q 643 47 600 47 q 678 58 671 47 q 692 69 686 69 q 702 63 696 69 q 708 49 708 56 q 693 30 708 46 q 650 0 678 14 q 586 -14 622 -14 q 521 2 544 -14 q 488 41 497 18 q 475 83 478 64 l 472 83 z "},"":{"ha":836,"x_min":79,"x_max":815,"o":"m 567 896 q 701 897 639 896 q 813 899 763 897 l 815 896 l 815 869 q 804 858 815 860 l 768 856 q 709 841 726 853 q 692 797 692 829 l 692 -224 q 709 -267 692 -254 q 768 -282 726 -279 l 804 -285 q 815 -296 815 -286 l 815 -322 l 813 -325 q 701 -322 763 -322 q 567 -322 639 -322 q 433 -322 494 -322 q 321 -325 372 -322 l 318 -322 l 318 -296 q 328 -285 318 -286 l 365 -282 q 424 -266 408 -279 q 440 -224 440 -253 l 440 396 q 421 393 431 394 q 396 392 411 392 q 162 460 244 392 q 79 668 79 529 q 107 776 79 724 q 193 864 135 829 q 343 899 251 899 q 480 897 421 899 q 567 896 539 896 m 510 797 l 510 -224 q 526 -264 510 -251 q 565 -276 542 -276 q 606 -266 589 -276 q 622 -224 622 -256 l 622 797 q 606 840 622 829 q 565 850 589 850 q 526 838 542 850 q 510 797 510 825 z "},"":{"ha":347,"x_min":99,"x_max":249,"o":"m 174 276 q 122 299 144 276 q 99 351 99 322 q 122 403 99 381 q 174 426 144 426 q 226 403 203 426 q 249 351 249 381 q 226 299 249 322 q 174 276 203 276 z "},"":{"ha":751,"x_min":300,"x_max":551,"o":"m 419 -133 q 387 -135 400 -133 q 357 -142 374 -136 l 349 -133 l 404 0 l 451 0 l 417 -93 q 453 -89 433 -89 q 523 -112 494 -89 q 551 -175 551 -135 q 509 -249 551 -219 q 403 -278 467 -278 q 348 -272 369 -278 q 300 -254 326 -265 q 314 -218 300 -232 q 358 -233 342 -228 q 394 -237 374 -237 q 446 -223 426 -237 q 465 -182 465 -208 q 454 -147 465 -160 q 419 -133 443 -133 z "},"":{"ha":426,"x_min":94,"x_max":369,"o":"m 188 861 q 154 856 174 861 q 108 840 135 850 q 94 878 94 851 q 177 912 143 896 q 257 956 211 928 q 269 960 263 958 q 282 956 276 961 l 282 624 q 303 560 282 571 q 358 546 324 549 q 358 506 369 525 q 302 507 328 507 q 242 507 276 507 q 173 507 206 507 q 108 506 140 507 q 103 525 104 513 q 108 546 103 538 q 178 560 150 549 q 207 624 207 571 l 207 804 q 203 849 207 838 q 188 861 200 861 z "},"":{"ha":485,"x_min":54,"x_max":432,"o":"m 54 671 q 107 808 54 756 q 249 861 160 861 q 350 835 310 861 q 411 769 390 810 q 432 679 432 728 q 411 592 432 635 q 347 523 390 550 q 239 496 304 496 q 146 519 188 496 q 79 582 104 542 q 54 671 54 622 m 238 825 q 160 783 186 825 q 135 685 135 742 q 147 616 135 651 q 186 556 160 581 q 254 532 213 532 q 296 542 274 532 q 335 580 318 553 q 351 657 351 607 q 321 783 351 740 q 238 825 290 825 z "},"":{"ha":754,"x_min":111,"x_max":651,"o":"m 538 299 q 457 398 499 343 q 361 535 415 453 q 374 553 364 546 q 394 561 383 560 q 535 415 478 472 q 651 307 593 358 l 651 290 q 535 182 593 239 q 394 36 478 125 q 374 45 383 38 q 361 63 364 53 q 457 199 415 144 q 538 299 499 254 m 288 299 q 207 398 249 343 q 111 535 165 453 q 124 553 114 546 q 144 561 133 560 q 285 415 228 472 q 401 307 343 358 l 401 290 q 285 182 343 239 q 144 36 228 125 q 124 45 133 38 q 111 63 114 53 q 207 199 165 144 q 288 299 249 254 z "},"":{"ha":917,"x_min":90,"x_max":888,"o":"m 183 793 q 150 788 169 793 q 104 772 131 782 q 90 810 90 783 q 173 844 139 828 q 253 888 207 860 q 265 892 258 890 q 278 888 272 893 l 278 556 q 299 492 278 503 q 354 478 319 481 q 354 438 365 457 q 298 439 324 439 q 238 439 272 439 q 169 439 201 439 q 104 438 136 439 q 99 457 100 444 q 104 478 99 469 q 174 492 146 481 q 203 556 203 503 l 203 736 q 199 781 203 769 q 183 793 196 793 m 774 835 l 831 824 l 194 -86 l 136 -75 l 774 835 m 733 -8 l 733 25 l 568 25 q 540 40 540 25 q 542 64 539 56 q 548 76 544 71 q 556 88 551 82 q 633 196 590 143 q 711 292 675 249 q 733 314 721 303 q 761 335 744 325 q 769 335 761 335 q 779 336 776 336 q 796 334 786 336 q 806 322 806 332 l 806 72 l 883 72 l 875 25 l 806 25 l 806 -8 q 824 -60 806 -51 q 876 -72 842 -69 q 876 -112 888 -93 q 822 -111 846 -111 q 768 -111 799 -111 q 712 -111 732 -111 q 660 -112 692 -111 q 655 -93 656 -106 q 660 -72 654 -81 q 717 -60 701 -69 q 733 -8 733 -51 m 733 267 q 676 192 706 232 q 624 118 646 151 q 597 72 601 85 l 733 72 l 733 267 z "},"":{"ha":917,"x_min":93,"x_max":872,"o":"m 186 793 q 153 788 172 793 q 107 772 133 782 q 93 810 93 783 q 176 844 142 828 q 256 888 210 860 q 268 892 261 890 q 281 888 275 893 l 281 556 q 301 492 281 503 q 357 478 322 481 q 357 438 368 457 q 301 439 326 439 q 240 439 275 439 q 172 439 204 439 q 107 438 139 439 q 102 457 103 444 q 107 478 101 469 q 177 492 149 481 q 206 556 206 503 l 206 736 q 202 781 206 769 q 186 793 199 793 m 739 835 l 797 824 l 160 -86 l 103 -75 l 739 835 m 599 200 q 574 210 586 200 q 563 233 563 219 q 577 276 563 251 q 624 321 592 301 q 711 340 657 340 q 781 330 746 340 q 838 294 815 319 q 861 225 861 269 q 828 140 861 178 q 738 60 796 101 q 675 -1 694 29 q 646 -65 656 -31 l 761 -65 q 810 -33 793 -65 q 839 28 828 -1 q 872 21 861 28 q 846 -110 863 -56 l 560 -110 q 594 -16 560 -60 q 679 67 629 28 q 751 136 726 104 q 775 224 775 168 q 763 273 775 257 q 735 294 751 289 q 706 299 718 299 q 659 290 674 299 q 639 269 644 282 q 636 249 635 261 q 636 229 638 238 q 622 206 633 211 q 599 200 610 200 z "},"":{"ha":917,"x_min":50,"x_max":893,"o":"m 256 796 q 238 833 256 824 q 203 843 219 843 q 161 835 185 843 q 131 810 138 826 q 121 784 125 799 q 93 769 117 769 q 67 781 74 769 q 61 794 61 792 q 76 828 61 807 q 125 867 90 850 q 219 885 160 885 q 306 863 274 885 q 338 803 338 842 q 317 749 338 772 q 267 708 297 725 q 316 693 290 707 q 360 653 342 679 q 378 586 378 626 q 323 470 378 514 q 185 426 268 426 q 135 432 167 426 q 76 451 103 438 q 50 486 50 464 q 61 508 50 500 q 85 517 72 517 q 126 493 115 517 q 144 474 132 481 q 190 468 157 468 q 235 476 211 468 q 275 508 258 485 q 292 575 292 531 q 273 633 292 615 q 229 655 254 650 q 188 660 204 660 q 174 659 181 660 q 160 657 168 658 q 154 674 154 664 q 157 694 154 685 q 229 727 203 701 q 256 796 256 753 m 781 835 l 838 824 l 201 -86 l 143 -75 l 781 835 m 739 -6 l 739 28 l 574 28 q 545 43 546 28 q 547 67 544 58 q 553 79 550 74 q 561 90 557 85 q 638 199 596 146 q 717 294 681 251 q 738 317 726 306 q 767 338 750 328 q 774 338 767 338 q 785 339 782 339 q 801 337 792 339 q 811 325 811 335 l 811 75 l 889 75 l 881 28 l 811 28 l 811 -6 q 829 -58 811 -49 q 882 -69 847 -67 q 882 -110 893 -90 q 828 -108 851 -108 q 774 -108 804 -108 q 717 -108 738 -108 q 665 -110 697 -108 q 660 -90 661 -103 q 665 -69 660 -78 q 723 -58 707 -67 q 739 -6 739 -49 m 739 269 q 681 194 711 235 q 629 121 651 154 q 603 75 607 88 l 739 75 l 739 269 z "},"":{"ha":604,"x_min":64,"x_max":540,"o":"m 257 536 q 278 588 257 567 q 331 610 300 610 q 383 588 361 610 q 404 536 404 567 q 383 484 404 506 q 331 463 361 463 q 278 484 300 463 q 257 536 257 506 m 446 -199 q 444 -176 446 -183 q 438 -162 442 -168 q 429 -129 429 -151 q 447 -93 429 -106 q 483 -81 464 -81 q 520 -92 500 -81 q 540 -140 540 -104 q 521 -210 540 -179 q 469 -265 501 -240 q 297 -319 407 -319 q 128 -262 192 -319 q 64 -110 64 -204 q 88 -15 64 -54 q 148 55 113 25 q 215 108 183 85 q 258 143 239 126 q 288 178 278 160 q 304 229 301 204 q 307 279 307 254 l 307 340 q 315 351 307 347 q 331 354 322 354 q 346 351 339 354 q 353 340 353 347 l 353 276 q 347 210 353 247 q 322 134 342 174 q 256 53 301 94 q 197 -21 214 14 q 179 -104 179 -56 q 215 -223 179 -172 q 311 -274 251 -274 q 408 -251 371 -274 q 446 -199 446 -229 z "},"":{"ha":965,"x_min":4,"x_max":958,"o":"m 215 110 q 218 67 204 81 q 258 49 232 54 q 311 43 285 44 q 318 21 318 38 q 311 -3 318 4 q 224 -1 272 -1 q 133 0 176 0 q 69 -1 101 0 q 10 -3 38 -1 q 4 21 4 4 q 10 43 4 38 q 89 62 56 46 q 149 142 122 78 l 464 886 q 501 895 478 886 q 540 914 525 904 l 826 119 q 878 58 844 69 q 951 43 911 47 q 958 21 958 38 q 951 -3 958 4 q 876 -1 915 -1 q 793 0 836 0 q 701 -1 753 0 q 611 -3 650 -1 q 606 21 606 4 q 611 43 606 38 q 694 56 661 47 q 714 100 726 64 l 633 335 l 340 335 q 306 330 315 335 q 292 311 297 325 l 215 110 m 365 393 l 611 393 l 481 771 l 472 771 l 331 411 q 335 397 326 401 q 365 393 343 393 m 394 1136 l 563 1019 q 583 990 583 1004 q 577 976 583 982 q 563 969 571 969 q 540 973 554 969 q 503 986 525 976 l 289 1074 q 333 1108 308 1092 q 394 1136 358 1124 z "},"":{"ha":965,"x_min":4,"x_max":958,"o":"m 215 110 q 218 67 204 81 q 258 49 232 54 q 311 43 285 44 q 318 21 318 38 q 311 -3 318 4 q 224 -1 272 -1 q 133 0 176 0 q 69 -1 101 0 q 10 -3 38 -1 q 4 21 4 4 q 10 43 4 38 q 89 62 56 46 q 149 142 122 78 l 464 886 q 501 895 478 886 q 540 914 525 904 l 826 119 q 878 58 844 69 q 951 43 911 47 q 958 21 958 38 q 951 -3 958 4 q 876 -1 915 -1 q 793 0 836 0 q 701 -1 753 0 q 611 -3 650 -1 q 606 21 606 4 q 611 43 606 38 q 694 56 661 47 q 714 100 726 64 l 633 335 l 340 335 q 306 330 315 335 q 292 311 297 325 l 215 110 m 365 393 l 611 393 l 481 771 l 472 771 l 331 411 q 335 397 326 401 q 365 393 343 393 m 579 1139 q 665 1067 639 1111 l 465 986 q 430 973 443 976 q 407 969 417 969 q 386 990 386 969 q 390 1003 386 997 q 407 1019 393 1010 l 579 1139 z "},"":{"ha":965,"x_min":4,"x_max":958,"o":"m 215 110 q 218 67 204 81 q 258 49 232 54 q 311 43 285 44 q 318 21 318 38 q 311 -3 318 4 q 224 -1 272 -1 q 133 0 176 0 q 69 -1 101 0 q 10 -3 38 -1 q 4 21 4 4 q 10 43 4 38 q 89 62 56 46 q 149 142 122 78 l 464 886 q 501 895 478 886 q 540 914 525 904 l 826 119 q 878 58 844 69 q 951 43 911 47 q 958 21 958 38 q 951 -3 958 4 q 876 -1 915 -1 q 793 0 836 0 q 701 -1 753 0 q 611 -3 650 -1 q 606 21 606 4 q 611 43 606 38 q 694 56 661 47 q 714 100 726 64 l 633 335 l 340 335 q 306 330 315 335 q 292 311 297 325 l 215 110 m 365 393 l 611 393 l 481 771 l 472 771 l 331 411 q 335 397 326 401 q 365 393 343 393 m 524 1122 q 592 1050 556 1085 q 667 988 629 1015 q 659 970 664 978 q 644 958 654 963 q 568 997 604 978 q 497 1043 532 1017 q 424 996 458 1015 q 349 958 389 976 q 329 988 333 968 q 403 1052 368 1017 q 469 1122 438 1088 q 496 1131 485 1131 q 524 1122 507 1131 z "},"":{"ha":965,"x_min":4,"x_max":958,"o":"m 215 110 q 218 67 204 81 q 258 49 232 54 q 311 43 285 44 q 318 21 318 38 q 311 -3 318 4 q 224 -1 272 -1 q 133 0 176 0 q 69 -1 101 0 q 10 -3 38 -1 q 4 21 4 4 q 10 43 4 38 q 89 62 56 46 q 149 142 122 78 l 464 886 q 501 895 478 886 q 540 914 525 904 l 826 119 q 878 58 844 69 q 951 43 911 47 q 958 21 958 38 q 951 -3 958 4 q 876 -1 915 -1 q 793 0 836 0 q 701 -1 753 0 q 611 -3 650 -1 q 606 21 606 4 q 611 43 606 38 q 694 56 661 47 q 714 100 726 64 l 633 335 l 340 335 q 306 330 315 335 q 292 311 297 325 l 215 110 m 365 393 l 611 393 l 481 771 l 472 771 l 331 411 q 335 397 326 401 q 365 393 343 393 m 586 1038 q 624 1052 610 1038 q 651 1110 638 1067 q 689 1101 674 1111 q 647 1001 676 1039 q 568 964 617 964 q 524 979 546 964 q 479 1008 501 994 q 442 1027 461 1019 q 404 1035 422 1035 q 365 1019 378 1035 q 340 968 351 1003 q 303 975 314 964 q 344 1074 318 1036 q 414 1111 369 1111 q 469 1095 446 1111 q 514 1064 493 1079 q 586 1038 549 1038 z "},"":{"ha":965,"x_min":4,"x_max":958,"o":"m 215 110 q 218 67 204 81 q 258 49 232 54 q 311 43 285 44 q 318 21 318 38 q 311 -3 318 4 q 224 -1 272 -1 q 133 0 176 0 q 69 -1 101 0 q 10 -3 38 -1 q 4 21 4 4 q 10 43 4 38 q 89 62 56 46 q 149 142 122 78 l 464 886 q 501 895 478 886 q 540 914 525 904 l 826 119 q 878 58 844 69 q 951 43 911 47 q 958 21 958 38 q 951 -3 958 4 q 876 -1 915 -1 q 793 0 836 0 q 701 -1 753 0 q 611 -3 650 -1 q 606 21 606 4 q 611 43 606 38 q 694 56 661 47 q 714 100 726 64 l 633 335 l 340 335 q 306 330 315 335 q 292 311 297 325 l 215 110 m 365 393 l 611 393 l 481 771 l 472 771 l 331 411 q 335 397 326 401 q 365 393 343 393 m 558 1051 q 578 1099 558 1079 q 625 1118 599 1118 q 672 1099 653 1118 q 692 1051 692 1079 q 672 1005 692 1025 q 625 985 653 985 q 578 1005 599 985 q 558 1051 558 1025 m 296 1051 q 316 1099 296 1079 q 363 1118 336 1118 q 410 1099 390 1118 q 429 1051 429 1079 q 410 1005 429 1025 q 363 985 390 985 q 316 1005 336 985 q 296 1051 296 1025 z "},"":{"ha":965,"x_min":4,"x_max":958,"o":"m 215 110 q 218 67 204 81 q 258 49 232 54 q 311 43 285 44 q 318 21 318 38 q 311 -3 318 4 q 224 -1 272 -1 q 133 0 176 0 q 69 -1 101 0 q 10 -3 38 -1 q 4 21 4 4 q 10 43 4 38 q 89 62 56 46 q 149 142 122 78 l 461 881 q 401 922 425 892 q 376 992 376 953 q 414 1075 376 1040 q 499 1110 451 1110 q 584 1075 547 1110 q 621 992 621 1040 q 601 929 621 958 q 550 886 582 900 l 826 119 q 878 58 844 69 q 951 43 911 47 q 958 21 958 38 q 951 -3 958 4 q 876 -1 915 -1 q 793 0 836 0 q 701 -1 753 0 q 611 -3 650 -1 q 606 21 606 4 q 611 43 606 38 q 694 56 661 47 q 714 100 726 64 l 633 335 l 340 335 q 306 330 315 335 q 292 311 297 325 l 215 110 m 499 1065 q 449 1044 467 1065 q 432 992 432 1024 q 449 940 432 963 q 499 918 467 918 q 548 940 531 918 q 565 992 565 963 q 548 1044 565 1024 q 499 1065 531 1065 m 365 393 l 611 393 l 481 771 l 472 771 l 331 411 q 335 397 326 401 q 365 393 343 393 z "},"":{"ha":1201,"x_min":4,"x_max":1182,"o":"m 596 169 l 596 369 l 349 369 l 214 110 q 215 69 200 82 q 257 50 229 56 q 311 43 285 44 q 318 21 318 38 q 311 -3 318 4 q 224 -1 272 -1 q 133 0 176 0 q 71 -1 93 0 q 10 -3 49 -1 q 4 21 4 4 q 10 43 4 38 q 88 63 56 46 q 154 142 121 81 l 492 774 q 495 828 508 806 q 408 853 482 850 q 403 876 403 860 q 408 899 403 893 q 480 898 443 899 q 542 897 517 897 q 568 896 568 896 l 1007 896 q 1044 897 1032 896 q 1075 901 1057 899 q 1081 897 1081 901 q 1085 869 1082 893 q 1094 814 1089 846 q 1103 749 1099 782 q 1111 696 1108 717 q 1065 689 1089 685 q 1034 771 1050 738 q 990 822 1018 804 q 908 840 961 840 l 763 840 q 725 822 738 840 q 713 779 713 804 l 713 501 l 839 501 q 924 509 899 501 q 957 538 950 517 q 965 596 964 558 q 989 603 972 603 q 1011 596 1006 603 q 1009 538 1010 565 q 1008 476 1008 511 q 1009 415 1008 440 q 1011 354 1010 390 q 989 349 1006 349 q 965 354 972 349 q 957 407 964 386 q 924 438 950 428 q 839 449 899 449 l 713 449 l 713 114 q 763 54 713 54 l 951 54 q 1072 108 1031 54 q 1133 236 1113 161 q 1182 229 1158 242 q 1160 113 1174 176 q 1131 -3 1146 50 q 1100 -2 1131 -3 q 1028 -1 1069 -1 q 953 0 986 0 l 656 0 q 624 -1 656 0 q 551 -1 593 -1 q 475 -3 510 -1 q 469 21 469 4 q 475 43 469 38 q 550 53 524 46 q 586 86 576 60 q 596 169 596 113 m 376 424 l 596 424 l 596 799 q 589 831 596 828 l 376 424 z "},"":{"ha":897,"x_min":51,"x_max":849,"o":"m 510 -133 q 477 -135 490 -133 q 447 -142 464 -136 l 439 -133 l 489 -14 q 244 49 342 -12 q 99 210 147 110 q 51 431 51 311 q 90 635 51 539 q 199 796 129 732 q 334 883 260 853 q 497 914 408 914 q 638 900 583 914 q 729 871 692 886 q 801 851 767 856 q 819 742 813 794 q 832 636 826 690 q 810 628 821 631 q 786 629 799 625 q 733 742 768 689 q 638 829 699 796 q 482 863 578 863 q 370 833 428 863 q 260 739 313 803 q 200 619 222 692 q 178 457 178 547 q 201 307 178 381 q 266 174 224 233 q 367 78 308 114 q 494 43 425 43 q 667 78 592 43 q 817 194 743 114 q 849 174 838 194 q 706 44 785 90 q 538 -11 626 -3 l 507 -93 q 543 -89 524 -89 q 613 -112 585 -89 q 642 -175 642 -135 q 599 -249 642 -219 q 493 -278 557 -278 q 438 -272 460 -278 q 390 -254 417 -265 q 404 -218 390 -232 q 448 -233 432 -228 q 485 -237 464 -237 q 536 -223 517 -237 q 556 -182 556 -208 q 544 -147 556 -160 q 510 -133 533 -133 z "},"":{"ha":774,"x_min":19,"x_max":733,"o":"m 390 501 q 476 509 450 501 q 508 538 501 517 q 517 596 515 558 q 540 603 524 603 q 563 596 557 603 q 560 538 561 571 q 560 476 560 506 q 560 411 560 440 q 563 354 561 382 q 540 349 557 349 q 517 354 524 349 q 508 407 515 386 q 476 438 501 428 q 390 449 450 449 l 264 449 l 264 142 q 281 74 264 93 q 342 54 299 54 l 503 54 q 623 108 582 54 q 685 236 664 161 q 733 229 711 243 q 711 113 725 176 q 682 -3 697 50 q 651 -2 682 -3 q 579 -1 621 -1 q 504 0 538 0 l 206 0 q 117 -1 171 0 q 25 -3 64 -1 q 19 21 19 4 q 25 43 19 38 q 100 53 74 46 q 136 86 126 60 q 146 169 146 113 l 146 726 q 136 810 146 785 q 100 844 126 836 q 25 853 74 851 q 19 876 19 860 q 25 899 19 893 q 119 897 67 897 q 204 896 172 896 l 558 896 q 596 897 583 896 q 626 901 608 899 q 632 897 632 901 q 637 869 633 893 q 645 814 640 846 q 655 749 650 782 q 663 696 660 717 q 617 689 640 685 q 585 771 601 738 q 541 822 569 804 q 460 840 513 840 l 356 840 q 282 819 300 840 q 264 751 264 797 l 264 501 l 390 501 m 340 1135 l 508 1018 q 529 989 529 1003 q 523 974 529 981 q 508 968 517 968 q 485 972 500 968 q 449 985 471 975 l 235 1072 q 279 1106 254 1090 q 340 1135 304 1122 z "},"":{"ha":774,"x_min":19,"x_max":733,"o":"m 390 501 q 476 509 450 501 q 508 538 501 517 q 517 596 515 558 q 540 603 524 603 q 563 596 557 603 q 560 538 561 571 q 560 476 560 506 q 560 411 560 440 q 563 354 561 382 q 540 349 557 349 q 517 354 524 349 q 508 407 515 386 q 476 438 501 428 q 390 449 450 449 l 264 449 l 264 142 q 281 74 264 93 q 342 54 299 54 l 503 54 q 623 108 582 54 q 685 236 664 161 q 733 229 711 243 q 711 113 725 176 q 682 -3 697 50 q 651 -2 682 -3 q 579 -1 621 -1 q 504 0 538 0 l 206 0 q 117 -1 171 0 q 25 -3 64 -1 q 19 21 19 4 q 25 43 19 38 q 100 53 74 46 q 136 86 126 60 q 146 169 146 113 l 146 726 q 136 810 146 785 q 100 844 126 836 q 25 853 74 851 q 19 876 19 860 q 25 899 19 893 q 119 897 67 897 q 204 896 172 896 l 558 896 q 596 897 583 896 q 626 901 608 899 q 632 897 632 901 q 637 869 633 893 q 645 814 640 846 q 655 749 650 782 q 663 696 660 717 q 617 689 640 685 q 585 771 601 738 q 541 822 569 804 q 460 840 513 840 l 356 840 q 282 819 300 840 q 264 751 264 797 l 264 501 l 390 501 m 486 1139 q 572 1067 546 1111 l 372 986 q 337 973 350 976 q 314 969 324 969 q 293 990 293 969 q 297 1003 293 997 q 314 1019 300 1010 l 486 1139 z "},"":{"ha":774,"x_min":19,"x_max":733,"o":"m 390 501 q 476 509 450 501 q 508 538 501 517 q 517 596 515 558 q 540 603 524 603 q 563 596 557 603 q 560 538 561 571 q 560 476 560 506 q 560 411 560 440 q 563 354 561 382 q 540 349 557 349 q 517 354 524 349 q 508 407 515 386 q 476 438 501 428 q 390 449 450 449 l 264 449 l 264 142 q 281 74 264 93 q 342 54 299 54 l 503 54 q 623 108 582 54 q 685 236 664 161 q 733 229 711 243 q 711 113 725 176 q 682 -3 697 50 q 651 -2 682 -3 q 579 -1 621 -1 q 504 0 538 0 l 206 0 q 117 -1 171 0 q 25 -3 64 -1 q 19 21 19 4 q 25 43 19 38 q 100 53 74 46 q 136 86 126 60 q 146 169 146 113 l 146 726 q 136 810 146 785 q 100 844 126 836 q 25 853 74 851 q 19 876 19 860 q 25 899 19 893 q 119 897 67 897 q 204 896 172 896 l 558 896 q 596 897 583 896 q 626 901 608 899 q 632 897 632 901 q 637 869 633 893 q 645 814 640 846 q 655 749 650 782 q 663 696 660 717 q 617 689 640 685 q 585 771 601 738 q 541 822 569 804 q 460 840 513 840 l 356 840 q 282 819 300 840 q 264 751 264 797 l 264 501 l 390 501 m 438 1122 q 506 1050 469 1085 q 581 988 543 1015 q 573 970 578 978 q 558 958 568 963 q 482 997 518 978 q 411 1043 446 1017 q 338 996 372 1015 q 263 958 303 976 q 243 988 247 968 q 317 1052 282 1017 q 383 1122 351 1088 q 410 1131 399 1131 q 438 1122 421 1131 z "},"":{"ha":774,"x_min":19,"x_max":733,"o":"m 390 501 q 476 509 450 501 q 508 538 501 517 q 517 596 515 558 q 540 603 524 603 q 563 596 557 603 q 560 538 561 571 q 560 476 560 506 q 560 411 560 440 q 563 354 561 382 q 540 349 557 349 q 517 354 524 349 q 508 407 515 386 q 476 438 501 428 q 390 449 450 449 l 264 449 l 264 142 q 281 74 264 93 q 342 54 299 54 l 503 54 q 623 108 582 54 q 685 236 664 161 q 733 229 711 243 q 711 113 725 176 q 682 -3 697 50 q 651 -2 682 -3 q 579 -1 621 -1 q 504 0 538 0 l 206 0 q 117 -1 171 0 q 25 -3 64 -1 q 19 21 19 4 q 25 43 19 38 q 100 53 74 46 q 136 86 126 60 q 146 169 146 113 l 146 726 q 136 810 146 785 q 100 844 126 836 q 25 853 74 851 q 19 876 19 860 q 25 899 19 893 q 119 897 67 897 q 204 896 172 896 l 558 896 q 596 897 583 896 q 626 901 608 899 q 632 897 632 901 q 637 869 633 893 q 645 814 640 846 q 655 749 650 782 q 663 696 660 717 q 617 689 640 685 q 585 771 601 738 q 541 822 569 804 q 460 840 513 840 l 356 840 q 282 819 300 840 q 264 751 264 797 l 264 501 l 390 501 m 450 1051 q 470 1099 450 1079 q 517 1118 490 1118 q 564 1099 544 1118 q 583 1051 583 1079 q 564 1005 583 1025 q 517 985 544 985 q 470 1005 490 985 q 450 1051 450 1025 m 188 1051 q 208 1099 188 1079 q 254 1118 228 1118 q 301 1099 282 1118 q 321 1051 321 1079 q 301 1005 321 1025 q 254 985 282 985 q 208 1005 228 985 q 188 1051 188 1025 z "},"":{"ha":413,"x_min":21,"x_max":393,"o":"m 265 169 q 275 86 265 113 q 311 53 285 60 q 386 43 338 46 q 393 21 393 38 q 386 -3 393 4 q 292 -1 339 -1 q 207 0 244 0 q 122 -1 169 0 q 26 -3 74 -1 q 21 21 21 4 q 26 43 21 38 q 101 53 75 46 q 138 86 128 60 q 147 169 147 113 l 147 726 q 138 810 147 785 q 101 844 128 836 q 26 853 75 851 q 21 876 21 860 q 26 899 21 893 q 123 897 75 897 q 206 896 171 896 q 293 897 246 896 q 386 899 340 897 q 393 876 393 893 q 386 853 393 860 q 311 844 338 851 q 275 810 285 836 q 265 726 265 785 l 265 169 m 138 1135 l 306 1018 q 326 989 326 1003 q 320 974 326 981 q 306 968 314 968 q 283 972 297 968 q 246 985 268 975 l 32 1072 q 76 1106 51 1090 q 138 1135 101 1122 z "},"":{"ha":413,"x_min":21,"x_max":393,"o":"m 265 169 q 275 86 265 113 q 311 53 285 60 q 386 43 338 46 q 393 21 393 38 q 386 -3 393 4 q 292 -1 339 -1 q 207 0 244 0 q 122 -1 169 0 q 26 -3 74 -1 q 21 21 21 4 q 26 43 21 38 q 101 53 75 46 q 138 86 128 60 q 147 169 147 113 l 147 726 q 138 810 147 785 q 101 844 128 836 q 26 853 75 851 q 21 876 21 860 q 26 899 21 893 q 123 897 75 897 q 206 896 171 896 q 293 897 246 896 q 386 899 340 897 q 393 876 393 893 q 386 853 393 860 q 311 844 338 851 q 275 810 285 836 q 265 726 265 785 l 265 169 m 292 1138 q 378 1065 351 1110 l 178 985 q 142 972 156 975 q 119 968 129 968 q 99 989 99 968 q 102 1002 99 996 q 119 1018 106 1008 l 292 1138 z "},"":{"ha":413,"x_min":21,"x_max":393,"o":"m 265 169 q 275 86 265 113 q 311 53 285 60 q 386 43 338 46 q 393 21 393 38 q 386 -3 393 4 q 292 -1 339 -1 q 207 0 244 0 q 122 -1 169 0 q 26 -3 74 -1 q 21 21 21 4 q 26 43 21 38 q 101 53 75 46 q 138 86 128 60 q 147 169 147 113 l 147 726 q 138 810 147 785 q 101 844 128 836 q 26 853 75 851 q 21 876 21 860 q 26 899 21 893 q 123 897 75 897 q 206 896 171 896 q 293 897 246 896 q 386 899 340 897 q 393 876 393 893 q 386 853 393 860 q 311 844 338 851 q 275 810 285 836 q 265 726 265 785 l 265 169 m 229 1122 q 298 1050 261 1085 q 372 988 335 1015 q 365 970 369 978 q 350 958 360 963 q 274 997 310 978 q 203 1043 238 1017 q 129 996 164 1015 q 54 958 94 976 q 35 988 39 968 q 108 1052 74 1017 q 175 1122 143 1088 q 201 1131 190 1131 q 229 1122 213 1131 z "},"":{"ha":413,"x_min":8,"x_max":404,"o":"m 265 169 q 275 86 265 113 q 311 53 285 60 q 386 43 338 46 q 393 21 393 38 q 386 -3 393 4 q 292 -1 339 -1 q 207 0 244 0 q 122 -1 169 0 q 26 -3 74 -1 q 21 21 21 4 q 26 43 21 38 q 101 53 75 46 q 138 86 128 60 q 147 169 147 113 l 147 726 q 138 810 147 785 q 101 844 128 836 q 26 853 75 851 q 21 876 21 860 q 26 899 21 893 q 123 897 75 897 q 206 896 171 896 q 293 897 246 896 q 386 899 340 897 q 393 876 393 893 q 386 853 393 860 q 311 844 338 851 q 275 810 285 836 q 265 726 265 785 l 265 169 m 271 1051 q 291 1099 271 1079 q 338 1118 311 1118 q 385 1099 365 1118 q 404 1051 404 1079 q 385 1005 404 1025 q 338 985 365 985 q 291 1005 311 985 q 271 1051 271 1025 m 8 1051 q 28 1099 8 1079 q 75 1118 49 1118 q 122 1099 103 1118 q 142 1051 142 1079 q 122 1005 142 1025 q 75 985 103 985 q 28 1005 49 985 q 8 1051 8 1025 z "},"":{"ha":974,"x_min":11,"x_max":914,"o":"m 206 896 q 303 897 246 896 q 435 899 361 899 q 622 862 535 899 q 774 760 708 825 q 877 610 840 696 q 914 428 914 525 q 872 216 914 300 q 760 84 829 132 q 613 17 692 36 q 460 -3 533 -3 q 342 -2 389 -3 q 264 -1 294 -1 q 207 0 233 0 q 117 -1 168 0 q 26 -3 67 -1 q 21 21 21 4 q 26 43 21 38 q 101 53 75 46 q 138 86 128 60 q 147 169 147 113 l 147 399 l 26 399 q 15 406 18 399 q 11 418 11 413 q 19 441 11 429 q 38 453 28 453 l 147 453 l 147 726 q 138 810 147 785 q 101 844 128 836 q 26 853 75 851 q 21 876 21 860 q 26 899 21 893 q 118 897 68 897 q 206 896 168 896 m 265 117 q 275 78 265 94 q 317 53 285 63 q 417 44 349 44 q 556 60 490 44 q 672 114 621 75 q 751 221 722 153 q 781 394 781 289 q 760 556 781 475 q 694 703 740 636 q 571 811 647 771 q 382 851 494 851 q 298 835 331 851 q 265 783 265 819 l 265 453 l 400 453 q 413 447 410 453 q 417 435 417 440 q 408 411 417 424 q 388 399 400 399 l 265 399 l 265 117 z "},"":{"ha":971,"x_min":15,"x_max":968,"o":"m 772 711 q 763 803 772 775 q 726 840 753 831 q 651 853 700 849 q 646 876 646 860 q 651 899 646 893 q 740 897 697 897 q 806 896 783 896 q 874 897 831 896 q 961 899 918 897 q 968 876 968 893 q 961 853 968 860 q 886 839 913 849 q 850 801 860 829 q 840 711 840 774 l 840 29 q 808 -14 840 -14 q 753 19 778 -14 l 268 632 q 221 678 233 678 q 211 662 213 678 q 210 610 210 646 l 210 185 q 219 94 210 122 q 256 57 229 65 q 331 43 282 49 q 338 21 338 38 q 331 -3 338 4 q 244 -1 288 -1 q 176 0 200 0 q 108 -1 151 0 q 21 -3 65 -1 q 15 21 15 4 q 21 43 15 38 q 96 58 69 49 q 132 95 122 67 q 142 185 142 124 l 142 764 q 106 821 136 792 q 32 853 76 850 q 26 876 26 860 q 32 899 26 893 l 219 896 l 696 292 q 763 215 756 215 q 771 226 769 215 q 772 257 772 238 l 772 711 m 579 1035 q 617 1049 603 1035 q 644 1107 631 1064 q 682 1099 667 1108 q 640 999 669 1036 q 561 961 610 961 q 517 976 539 961 q 472 1006 494 992 q 435 1024 454 1017 q 397 1032 415 1032 q 358 1016 371 1032 q 333 965 344 1000 q 296 972 307 961 q 337 1071 311 1033 q 407 1108 363 1108 q 463 1092 439 1108 q 507 1061 486 1076 q 579 1035 542 1035 z "},"":{"ha":975,"x_min":51,"x_max":925,"o":"m 925 457 q 903 295 925 369 q 839 161 881 221 q 692 33 782 79 q 486 -14 601 -14 q 269 40 368 -14 q 111 194 171 94 q 51 431 51 294 q 102 675 51 565 q 248 849 153 785 q 478 914 343 914 q 704 860 603 914 q 865 703 806 806 q 925 457 925 601 m 460 864 q 328 822 392 864 q 225 690 265 781 q 185 454 185 600 q 232 228 185 321 q 354 85 279 135 q 514 36 429 36 q 656 83 593 36 q 756 218 719 129 q 792 431 792 307 q 747 667 792 571 q 626 814 701 764 q 460 864 551 864 m 422 1138 l 590 1021 q 611 992 611 1006 q 605 977 611 983 q 590 971 599 971 q 567 974 582 971 q 531 988 553 978 l 317 1075 q 361 1109 336 1093 q 422 1138 386 1125 z "},"":{"ha":975,"x_min":51,"x_max":925,"o":"m 925 457 q 903 295 925 369 q 839 161 881 221 q 692 33 782 79 q 486 -14 601 -14 q 269 40 368 -14 q 111 194 171 94 q 51 431 51 294 q 102 675 51 565 q 248 849 153 785 q 478 914 343 914 q 704 860 603 914 q 865 703 806 806 q 925 457 925 601 m 460 864 q 328 822 392 864 q 225 690 265 781 q 185 454 185 600 q 232 228 185 321 q 354 85 279 135 q 514 36 429 36 q 656 83 593 36 q 756 218 719 129 q 792 431 792 307 q 747 667 792 571 q 626 814 701 764 q 460 864 551 864 m 538 1139 q 624 1067 597 1111 l 424 986 q 388 973 401 976 q 365 969 375 969 q 344 990 344 969 q 348 1003 344 997 q 365 1019 351 1010 l 538 1139 z "},"":{"ha":975,"x_min":51,"x_max":925,"o":"m 925 457 q 903 295 925 369 q 839 161 881 221 q 692 33 782 79 q 486 -14 601 -14 q 269 40 368 -14 q 111 194 171 94 q 51 431 51 294 q 102 675 51 565 q 248 849 153 785 q 478 914 343 914 q 704 860 603 914 q 865 703 806 806 q 925 457 925 601 m 460 864 q 328 822 392 864 q 225 690 265 781 q 185 454 185 600 q 232 228 185 321 q 354 85 279 135 q 514 36 429 36 q 656 83 593 36 q 756 218 719 129 q 792 431 792 307 q 747 667 792 571 q 626 814 701 764 q 460 864 551 864 m 508 1122 q 577 1050 540 1085 q 651 988 614 1015 q 644 970 649 978 q 629 958 639 963 q 553 997 589 978 q 482 1043 517 1017 q 408 996 443 1015 q 333 958 374 976 q 314 988 318 968 q 388 1052 353 1017 q 454 1122 422 1088 q 481 1131 469 1131 q 508 1122 492 1131 z "},"":{"ha":975,"x_min":51,"x_max":925,"o":"m 925 457 q 903 295 925 369 q 839 161 881 221 q 692 33 782 79 q 486 -14 601 -14 q 269 40 368 -14 q 111 194 171 94 q 51 431 51 294 q 102 675 51 565 q 248 849 153 785 q 478 914 343 914 q 704 860 603 914 q 865 703 806 806 q 925 457 925 601 m 460 864 q 328 822 392 864 q 225 690 265 781 q 185 454 185 600 q 232 228 185 321 q 354 85 279 135 q 514 36 429 36 q 656 83 593 36 q 756 218 719 129 q 792 431 792 307 q 747 667 792 571 q 626 814 701 764 q 460 864 551 864 m 569 1035 q 607 1049 593 1035 q 635 1107 621 1064 q 672 1099 657 1108 q 630 999 660 1036 q 551 961 600 961 q 507 976 529 961 q 463 1006 485 992 q 425 1024 444 1017 q 388 1032 406 1032 q 348 1016 361 1032 q 324 965 335 1000 q 286 972 297 961 q 327 1071 301 1033 q 397 1108 353 1108 q 453 1092 429 1108 q 497 1061 476 1076 q 569 1035 532 1035 z "},"":{"ha":975,"x_min":51,"x_max":925,"o":"m 925 457 q 903 295 925 369 q 839 161 881 221 q 692 33 782 79 q 486 -14 601 -14 q 269 40 368 -14 q 111 194 171 94 q 51 431 51 294 q 102 675 51 565 q 248 849 153 785 q 478 914 343 914 q 704 860 603 914 q 865 703 806 806 q 925 457 925 601 m 460 864 q 328 822 392 864 q 225 690 265 781 q 185 454 185 600 q 232 228 185 321 q 354 85 279 135 q 514 36 429 36 q 656 83 593 36 q 756 218 719 129 q 792 431 792 307 q 747 667 792 571 q 626 814 701 764 q 460 864 551 864 m 546 1053 q 566 1100 546 1081 q 613 1119 586 1119 q 660 1100 640 1119 q 679 1053 679 1081 q 660 1006 679 1026 q 613 986 640 986 q 566 1006 586 986 q 546 1053 546 1026 m 283 1053 q 303 1100 283 1081 q 350 1119 324 1119 q 397 1100 378 1119 q 417 1053 417 1081 q 397 1006 417 1026 q 350 986 378 986 q 303 1006 324 986 q 283 1053 283 1026 z "},"":{"ha":764,"x_min":161,"x_max":599,"o":"m 428 350 l 599 181 l 550 132 l 381 301 l 211 132 l 161 181 l 332 350 l 161 521 l 211 569 l 381 399 l 550 569 l 599 521 l 428 350 z "},"":{"ha":975,"x_min":51,"x_max":925,"o":"m 150 -18 q 117 -3 131 -18 q 100 26 103 11 l 172 114 q 84 252 117 172 q 51 431 51 332 q 102 675 51 565 q 248 849 153 785 q 478 914 343 914 q 753 829 636 914 l 821 914 q 854 901 840 914 q 871 872 868 888 l 801 786 q 892 644 858 728 q 925 457 925 561 q 903 295 925 369 q 839 161 881 221 q 692 33 782 79 q 486 -14 601 -14 q 222 71 336 -14 l 150 -18 m 460 864 q 328 822 392 864 q 225 690 265 781 q 185 454 185 600 q 201 317 185 379 q 244 204 217 254 l 692 756 q 588 836 647 808 q 460 864 528 864 m 731 699 l 283 147 q 390 65 329 93 q 514 36 450 36 q 656 83 593 36 q 756 218 719 129 q 792 431 792 307 q 776 580 792 513 q 731 699 760 647 z "},"":{"ha":918,"x_min":8,"x_max":913,"o":"m 239 726 l 239 369 q 242 277 239 325 q 261 185 246 229 q 310 108 276 142 q 383 60 342 78 q 475 43 425 43 q 614 74 563 43 q 690 156 665 106 q 723 266 715 206 q 731 385 731 326 l 731 726 q 720 808 731 783 q 683 840 710 832 q 603 853 656 849 q 597 876 597 860 q 603 899 597 893 q 697 897 651 897 q 764 896 742 896 q 827 897 788 896 q 906 899 867 897 q 913 876 913 893 q 906 853 913 860 q 841 840 864 849 q 808 807 818 832 q 799 726 799 782 l 799 410 q 783 240 799 317 q 729 106 768 163 q 622 17 690 49 q 446 -14 553 -14 q 336 -1 393 -14 q 230 49 279 13 q 151 151 181 85 q 121 324 121 218 l 121 726 q 112 810 121 785 q 79 844 103 836 q 14 853 56 851 q 8 876 8 860 q 14 899 8 893 q 97 897 54 897 q 179 896 139 896 q 269 897 221 896 q 367 899 318 897 q 374 876 374 893 q 367 853 374 860 q 286 844 314 851 q 249 810 258 836 q 239 726 239 785 m 383 1136 l 551 1019 q 572 990 572 1004 q 566 976 572 982 q 551 969 560 969 q 528 973 543 969 q 492 986 514 976 l 278 1074 q 322 1108 297 1092 q 383 1136 347 1124 z "},"":{"ha":918,"x_min":8,"x_max":913,"o":"m 239 726 l 239 369 q 242 277 239 325 q 261 185 246 229 q 310 108 276 142 q 383 60 342 78 q 475 43 425 43 q 614 74 563 43 q 690 156 665 106 q 723 266 715 206 q 731 385 731 326 l 731 726 q 720 808 731 783 q 683 840 710 832 q 603 853 656 849 q 597 876 597 860 q 603 899 597 893 q 697 897 651 897 q 764 896 742 896 q 827 897 788 896 q 906 899 867 897 q 913 876 913 893 q 906 853 913 860 q 841 840 864 849 q 808 807 818 832 q 799 726 799 782 l 799 410 q 783 240 799 317 q 729 106 768 163 q 622 17 690 49 q 446 -14 553 -14 q 336 -1 393 -14 q 230 49 279 13 q 151 151 181 85 q 121 324 121 218 l 121 726 q 112 810 121 785 q 79 844 103 836 q 14 853 56 851 q 8 876 8 860 q 14 899 8 893 q 97 897 54 897 q 179 896 139 896 q 269 897 221 896 q 367 899 318 897 q 374 876 374 893 q 367 853 374 860 q 286 844 314 851 q 249 810 258 836 q 239 726 239 785 m 563 1138 q 649 1065 622 1110 l 449 985 q 413 972 426 975 q 390 968 400 968 q 369 989 369 968 q 373 1002 369 996 q 390 1018 376 1008 l 563 1138 z "},"":{"ha":918,"x_min":8,"x_max":913,"o":"m 239 726 l 239 369 q 242 277 239 325 q 261 185 246 229 q 310 108 276 142 q 383 60 342 78 q 475 43 425 43 q 614 74 563 43 q 690 156 665 106 q 723 266 715 206 q 731 385 731 326 l 731 726 q 720 808 731 783 q 683 840 710 832 q 603 853 656 849 q 597 876 597 860 q 603 899 597 893 q 697 897 651 897 q 764 896 742 896 q 827 897 788 896 q 906 899 867 897 q 913 876 913 893 q 906 853 913 860 q 841 840 864 849 q 808 807 818 832 q 799 726 799 782 l 799 410 q 783 240 799 317 q 729 106 768 163 q 622 17 690 49 q 446 -14 553 -14 q 336 -1 393 -14 q 230 49 279 13 q 151 151 181 85 q 121 324 121 218 l 121 726 q 112 810 121 785 q 79 844 103 836 q 14 853 56 851 q 8 876 8 860 q 14 899 8 893 q 97 897 54 897 q 179 896 139 896 q 269 897 221 896 q 367 899 318 897 q 374 876 374 893 q 367 853 374 860 q 286 844 314 851 q 249 810 258 836 q 239 726 239 785 m 511 1122 q 580 1050 543 1085 q 654 988 617 1015 q 647 970 651 978 q 632 958 642 963 q 556 997 592 978 q 485 1043 519 1017 q 411 996 446 1015 q 336 958 376 976 q 317 988 321 968 q 390 1052 356 1017 q 457 1122 425 1088 q 483 1131 472 1131 q 511 1122 494 1131 z "},"":{"ha":918,"x_min":8,"x_max":913,"o":"m 239 726 l 239 369 q 242 277 239 325 q 261 185 246 229 q 310 108 276 142 q 383 60 342 78 q 475 43 425 43 q 614 74 563 43 q 690 156 665 106 q 723 266 715 206 q 731 385 731 326 l 731 726 q 720 808 731 783 q 683 840 710 832 q 603 853 656 849 q 597 876 597 860 q 603 899 597 893 q 697 897 651 897 q 764 896 742 896 q 827 897 788 896 q 906 899 867 897 q 913 876 913 893 q 906 853 913 860 q 841 840 864 849 q 808 807 818 832 q 799 726 799 782 l 799 410 q 783 240 799 317 q 729 106 768 163 q 622 17 690 49 q 446 -14 553 -14 q 336 -1 393 -14 q 230 49 279 13 q 151 151 181 85 q 121 324 121 218 l 121 726 q 112 810 121 785 q 79 844 103 836 q 14 853 56 851 q 8 876 8 860 q 14 899 8 893 q 97 897 54 897 q 179 896 139 896 q 269 897 221 896 q 367 899 318 897 q 374 876 374 893 q 367 853 374 860 q 286 844 314 851 q 249 810 258 836 q 239 726 239 785 m 544 1053 q 565 1100 544 1081 q 611 1119 585 1119 q 658 1100 639 1119 q 678 1053 678 1081 q 658 1006 678 1026 q 611 986 639 986 q 565 1006 585 986 q 544 1053 544 1026 m 282 1053 q 302 1100 282 1081 q 349 1119 322 1119 q 396 1100 376 1119 q 415 1053 415 1081 q 396 1006 415 1026 q 349 986 376 986 q 302 1006 322 986 q 282 1053 282 1026 z "},"":{"ha":799,"x_min":1,"x_max":797,"o":"m 468 169 q 478 86 468 113 q 518 53 489 60 q 603 43 547 46 q 610 21 610 38 q 603 -3 610 4 q 501 -1 551 -1 q 410 0 450 0 q 318 -1 369 0 q 215 -3 267 -1 q 210 21 210 4 q 215 43 210 38 q 300 53 271 46 q 340 86 329 60 q 350 169 350 113 l 350 346 q 344 403 350 385 q 321 453 339 422 l 139 760 q 96 819 114 800 q 58 844 78 838 q 8 853 38 851 q 2 876 3 860 q 7 899 1 893 q 74 897 39 897 q 149 896 108 896 q 230 897 190 896 q 307 899 269 897 q 314 876 314 893 q 307 853 314 860 q 240 835 249 850 q 257 776 232 821 l 418 492 q 434 474 428 475 q 449 489 440 474 l 603 779 q 610 835 625 821 q 549 853 594 850 q 543 876 543 860 q 549 899 543 893 q 617 897 582 897 q 675 896 651 896 q 730 897 699 896 q 790 899 761 897 q 797 876 797 893 q 790 853 797 860 q 715 833 743 849 q 658 764 688 817 l 493 464 q 472 411 475 433 q 468 358 468 389 l 468 169 m 500 1139 q 586 1067 560 1111 l 386 986 q 351 973 364 976 q 328 969 338 969 q 307 990 307 969 q 310 1003 307 997 q 328 1019 314 1010 l 500 1139 z "},"":{"ha":732,"x_min":10,"x_max":685,"o":"m 254 169 q 264 86 254 113 q 300 53 274 60 q 375 43 326 46 q 382 21 382 38 q 375 -3 382 4 q 286 -1 324 -1 q 196 0 249 0 q 105 -1 143 0 q 15 -3 67 -1 q 10 21 10 4 q 15 43 10 38 q 90 53 64 46 q 126 86 117 60 q 136 169 136 113 l 136 726 q 126 810 136 785 q 90 844 117 836 q 15 853 64 851 q 10 876 10 860 q 15 899 10 893 q 106 897 68 897 q 194 896 143 896 q 285 897 247 896 q 375 899 324 897 q 382 876 382 893 q 375 853 382 860 q 300 844 326 851 q 264 810 274 836 q 254 726 254 785 l 254 721 q 326 725 292 724 q 379 726 360 726 q 535 701 475 726 q 628 638 596 676 q 673 557 661 600 q 685 476 685 514 q 669 391 685 438 q 615 303 653 344 q 515 235 578 261 q 360 208 453 208 q 297 212 324 208 q 254 221 269 215 l 254 169 m 254 665 l 254 261 q 353 254 275 254 q 449 272 403 254 q 526 339 496 290 q 556 476 556 388 q 528 604 556 560 q 460 665 501 649 q 378 681 419 681 q 341 678 365 681 q 293 673 317 676 q 254 665 269 669 z "},"":{"ha":751,"x_min":26,"x_max":694,"o":"m 128 169 l 128 536 q 111 553 128 553 l 40 553 q 41 579 35 560 q 61 599 47 599 q 113 609 99 599 q 128 663 128 619 q 156 808 128 749 q 228 902 185 867 q 321 953 272 938 q 411 969 369 969 q 530 945 483 969 q 599 885 576 921 q 622 815 622 849 q 598 721 622 763 q 533 644 574 679 q 444 571 493 608 l 444 568 q 558 487 500 532 q 655 381 615 442 q 694 240 694 321 q 667 110 694 168 q 590 19 639 53 q 478 -14 542 -14 q 388 7 419 -14 q 345 58 357 28 q 333 119 333 89 q 347 152 333 136 q 376 168 360 168 q 415 126 415 168 q 410 97 415 108 q 404 74 404 86 q 429 38 404 43 q 478 32 454 32 q 543 77 510 32 q 576 217 576 122 q 547 341 576 282 q 469 453 518 400 q 361 550 419 506 l 361 568 q 469 672 431 622 q 507 797 507 721 q 481 889 507 854 q 399 924 454 924 q 313 897 344 924 q 264 825 281 869 q 242 726 247 781 q 238 614 238 671 l 238 169 q 244 87 238 113 q 265 54 250 61 q 304 43 279 47 q 311 21 311 38 q 304 -3 311 4 q 250 -1 281 -1 q 183 0 219 0 q 103 -1 142 0 q 32 -3 64 -1 q 26 21 26 4 q 32 43 26 38 q 92 53 72 46 q 120 86 113 60 q 128 169 128 113 z "},"":{"ha":635,"x_min":50,"x_max":632,"o":"m 407 67 l 404 67 l 376 44 q 296 -2 331 10 q 225 -14 261 -14 q 101 19 153 -14 q 50 136 50 51 q 115 260 50 207 q 279 338 179 313 l 399 367 q 407 383 407 369 q 389 501 407 463 q 344 551 371 539 q 294 564 318 564 q 219 551 256 564 q 183 506 183 538 q 184 488 183 494 q 186 478 185 481 q 190 453 190 469 q 173 422 190 439 q 125 406 156 406 q 76 456 76 406 q 110 531 76 496 q 196 588 143 565 q 306 610 249 610 q 405 592 357 610 q 484 524 453 575 q 515 375 515 474 l 515 171 q 521 88 515 124 q 557 53 526 53 q 585 60 571 53 q 608 75 600 68 q 632 38 628 64 q 575 1 610 17 q 500 -14 540 -14 q 431 10 447 -14 q 407 67 414 35 m 407 324 l 297 294 q 193 232 221 275 q 165 142 165 189 q 190 76 165 110 q 265 43 214 43 q 328 63 294 43 q 388 104 361 82 q 401 119 396 111 q 407 140 407 126 l 407 324 m 272 932 l 369 757 q 376 739 375 747 q 378 724 378 731 q 372 713 378 718 q 357 708 365 708 q 317 736 346 708 l 158 888 l 161 903 q 193 922 169 910 q 251 935 217 935 q 272 932 261 935 z "},"":{"ha":635,"x_min":50,"x_max":632,"o":"m 407 67 l 404 67 l 376 44 q 296 -2 331 10 q 225 -14 261 -14 q 101 19 153 -14 q 50 136 50 51 q 115 260 50 207 q 279 338 179 313 l 399 367 q 407 383 407 369 q 389 501 407 463 q 344 551 371 539 q 294 564 318 564 q 219 551 256 564 q 183 506 183 538 q 184 488 183 494 q 186 478 185 481 q 190 453 190 469 q 173 422 190 439 q 125 406 156 406 q 76 456 76 406 q 110 531 76 496 q 196 588 143 565 q 306 610 249 610 q 405 592 357 610 q 484 524 453 575 q 515 375 515 474 l 515 171 q 521 88 515 124 q 557 53 526 53 q 585 60 571 53 q 608 75 600 68 q 632 38 628 64 q 575 1 610 17 q 500 -14 540 -14 q 431 10 447 -14 q 407 67 414 35 m 407 324 l 297 294 q 193 232 221 275 q 165 142 165 189 q 190 76 165 110 q 265 43 214 43 q 328 63 294 43 q 388 104 361 82 q 401 119 396 111 q 407 140 407 126 l 407 324 m 339 932 q 358 935 347 935 q 388 931 365 935 q 435 903 411 926 l 439 888 l 279 736 q 254 715 264 721 q 238 710 244 710 q 224 715 231 710 q 218 728 218 721 q 222 746 218 739 q 233 767 225 753 l 339 932 z "},"":{"ha":635,"x_min":50,"x_max":632,"o":"m 407 67 l 404 67 l 376 44 q 296 -2 331 10 q 225 -14 261 -14 q 101 19 153 -14 q 50 136 50 51 q 115 260 50 207 q 279 338 179 313 l 399 367 q 407 383 407 369 q 389 501 407 463 q 344 551 371 539 q 294 564 318 564 q 219 551 256 564 q 183 506 183 538 q 184 488 183 494 q 186 478 185 481 q 190 453 190 469 q 173 422 190 439 q 125 406 156 406 q 76 456 76 406 q 110 531 76 496 q 196 588 143 565 q 306 610 249 610 q 405 592 357 610 q 484 524 453 575 q 515 375 515 474 l 515 171 q 521 88 515 124 q 557 53 526 53 q 585 60 571 53 q 608 75 600 68 q 632 38 628 64 q 575 1 610 17 q 500 -14 540 -14 q 431 10 447 -14 q 407 67 414 35 m 407 324 l 297 294 q 193 232 221 275 q 165 142 165 189 q 190 76 165 110 q 265 43 214 43 q 328 63 294 43 q 388 104 361 82 q 401 119 396 111 q 407 140 407 126 l 407 324 m 321 917 q 393 816 351 868 q 472 722 435 764 q 458 708 467 715 q 440 699 450 700 q 297 814 360 750 q 228 751 264 781 q 153 699 193 722 q 122 722 135 703 q 203 817 160 764 q 276 917 246 869 q 299 919 288 919 q 321 917 310 919 z "},"":{"ha":635,"x_min":50,"x_max":632,"o":"m 407 67 l 404 67 l 376 44 q 296 -2 331 10 q 225 -14 261 -14 q 101 19 153 -14 q 50 136 50 51 q 115 260 50 207 q 279 338 179 313 l 399 367 q 407 383 407 369 q 389 501 407 463 q 344 551 371 539 q 294 564 318 564 q 219 551 256 564 q 183 506 183 538 q 184 488 183 494 q 186 478 185 481 q 190 453 190 469 q 173 422 190 439 q 125 406 156 406 q 76 456 76 406 q 110 531 76 496 q 196 588 143 565 q 306 610 249 610 q 405 592 357 610 q 484 524 453 575 q 515 375 515 474 l 515 171 q 521 88 515 124 q 557 53 526 53 q 585 60 571 53 q 608 75 600 68 q 632 38 628 64 q 575 1 610 17 q 500 -14 540 -14 q 431 10 447 -14 q 407 67 414 35 m 407 324 l 297 294 q 193 232 221 275 q 165 142 165 189 q 190 76 165 110 q 265 43 214 43 q 328 63 294 43 q 388 104 361 82 q 401 119 396 111 q 407 140 407 126 l 407 324 m 393 796 q 431 810 417 796 q 458 868 444 825 q 496 860 481 869 q 453 760 483 797 q 375 722 424 722 q 331 738 353 722 q 286 767 308 753 q 249 785 268 778 q 211 793 229 793 q 172 777 185 793 q 147 726 158 761 q 110 733 121 722 q 151 832 125 794 q 221 869 176 869 q 276 853 253 869 q 321 822 300 838 q 393 796 356 796 z "},"":{"ha":635,"x_min":50,"x_max":632,"o":"m 407 67 l 404 67 l 376 44 q 296 -2 331 10 q 225 -14 261 -14 q 101 19 153 -14 q 50 136 50 51 q 115 260 50 207 q 279 338 179 313 l 399 367 q 407 383 407 369 q 389 501 407 463 q 344 551 371 539 q 294 564 318 564 q 219 551 256 564 q 183 506 183 538 q 184 488 183 494 q 186 478 185 481 q 190 453 190 469 q 173 422 190 439 q 125 406 156 406 q 76 456 76 406 q 110 531 76 496 q 196 588 143 565 q 306 610 249 610 q 405 592 357 610 q 484 524 453 575 q 515 375 515 474 l 515 171 q 521 88 515 124 q 557 53 526 53 q 585 60 571 53 q 608 75 600 68 q 632 38 628 64 q 575 1 610 17 q 500 -14 540 -14 q 431 10 447 -14 q 407 67 414 35 m 407 324 l 297 294 q 193 232 221 275 q 165 142 165 189 q 190 76 165 110 q 265 43 214 43 q 328 63 294 43 q 388 104 361 82 q 401 119 396 111 q 407 140 407 126 l 407 324 m 115 799 q 135 846 115 826 q 181 865 154 865 q 227 846 208 865 q 246 799 246 826 q 227 753 246 772 q 181 733 208 733 q 135 753 154 733 q 115 799 115 772 m 350 799 q 369 846 350 826 q 415 865 389 865 q 462 846 443 865 q 481 799 481 826 q 462 753 481 772 q 415 733 443 733 q 369 753 389 733 q 350 799 350 772 z "},"":{"ha":635,"x_min":50,"x_max":632,"o":"m 407 67 l 404 67 l 376 44 q 296 -2 331 10 q 225 -14 261 -14 q 101 19 153 -14 q 50 136 50 51 q 115 260 50 207 q 279 338 179 313 l 399 367 q 407 383 407 369 q 389 501 407 463 q 344 551 371 539 q 294 564 318 564 q 219 551 256 564 q 183 506 183 538 q 184 488 183 494 q 186 478 185 481 q 190 453 190 469 q 173 422 190 439 q 125 406 156 406 q 76 456 76 406 q 110 531 76 496 q 196 588 143 565 q 306 610 249 610 q 405 592 357 610 q 484 524 453 575 q 515 375 515 474 l 515 171 q 521 88 515 124 q 557 53 526 53 q 585 60 571 53 q 608 75 600 68 q 632 38 628 64 q 575 1 610 17 q 500 -14 540 -14 q 431 10 447 -14 q 407 67 414 35 m 407 324 l 297 294 q 193 232 221 275 q 165 142 165 189 q 190 76 165 110 q 265 43 214 43 q 328 63 294 43 q 388 104 361 82 q 401 119 396 111 q 407 140 407 126 l 407 324 m 169 808 q 207 892 169 857 q 292 926 244 926 q 377 892 340 926 q 414 808 414 857 q 378 726 414 761 q 292 690 342 690 q 207 726 244 690 q 169 808 169 761 m 292 882 q 242 861 260 882 q 225 808 225 840 q 242 757 225 779 q 292 735 260 735 q 341 757 324 735 q 358 808 358 779 q 341 861 358 840 q 292 882 324 882 z "},"":{"ha":954,"x_min":54,"x_max":900,"o":"m 368 533 q 326 556 353 549 q 278 564 300 564 q 204 549 238 564 q 171 504 171 535 q 175 476 171 483 q 179 451 179 468 q 165 420 179 435 q 125 406 151 406 q 81 426 93 406 q 69 468 69 447 q 101 540 69 508 q 184 591 133 572 q 292 610 235 610 q 344 605 308 610 q 419 580 381 600 q 483 513 458 560 q 569 585 518 560 q 681 610 621 610 q 808 585 760 610 q 878 527 856 560 q 900 471 900 494 q 885 398 900 429 q 828 346 869 367 q 712 315 788 325 q 515 303 636 304 q 540 183 515 240 q 608 90 565 126 q 701 54 650 54 q 797 78 758 54 q 867 138 836 101 q 884 128 876 136 q 894 115 892 121 q 808 23 864 60 q 682 -14 751 -14 q 578 3 619 -14 q 512 43 536 21 q 472 82 488 65 q 458 88 464 92 q 439 72 451 85 q 342 5 392 24 q 253 -14 292 -14 q 180 -8 215 -14 q 122 11 144 -1 q 70 65 86 32 q 54 142 54 99 q 79 223 54 183 q 142 285 104 263 q 255 326 186 311 q 414 347 324 340 q 402 469 413 429 q 368 533 392 508 m 517 351 q 684 364 624 353 q 769 400 744 375 q 794 467 794 425 q 762 532 794 500 q 679 564 729 564 q 567 502 608 564 q 517 351 525 440 m 414 299 q 290 276 342 293 q 206 236 238 260 q 154 149 154 199 q 183 74 154 104 q 269 44 211 44 q 320 61 292 44 q 373 103 349 78 q 407 157 397 129 q 413 212 411 176 q 414 299 414 247 z "},"":{"ha":594,"x_min":51,"x_max":553,"o":"m 317 -133 q 284 -135 297 -133 q 254 -142 271 -136 l 246 -133 l 296 -12 q 115 80 179 -3 q 51 289 51 163 q 94 460 51 388 q 202 571 136 532 q 336 610 268 610 q 492 572 436 610 q 549 478 549 535 q 526 431 549 446 q 481 417 503 417 q 444 428 458 417 q 428 467 431 439 q 417 514 425 492 q 390 550 410 536 q 329 564 371 564 q 216 499 261 564 q 171 319 171 435 q 197 179 171 239 q 265 87 222 119 q 357 54 307 54 q 445 77 401 54 q 524 146 489 100 q 553 126 546 143 q 453 18 504 47 q 343 -14 401 -11 l 314 -93 q 350 -89 331 -89 q 420 -112 392 -89 q 449 -175 449 -135 q 406 -249 449 -219 q 300 -278 364 -278 q 245 -272 267 -278 q 197 -254 224 -265 q 211 -218 197 -232 q 255 -233 239 -228 q 292 -237 271 -237 q 343 -223 324 -237 q 363 -182 363 -208 q 351 -147 363 -160 q 317 -133 340 -133 z "},"":{"ha":621,"x_min":51,"x_max":565,"o":"m 536 129 q 565 107 560 128 q 466 19 524 53 q 329 -14 408 -14 q 203 10 254 -14 q 117 75 153 33 q 67 169 82 115 q 51 281 51 222 q 77 421 51 360 q 144 523 103 482 q 235 585 186 564 q 329 607 283 607 q 476 571 426 607 q 545 479 526 535 q 564 365 564 424 q 538 342 564 342 l 168 344 q 180 237 168 285 q 213 154 192 189 q 285 78 244 101 q 364 54 326 54 q 461 72 425 54 q 536 129 497 90 m 172 392 l 424 396 q 444 415 444 396 q 426 506 444 474 q 382 549 408 538 q 329 561 356 561 q 294 556 317 561 q 248 535 272 551 q 203 485 224 519 q 172 392 182 450 m 292 932 l 389 757 q 396 739 394 747 q 397 724 397 731 q 391 713 397 718 q 376 708 385 708 q 336 736 365 708 l 178 888 l 181 903 q 213 922 189 910 q 271 935 236 935 q 292 932 281 935 z "},"":{"ha":621,"x_min":51,"x_max":565,"o":"m 536 129 q 565 107 560 128 q 466 19 524 53 q 329 -14 408 -14 q 203 10 254 -14 q 117 75 153 33 q 67 169 82 115 q 51 281 51 222 q 77 421 51 360 q 144 523 103 482 q 235 585 186 564 q 329 607 283 607 q 476 571 426 607 q 545 479 526 535 q 564 365 564 424 q 538 342 564 342 l 168 344 q 180 237 168 285 q 213 154 192 189 q 285 78 244 101 q 364 54 326 54 q 461 72 425 54 q 536 129 497 90 m 172 392 l 424 396 q 444 415 444 396 q 426 506 444 474 q 382 549 408 538 q 329 561 356 561 q 294 556 317 561 q 248 535 272 551 q 203 485 224 519 q 172 392 182 450 m 375 932 q 394 935 383 935 q 424 931 401 935 q 471 903 447 926 l 475 888 l 315 736 q 290 715 300 721 q 274 710 281 710 q 260 715 267 710 q 254 728 254 721 q 258 746 254 739 q 269 767 261 753 l 375 932 z "},"":{"ha":621,"x_min":51,"x_max":565,"o":"m 536 129 q 565 107 560 128 q 466 19 524 53 q 329 -14 408 -14 q 203 10 254 -14 q 117 75 153 33 q 67 169 82 115 q 51 281 51 222 q 77 421 51 360 q 144 523 103 482 q 235 585 186 564 q 329 607 283 607 q 476 571 426 607 q 545 479 526 535 q 564 365 564 424 q 538 342 564 342 l 168 344 q 180 237 168 285 q 213 154 192 189 q 285 78 244 101 q 364 54 326 54 q 461 72 425 54 q 536 129 497 90 m 172 392 l 424 396 q 444 415 444 396 q 426 506 444 474 q 382 549 408 538 q 329 561 356 561 q 294 556 317 561 q 248 535 272 551 q 203 485 224 519 q 172 392 182 450 m 346 917 q 418 816 376 868 q 497 722 460 764 q 483 708 492 715 q 465 699 475 700 q 322 814 385 750 q 253 751 289 781 q 178 699 218 722 q 147 722 160 703 q 228 817 185 764 q 301 917 271 869 q 324 919 313 919 q 346 917 335 919 z "},"":{"ha":621,"x_min":51,"x_max":565,"o":"m 536 129 q 565 107 560 128 q 466 19 524 53 q 329 -14 408 -14 q 203 10 254 -14 q 117 75 153 33 q 67 169 82 115 q 51 281 51 222 q 77 421 51 360 q 144 523 103 482 q 235 585 186 564 q 329 607 283 607 q 476 571 426 607 q 545 479 526 535 q 564 365 564 424 q 538 342 564 342 l 168 344 q 180 237 168 285 q 213 154 192 189 q 285 78 244 101 q 364 54 326 54 q 461 72 425 54 q 536 129 497 90 m 172 392 l 424 396 q 444 415 444 396 q 426 506 444 474 q 382 549 408 538 q 329 561 356 561 q 294 556 317 561 q 248 535 272 551 q 203 485 224 519 q 172 392 182 450 m 138 799 q 157 846 138 826 q 203 865 176 865 q 249 846 231 865 q 268 799 268 826 q 249 753 268 772 q 203 733 231 733 q 157 753 176 733 q 138 799 138 772 m 372 799 q 392 846 372 826 q 438 865 411 865 q 484 846 465 865 q 503 799 503 826 q 484 753 503 772 q 438 733 465 733 q 392 753 411 733 q 372 799 372 772 z "},"":{"ha":376,"x_min":24,"x_max":358,"o":"m 251 169 q 259 87 251 113 q 288 53 267 61 q 351 43 310 46 q 358 21 358 38 q 351 -3 358 4 q 278 -1 317 -1 q 197 0 239 0 q 116 -1 156 0 q 42 -3 76 -1 q 36 21 36 4 q 42 43 36 38 q 106 54 85 47 q 134 87 126 61 q 142 169 142 113 l 142 440 q 135 499 142 481 q 108 524 128 518 q 51 535 89 531 q 49 555 50 542 q 49 574 47 568 q 165 593 121 583 q 239 614 210 603 q 257 604 257 614 q 256 579 257 604 q 253 517 254 554 q 251 446 251 481 l 251 169 m 138 932 l 235 757 q 242 739 240 747 q 243 724 243 731 q 237 713 243 718 q 222 708 231 708 q 182 736 211 708 l 24 888 l 26 903 q 58 922 35 910 q 117 935 82 935 q 138 932 126 935 z "},"":{"ha":376,"x_min":36,"x_max":358,"o":"m 251 169 q 259 87 251 113 q 288 53 267 61 q 351 43 310 46 q 358 21 358 38 q 351 -3 358 4 q 278 -1 317 -1 q 197 0 239 0 q 116 -1 156 0 q 42 -3 76 -1 q 36 21 36 4 q 42 43 36 38 q 106 54 85 47 q 134 87 126 61 q 142 169 142 113 l 142 440 q 135 499 142 481 q 108 524 128 518 q 51 535 89 531 q 49 555 50 542 q 49 574 47 568 q 165 593 121 583 q 239 614 210 603 q 257 604 257 614 q 256 579 257 604 q 253 517 254 554 q 251 446 251 481 l 251 169 m 226 932 q 246 935 235 935 q 276 931 253 935 q 322 903 299 926 l 326 888 l 167 736 q 142 715 151 721 q 125 710 132 710 q 112 715 118 710 q 106 728 106 721 q 109 746 106 739 q 121 767 113 753 l 226 932 z "},"":{"ha":376,"x_min":-3,"x_max":358,"o":"m 251 169 q 259 87 251 113 q 288 53 267 61 q 351 43 310 46 q 358 21 358 38 q 351 -3 358 4 q 278 -1 317 -1 q 197 0 239 0 q 116 -1 156 0 q 42 -3 76 -1 q 36 21 36 4 q 42 43 36 38 q 106 54 85 47 q 134 87 126 61 q 142 169 142 113 l 142 440 q 135 499 142 481 q 108 524 128 518 q 51 535 89 531 q 49 555 50 542 q 49 574 47 568 q 165 593 121 583 q 239 614 210 603 q 257 604 257 614 q 256 579 257 604 q 253 517 254 554 q 251 446 251 481 l 251 169 m 196 917 q 268 816 226 868 q 347 722 310 764 q 333 708 342 715 q 315 699 325 700 q 172 814 235 750 q 103 751 139 781 q 28 699 68 722 q -3 722 10 703 q 78 817 35 764 q 151 917 121 869 q 174 919 163 919 q 196 917 185 919 z "},"":{"ha":376,"x_min":-6,"x_max":360,"o":"m 251 169 q 259 87 251 113 q 288 53 267 61 q 351 43 310 46 q 358 21 358 38 q 351 -3 358 4 q 278 -1 317 -1 q 197 0 239 0 q 116 -1 156 0 q 42 -3 76 -1 q 36 21 36 4 q 42 43 36 38 q 106 54 85 47 q 134 87 126 61 q 142 169 142 113 l 142 440 q 135 499 142 481 q 108 524 128 518 q 51 535 89 531 q 49 555 50 542 q 49 574 47 568 q 165 593 121 583 q 239 614 210 603 q 257 604 257 614 q 256 579 257 604 q 253 517 254 554 q 251 446 251 481 l 251 169 m -6 799 q 14 846 -6 826 q 60 865 33 865 q 106 846 88 865 q 125 799 125 826 q 106 753 125 772 q 60 733 88 733 q 14 753 33 733 q -6 799 -6 772 m 229 799 q 249 846 229 826 q 294 865 268 865 q 341 846 322 865 q 360 799 360 826 q 341 753 360 772 q 294 733 322 733 q 249 753 268 733 q 229 799 229 772 z "},"":{"ha":675,"x_min":47,"x_max":621,"o":"m 47 289 q 77 441 47 379 q 153 540 107 503 q 251 593 200 576 q 344 610 301 610 q 398 606 372 610 q 450 590 424 601 q 397 697 428 646 q 326 794 365 747 l 175 693 l 144 738 l 290 836 l 268 858 q 174 940 224 904 l 196 969 q 343 871 271 929 l 490 969 l 521 925 l 386 835 l 411 810 q 561 601 501 721 q 621 329 621 482 q 578 136 621 213 q 467 23 536 60 q 321 -14 399 -14 q 174 32 235 -14 q 80 147 113 78 q 47 289 47 217 m 344 36 q 397 47 369 36 q 449 88 425 58 q 489 172 474 118 q 504 310 504 225 q 499 404 504 358 q 482 494 494 450 q 422 543 458 525 q 342 561 386 561 q 255 538 289 561 q 201 476 221 514 q 174 396 182 439 q 167 313 167 353 q 190 171 167 233 q 255 72 214 108 q 344 36 296 36 z "},"":{"ha":753,"x_min":31,"x_max":735,"o":"m 256 497 q 374 589 317 568 q 483 610 432 610 q 550 598 519 610 q 599 563 581 586 q 629 482 622 531 q 636 376 636 433 l 636 169 q 643 87 636 113 q 670 54 650 61 q 729 43 690 47 q 735 21 735 38 q 729 -3 735 4 q 661 -1 699 -1 q 582 0 624 0 q 506 -1 540 0 q 440 -3 472 -1 q 435 21 435 4 q 440 43 435 38 q 495 54 476 47 q 520 87 514 61 q 526 169 526 113 l 526 381 q 524 440 526 413 q 510 488 521 467 q 477 524 497 511 q 436 538 457 538 q 351 516 396 538 q 267 456 307 494 q 251 433 258 446 q 243 397 243 419 l 243 169 q 249 87 243 113 q 274 54 256 61 q 328 43 293 47 q 335 21 335 38 q 328 -3 335 4 q 264 -1 297 -1 q 189 0 231 0 q 108 -1 147 0 q 36 -3 68 -1 q 31 21 31 4 q 36 43 31 38 q 99 54 78 47 q 126 87 119 61 q 133 169 133 113 l 133 440 q 126 499 133 481 q 100 525 119 518 q 43 535 81 532 q 40 555 42 542 q 40 574 39 568 q 147 593 113 583 q 211 614 182 603 q 222 610 219 614 q 228 603 225 607 q 235 558 233 592 q 239 497 238 525 q 244 489 239 488 q 256 497 249 490 m 481 796 q 518 810 504 796 q 546 868 532 825 q 583 860 568 869 q 541 760 571 797 q 463 722 511 722 q 418 738 440 722 q 374 767 396 753 q 336 785 356 778 q 299 793 317 793 q 259 777 272 793 q 235 726 246 761 q 197 733 208 722 q 238 832 213 794 q 308 869 264 869 q 364 853 340 869 q 408 822 388 838 q 481 796 443 796 z "},"":{"ha":700,"x_min":57,"x_max":643,"o":"m 57 285 q 76 409 57 350 q 133 513 96 468 q 228 583 172 557 q 351 610 283 610 q 487 582 431 610 q 577 508 543 554 q 627 406 611 461 q 643 297 643 351 q 621 172 643 233 q 553 64 599 110 q 466 8 517 29 q 349 -14 415 -14 q 185 31 250 -14 q 89 145 121 76 q 57 285 57 214 m 331 561 q 235 525 268 561 q 189 433 201 489 q 176 317 176 378 q 186 228 176 276 q 218 135 196 179 q 277 63 240 92 q 368 35 314 35 q 438 53 401 35 q 499 118 474 71 q 524 253 524 165 q 472 482 524 403 q 331 561 421 561 m 311 932 l 408 757 q 415 739 414 747 q 417 724 417 731 q 410 713 417 718 q 396 708 404 708 q 356 736 385 708 l 197 888 l 200 903 q 232 922 208 910 q 290 935 256 935 q 311 932 300 935 z "},"":{"ha":700,"x_min":57,"x_max":643,"o":"m 57 285 q 76 409 57 350 q 133 513 96 468 q 228 583 172 557 q 351 610 283 610 q 487 582 431 610 q 577 508 543 554 q 627 406 611 461 q 643 297 643 351 q 621 172 643 233 q 553 64 599 110 q 466 8 517 29 q 349 -14 415 -14 q 185 31 250 -14 q 89 145 121 76 q 57 285 57 214 m 331 561 q 235 525 268 561 q 189 433 201 489 q 176 317 176 378 q 186 228 176 276 q 218 135 196 179 q 277 63 240 92 q 368 35 314 35 q 438 53 401 35 q 499 118 474 71 q 524 253 524 165 q 472 482 524 403 q 331 561 421 561 m 375 932 q 394 935 383 935 q 424 931 401 935 q 471 903 447 926 l 475 888 l 315 736 q 290 715 300 721 q 274 710 281 710 q 260 715 267 710 q 254 728 254 721 q 258 746 254 739 q 269 767 261 753 l 375 932 z "},"":{"ha":700,"x_min":57,"x_max":643,"o":"m 57 285 q 76 409 57 350 q 133 513 96 468 q 228 583 172 557 q 351 610 283 610 q 487 582 431 610 q 577 508 543 554 q 627 406 611 461 q 643 297 643 351 q 621 172 643 233 q 553 64 599 110 q 466 8 517 29 q 349 -14 415 -14 q 185 31 250 -14 q 89 145 121 76 q 57 285 57 214 m 331 561 q 235 525 268 561 q 189 433 201 489 q 176 317 176 378 q 186 228 176 276 q 218 135 196 179 q 277 63 240 92 q 368 35 314 35 q 438 53 401 35 q 499 118 474 71 q 524 253 524 165 q 472 482 524 403 q 331 561 421 561 m 372 917 q 444 816 403 868 q 524 722 486 764 q 510 708 518 715 q 492 699 501 700 q 349 814 411 750 q 280 751 315 781 q 204 699 244 722 q 174 722 186 703 q 254 817 211 764 q 328 917 297 869 q 350 919 339 919 q 372 917 361 919 z "},"":{"ha":700,"x_min":57,"x_max":643,"o":"m 57 285 q 76 409 57 350 q 133 513 96 468 q 228 583 172 557 q 351 610 283 610 q 487 582 431 610 q 577 508 543 554 q 627 406 611 461 q 643 297 643 351 q 621 172 643 233 q 553 64 599 110 q 466 8 517 29 q 349 -14 415 -14 q 185 31 250 -14 q 89 145 121 76 q 57 285 57 214 m 331 561 q 235 525 268 561 q 189 433 201 489 q 176 317 176 378 q 186 228 176 276 q 218 135 196 179 q 277 63 240 92 q 368 35 314 35 q 438 53 401 35 q 499 118 474 71 q 524 253 524 165 q 472 482 524 403 q 331 561 421 561 m 422 796 q 460 810 446 796 q 488 868 474 825 q 525 860 510 869 q 483 760 513 797 q 404 722 453 722 q 360 738 382 722 q 315 767 338 753 q 278 785 297 778 q 240 793 258 793 q 201 777 214 793 q 176 726 188 761 q 139 733 150 722 q 180 832 154 794 q 250 869 206 869 q 306 853 282 869 q 350 822 329 838 q 422 796 385 796 z "},"":{"ha":700,"x_min":57,"x_max":643,"o":"m 57 285 q 76 409 57 350 q 133 513 96 468 q 228 583 172 557 q 351 610 283 610 q 487 582 431 610 q 577 508 543 554 q 627 406 611 461 q 643 297 643 351 q 621 172 643 233 q 553 64 599 110 q 466 8 517 29 q 349 -14 415 -14 q 185 31 250 -14 q 89 145 121 76 q 57 285 57 214 m 331 561 q 235 525 268 561 q 189 433 201 489 q 176 317 176 378 q 186 228 176 276 q 218 135 196 179 q 277 63 240 92 q 368 35 314 35 q 438 53 401 35 q 499 118 474 71 q 524 253 524 165 q 472 482 524 403 q 331 561 421 561 m 168 799 q 188 846 168 826 q 233 865 207 865 q 280 846 261 865 q 299 799 299 826 q 280 753 299 772 q 233 733 261 733 q 188 753 207 733 q 168 799 168 772 m 403 799 q 422 846 403 826 q 468 865 442 865 q 515 846 496 865 q 533 799 533 826 q 515 753 533 772 q 468 733 496 733 q 422 753 442 733 q 403 799 403 772 z "},"":{"ha":764,"x_min":83,"x_max":681,"o":"m 314 538 q 332 581 314 563 q 375 599 350 599 q 419 581 400 599 q 438 538 438 563 q 419 494 438 513 q 375 476 400 476 q 332 494 350 476 q 314 538 314 513 m 643 314 l 104 314 q 89 321 94 314 q 83 336 83 328 q 94 367 83 351 q 118 383 106 383 l 661 383 q 676 376 672 383 q 681 360 681 368 q 669 332 681 350 q 643 314 657 314 m 314 165 q 332 208 314 190 q 375 226 350 226 q 419 208 400 226 q 438 165 438 190 q 419 122 438 140 q 375 104 400 104 q 332 122 350 104 q 314 165 314 140 z "},"":{"ha":700,"x_min":53,"x_max":643,"o":"m 575 631 q 603 622 593 631 q 618 599 614 613 l 560 528 q 624 419 604 481 q 643 297 643 358 q 621 172 643 233 q 553 64 599 110 q 466 8 517 29 q 349 -14 415 -14 q 246 3 292 -14 q 165 47 200 19 l 94 -39 q 67 -28 78 -39 q 53 -3 56 -18 l 126 86 q 74 181 92 128 q 57 285 57 233 q 76 409 57 350 q 133 513 96 468 q 228 583 172 557 q 351 610 283 610 q 445 597 404 610 q 519 563 486 585 l 575 631 m 331 561 q 235 525 268 561 q 189 433 201 489 q 176 317 176 378 q 182 249 176 286 q 200 176 188 213 l 463 494 q 331 561 414 561 m 492 444 l 226 121 q 283 59 249 83 q 368 35 318 35 q 438 53 401 35 q 499 118 474 71 q 524 253 524 165 q 492 444 524 368 z "},"":{"ha":738,"x_min":31,"x_max":722,"o":"m 301 -14 q 194 13 233 -14 q 138 84 154 40 q 122 175 122 128 l 122 442 q 104 529 122 510 q 36 553 86 549 q 31 576 31 560 q 36 599 31 593 q 108 597 72 597 q 178 596 144 596 q 226 599 213 596 q 238 590 238 599 q 236 563 238 590 q 233 502 235 536 q 232 447 232 468 l 232 194 q 251 102 232 133 q 297 61 271 71 q 343 51 322 51 q 406 68 369 51 q 482 118 443 85 q 501 142 497 131 q 504 172 504 153 l 504 440 q 487 530 504 510 q 418 553 469 550 q 413 576 413 560 q 418 599 413 593 q 490 597 454 597 q 560 596 526 596 q 608 599 594 596 q 619 590 619 599 q 618 563 619 590 q 615 502 617 536 q 614 447 614 468 l 614 181 q 631 107 614 129 q 715 79 649 85 q 722 61 722 74 q 715 42 722 49 q 613 20 651 35 q 551 -14 575 6 q 525 -14 539 -19 q 519 14 525 -14 q 510 68 513 42 q 501 74 508 75 q 489 69 494 74 q 301 -14 388 -14 m 304 932 l 401 757 q 408 739 407 747 q 410 724 410 731 q 403 713 410 718 q 389 708 397 708 q 349 736 378 708 l 190 888 l 193 903 q 225 922 201 910 q 283 935 249 935 q 304 932 293 935 z "},"":{"ha":738,"x_min":31,"x_max":722,"o":"m 301 -14 q 194 13 233 -14 q 138 84 154 40 q 122 175 122 128 l 122 442 q 104 529 122 510 q 36 553 86 549 q 31 576 31 560 q 36 599 31 593 q 108 597 72 597 q 178 596 144 596 q 226 599 213 596 q 238 590 238 599 q 236 563 238 590 q 233 502 235 536 q 232 447 232 468 l 232 194 q 251 102 232 133 q 297 61 271 71 q 343 51 322 51 q 406 68 369 51 q 482 118 443 85 q 501 142 497 131 q 504 172 504 153 l 504 440 q 487 530 504 510 q 418 553 469 550 q 413 576 413 560 q 418 599 413 593 q 490 597 454 597 q 560 596 526 596 q 608 599 594 596 q 619 590 619 599 q 618 563 619 590 q 615 502 617 536 q 614 447 614 468 l 614 181 q 631 107 614 129 q 715 79 649 85 q 722 61 722 74 q 715 42 722 49 q 613 20 651 35 q 551 -14 575 6 q 525 -14 539 -19 q 519 14 525 -14 q 510 68 513 42 q 501 74 508 75 q 489 69 494 74 q 301 -14 388 -14 m 413 932 q 432 935 421 935 q 462 931 439 935 q 508 903 485 926 l 513 888 l 353 736 q 328 715 338 721 q 311 710 318 710 q 298 715 304 710 q 292 728 292 721 q 295 746 292 739 q 307 767 299 753 l 413 932 z "},"":{"ha":738,"x_min":31,"x_max":722,"o":"m 301 -14 q 194 13 233 -14 q 138 84 154 40 q 122 175 122 128 l 122 442 q 104 529 122 510 q 36 553 86 549 q 31 576 31 560 q 36 599 31 593 q 108 597 72 597 q 178 596 144 596 q 226 599 213 596 q 238 590 238 599 q 236 563 238 590 q 233 502 235 536 q 232 447 232 468 l 232 194 q 251 102 232 133 q 297 61 271 71 q 343 51 322 51 q 406 68 369 51 q 482 118 443 85 q 501 142 497 131 q 504 172 504 153 l 504 440 q 487 530 504 510 q 418 553 469 550 q 413 576 413 560 q 418 599 413 593 q 490 597 454 597 q 560 596 526 596 q 608 599 594 596 q 619 590 619 599 q 618 563 619 590 q 615 502 617 536 q 614 447 614 468 l 614 181 q 631 107 614 129 q 715 79 649 85 q 722 61 722 74 q 715 42 722 49 q 613 20 651 35 q 551 -14 575 6 q 525 -14 539 -19 q 519 14 525 -14 q 510 68 513 42 q 501 74 508 75 q 489 69 494 74 q 301 -14 388 -14 m 365 917 q 438 816 396 868 q 517 722 479 764 q 503 708 511 715 q 485 699 494 700 q 342 814 404 750 q 273 751 308 781 q 197 699 238 722 q 167 722 179 703 q 247 817 204 764 q 321 917 290 869 q 343 919 332 919 q 365 917 354 919 z "},"":{"ha":738,"x_min":31,"x_max":722,"o":"m 301 -14 q 194 13 233 -14 q 138 84 154 40 q 122 175 122 128 l 122 442 q 104 529 122 510 q 36 553 86 549 q 31 576 31 560 q 36 599 31 593 q 108 597 72 597 q 178 596 144 596 q 226 599 213 596 q 238 590 238 599 q 236 563 238 590 q 233 502 235 536 q 232 447 232 468 l 232 194 q 251 102 232 133 q 297 61 271 71 q 343 51 322 51 q 406 68 369 51 q 482 118 443 85 q 501 142 497 131 q 504 172 504 153 l 504 440 q 487 530 504 510 q 418 553 469 550 q 413 576 413 560 q 418 599 413 593 q 490 597 454 597 q 560 596 526 596 q 608 599 594 596 q 619 590 619 599 q 618 563 619 590 q 615 502 617 536 q 614 447 614 468 l 614 181 q 631 107 614 129 q 715 79 649 85 q 722 61 722 74 q 715 42 722 49 q 613 20 651 35 q 551 -14 575 6 q 525 -14 539 -19 q 519 14 525 -14 q 510 68 513 42 q 501 74 508 75 q 489 69 494 74 q 301 -14 388 -14 m 171 799 q 190 846 171 826 q 236 865 210 865 q 283 846 264 865 q 301 799 301 826 q 283 753 301 772 q 236 733 264 733 q 190 753 210 733 q 171 799 171 772 m 406 799 q 425 846 406 826 q 471 865 444 865 q 517 846 499 865 q 536 799 536 826 q 517 753 536 772 q 471 733 499 733 q 425 753 444 733 q 406 799 406 772 z "},"":{"ha":715,"x_min":17,"x_max":706,"o":"m 283 -222 q 208 -306 246 -289 q 149 -322 171 -322 q 102 -308 121 -322 q 83 -271 83 -293 q 99 -234 83 -257 q 144 -211 114 -211 q 163 -213 156 -211 q 185 -215 171 -215 q 254 -175 232 -215 q 283 -112 269 -143 q 308 -47 296 -82 q 313 -3 315 -28 q 302 46 310 22 q 289 83 294 69 l 132 449 q 99 513 114 492 q 67 542 85 533 q 22 553 50 550 q 17 576 17 560 q 22 599 17 593 q 72 597 43 597 q 135 596 100 596 q 213 597 172 596 q 292 599 253 597 q 299 576 299 593 q 292 553 299 560 q 231 528 233 549 q 246 463 228 507 l 369 174 q 403 172 386 135 l 540 490 q 543 528 551 515 q 515 546 535 540 q 474 553 496 551 q 468 576 468 560 q 474 599 468 593 q 538 597 506 597 q 600 596 569 596 q 653 597 629 596 q 699 599 678 597 q 706 576 706 593 q 699 553 706 560 q 628 528 650 547 q 586 464 607 508 q 515 307 550 386 q 438 130 479 228 q 340 -103 396 32 q 314 -163 328 -133 q 283 -222 300 -193 m 438 932 q 457 935 446 935 q 487 931 464 935 q 533 903 510 926 l 538 888 l 378 736 q 353 715 363 721 q 336 710 343 710 q 323 715 329 710 q 317 728 317 721 q 320 746 317 739 q 332 767 324 753 l 438 932 z "},"":{"ha":697,"x_min":11,"x_max":646,"o":"m 117 776 q 110 858 117 835 q 83 885 103 881 q 28 890 64 889 q 20 910 22 897 q 19 932 18 924 q 86 941 47 935 q 161 955 125 947 q 214 969 197 963 q 232 956 232 969 q 229 917 232 956 q 226 810 226 878 l 226 544 q 231 521 226 522 q 250 535 235 519 q 316 586 276 563 q 410 610 356 610 q 531 569 478 610 q 615 465 583 529 q 646 326 646 400 q 619 178 646 242 q 546 67 593 114 q 351 -14 465 -14 q 253 4 297 -14 q 234 12 242 8 q 226 -14 226 15 l 226 -153 q 234 -235 226 -210 q 267 -269 242 -261 q 340 -279 292 -276 q 347 -301 347 -285 q 340 -325 347 -318 q 258 -323 296 -324 q 172 -322 221 -322 q 94 -323 126 -322 q 17 -325 61 -324 q 11 -301 11 -318 q 17 -279 11 -285 q 81 -269 60 -276 q 109 -236 101 -262 q 117 -153 117 -210 l 117 776 m 224 400 l 224 136 q 229 91 224 103 q 247 69 235 79 q 303 38 276 43 q 344 33 329 33 q 458 72 418 33 q 512 170 497 111 q 526 289 526 229 q 513 410 526 351 q 454 513 499 468 q 419 537 439 528 q 374 546 400 546 q 315 530 350 546 q 251 481 279 514 q 224 400 224 449 z "},"":{"ha":715,"x_min":17,"x_max":706,"o":"m 283 -222 q 208 -306 246 -289 q 149 -322 171 -322 q 102 -308 121 -322 q 83 -271 83 -293 q 99 -234 83 -257 q 144 -211 114 -211 q 163 -213 156 -211 q 185 -215 171 -215 q 254 -175 232 -215 q 283 -112 269 -143 q 308 -47 296 -82 q 313 -3 315 -28 q 302 46 310 22 q 289 83 294 69 l 132 449 q 99 513 114 492 q 67 542 85 533 q 22 553 50 550 q 17 576 17 560 q 22 599 17 593 q 72 597 43 597 q 135 596 100 596 q 213 597 172 596 q 292 599 253 597 q 299 576 299 593 q 292 553 299 560 q 231 528 233 549 q 246 463 228 507 l 369 174 q 403 172 386 135 l 540 490 q 543 528 551 515 q 515 546 535 540 q 474 553 496 551 q 468 576 468 560 q 474 599 468 593 q 538 597 506 597 q 600 596 569 596 q 653 597 629 596 q 699 599 678 597 q 706 576 706 593 q 699 553 706 560 q 628 528 650 547 q 586 464 607 508 q 515 307 550 386 q 438 130 479 228 q 340 -103 396 32 q 314 -163 328 -133 q 283 -222 300 -193 m 194 799 q 214 846 194 826 q 260 865 233 865 q 306 846 288 865 q 325 799 325 826 q 306 753 325 772 q 260 733 288 733 q 214 753 233 733 q 194 799 194 772 m 429 799 q 449 846 429 826 q 494 865 468 865 q 541 846 522 865 q 560 799 560 826 q 541 753 560 772 q 494 733 522 733 q 449 753 468 733 q 429 799 429 772 z "},"":{"ha":965,"x_min":4,"x_max":958,"o":"m 215 110 q 218 67 204 81 q 258 49 232 54 q 311 43 285 44 q 318 21 318 38 q 311 -3 318 4 q 224 -1 272 -1 q 133 0 176 0 q 69 -1 101 0 q 10 -3 38 -1 q 4 21 4 4 q 10 43 4 38 q 89 62 56 46 q 149 142 122 78 l 464 886 q 501 895 478 886 q 540 914 525 904 l 826 119 q 878 58 844 69 q 951 43 911 47 q 958 21 958 38 q 951 -3 958 4 q 876 -1 915 -1 q 793 0 836 0 q 701 -1 753 0 q 611 -3 650 -1 q 606 21 606 4 q 611 43 606 38 q 694 56 661 47 q 714 100 726 64 l 633 335 l 340 335 q 306 330 315 335 q 292 311 297 325 l 215 110 m 365 393 l 611 393 l 481 771 l 472 771 l 331 411 q 335 397 326 401 q 365 393 343 393 m 642 1025 l 331 1025 q 317 1034 321 1025 q 313 1050 313 1043 q 322 1078 313 1063 q 343 1094 332 1094 l 656 1094 q 671 1086 667 1094 q 675 1071 675 1078 q 665 1042 675 1058 q 642 1025 656 1025 z "},"":{"ha":635,"x_min":50,"x_max":632,"o":"m 407 67 l 404 67 l 376 44 q 296 -2 331 10 q 225 -14 261 -14 q 101 19 153 -14 q 50 136 50 51 q 115 260 50 207 q 279 338 179 313 l 399 367 q 407 383 407 369 q 389 501 407 463 q 344 551 371 539 q 294 564 318 564 q 219 551 256 564 q 183 506 183 538 q 184 488 183 494 q 186 478 185 481 q 190 453 190 469 q 173 422 190 439 q 125 406 156 406 q 76 456 76 406 q 110 531 76 496 q 196 588 143 565 q 306 610 249 610 q 405 592 357 610 q 484 524 453 575 q 515 375 515 474 l 515 171 q 521 88 515 124 q 557 53 526 53 q 585 60 571 53 q 608 75 600 68 q 632 38 628 64 q 575 1 610 17 q 500 -14 540 -14 q 431 10 447 -14 q 407 67 414 35 m 407 324 l 297 294 q 193 232 221 275 q 165 142 165 189 q 190 76 165 110 q 265 43 214 43 q 328 63 294 43 q 388 104 361 82 q 401 119 396 111 q 407 140 407 126 l 407 324 m 447 719 l 136 719 q 122 728 126 719 q 118 744 118 738 q 128 773 118 757 q 149 789 138 789 l 461 789 q 476 781 472 789 q 481 765 481 772 q 471 736 481 753 q 447 719 461 719 z "},"":{"ha":965,"x_min":4,"x_max":958,"o":"m 215 110 q 218 67 204 81 q 258 49 232 54 q 311 43 285 44 q 318 21 318 38 q 311 -3 318 4 q 224 -1 272 -1 q 133 0 176 0 q 69 -1 101 0 q 10 -3 38 -1 q 4 21 4 4 q 10 43 4 38 q 89 62 56 46 q 149 142 122 78 l 464 886 q 501 895 478 886 q 540 914 525 904 l 826 119 q 878 58 844 69 q 951 43 911 47 q 958 21 958 38 q 951 -3 958 4 q 876 -1 915 -1 q 793 0 836 0 q 701 -1 753 0 q 611 -3 650 -1 q 606 21 606 4 q 611 43 606 38 q 694 56 661 47 q 714 100 726 64 l 633 335 l 340 335 q 306 330 315 335 q 292 311 297 325 l 215 110 m 365 393 l 611 393 l 481 771 l 472 771 l 331 411 q 335 397 326 401 q 365 393 343 393 m 686 1117 q 654 1033 682 1068 q 585 978 626 997 q 497 960 543 960 q 367 1002 421 960 q 308 1117 314 1044 l 347 1117 q 399 1054 356 1076 q 497 1032 442 1032 q 594 1054 549 1032 q 647 1117 640 1076 l 686 1117 z "},"":{"ha":635,"x_min":50,"x_max":632,"o":"m 407 67 l 404 67 l 376 44 q 296 -2 331 10 q 225 -14 261 -14 q 101 19 153 -14 q 50 136 50 51 q 115 260 50 207 q 279 338 179 313 l 399 367 q 407 383 407 369 q 389 501 407 463 q 344 551 371 539 q 294 564 318 564 q 219 551 256 564 q 183 506 183 538 q 184 488 183 494 q 186 478 185 481 q 190 453 190 469 q 173 422 190 439 q 125 406 156 406 q 76 456 76 406 q 110 531 76 496 q 196 588 143 565 q 306 610 249 610 q 405 592 357 610 q 484 524 453 575 q 515 375 515 474 l 515 171 q 521 88 515 124 q 557 53 526 53 q 585 60 571 53 q 608 75 600 68 q 632 38 628 64 q 575 1 610 17 q 500 -14 540 -14 q 431 10 447 -14 q 407 67 414 35 m 407 324 l 297 294 q 193 232 221 275 q 165 142 165 189 q 190 76 165 110 q 265 43 214 43 q 328 63 294 43 q 388 104 361 82 q 401 119 396 111 q 407 140 407 126 l 407 324 m 136 899 q 189 808 147 843 q 286 774 231 774 q 383 806 340 774 q 436 899 426 839 l 474 882 q 436 781 465 822 q 367 717 407 739 q 286 694 328 694 q 164 744 214 694 q 99 882 114 793 l 136 899 z "},"":{"ha":965,"x_min":4,"x_max":974,"o":"m 974 -187 q 903 -256 943 -235 q 821 -278 864 -278 q 734 -254 769 -278 q 699 -175 699 -231 q 734 -80 699 -132 q 832 0 769 -28 q 813 0 822 0 q 793 0 803 0 q 701 -1 753 0 q 611 -3 650 -1 q 606 21 606 4 q 611 43 606 38 q 694 56 661 47 q 714 100 726 64 l 633 335 l 340 335 q 306 330 315 335 q 292 311 297 325 l 215 110 q 218 67 204 81 q 258 49 232 54 q 311 43 285 44 q 318 21 318 38 q 311 -3 318 4 q 224 -1 272 -1 q 133 0 176 0 q 69 -1 101 0 q 10 -3 38 -1 q 4 21 4 4 q 10 43 4 38 q 89 62 56 46 q 149 142 122 78 l 464 886 q 501 895 478 886 q 540 914 525 904 l 826 119 q 878 58 844 69 q 951 43 911 47 q 958 21 958 38 q 951 -3 958 4 q 865 -28 903 -3 q 806 -91 826 -54 q 785 -160 785 -128 q 800 -206 785 -186 q 854 -225 815 -225 q 905 -210 885 -225 q 947 -172 925 -194 q 974 -187 965 -172 m 365 393 l 611 393 l 481 771 l 472 771 l 331 411 q 335 397 326 401 q 365 393 343 393 z "},"":{"ha":635,"x_min":50,"x_max":639,"o":"m 639 -187 q 569 -256 608 -235 q 486 -278 529 -278 q 399 -254 435 -278 q 364 -175 364 -231 q 397 -92 364 -132 q 481 -12 429 -51 q 426 15 440 -8 q 407 67 413 38 l 404 67 l 376 44 q 296 -2 331 10 q 225 -14 261 -14 q 101 19 153 -14 q 50 136 50 51 q 115 260 50 207 q 279 338 179 313 l 399 367 q 407 383 407 369 q 389 501 407 463 q 344 551 371 539 q 294 564 318 564 q 219 551 256 564 q 183 506 183 538 q 184 488 183 494 q 186 478 185 481 q 190 453 190 469 q 173 422 190 439 q 125 406 156 406 q 76 456 76 406 q 110 531 76 496 q 196 588 143 565 q 306 610 249 610 q 405 592 357 610 q 484 524 453 575 q 515 375 515 474 l 515 171 q 521 88 515 124 q 557 53 526 53 q 585 60 571 53 q 608 75 600 68 q 632 38 628 64 q 553 -7 600 7 q 476 -83 503 -49 q 450 -160 450 -118 q 465 -206 450 -186 q 519 -225 481 -225 q 570 -210 550 -225 q 613 -172 590 -194 q 639 -187 631 -172 m 407 324 l 297 294 q 193 232 221 275 q 165 142 165 189 q 190 76 165 110 q 265 43 214 43 q 328 63 294 43 q 388 104 361 82 q 401 119 396 111 q 407 140 407 126 l 407 324 z "},"":{"ha":897,"x_min":51,"x_max":849,"o":"m 496 -14 q 247 47 346 -14 q 100 209 149 108 q 51 431 51 310 q 90 635 51 539 q 199 796 129 732 q 334 883 260 853 q 497 914 408 914 q 638 900 583 914 q 729 871 692 886 q 801 851 767 856 q 819 742 813 794 q 832 636 826 690 q 810 628 821 631 q 786 629 799 625 q 733 742 768 689 q 638 829 699 796 q 482 863 578 863 q 370 833 428 863 q 260 739 313 803 q 200 619 222 692 q 178 457 178 547 q 201 307 178 381 q 266 174 224 233 q 367 78 308 114 q 494 43 425 43 q 667 78 592 43 q 817 194 743 114 q 849 174 838 194 q 688 33 778 81 q 496 -14 597 -14 m 544 1138 q 631 1065 604 1110 l 431 985 q 395 972 408 975 q 372 968 382 968 q 351 989 351 968 q 355 1002 351 996 q 372 1018 358 1008 l 544 1138 z "},"":{"ha":594,"x_min":51,"x_max":553,"o":"m 553 126 q 445 14 501 42 q 326 -14 389 -14 q 124 70 196 -14 q 51 289 51 154 q 94 460 51 388 q 202 571 136 532 q 336 610 268 610 q 492 572 436 610 q 549 478 549 535 q 526 431 549 446 q 481 417 503 417 q 444 428 458 417 q 428 467 431 439 q 417 514 425 492 q 390 550 410 536 q 329 564 371 564 q 216 499 261 564 q 171 319 171 435 q 197 179 171 239 q 265 87 222 119 q 357 54 307 54 q 445 77 401 54 q 524 146 489 100 q 553 126 546 143 m 353 932 q 372 935 361 935 q 402 931 379 935 q 449 903 425 926 l 453 888 l 293 736 q 268 715 278 721 q 251 710 258 710 q 238 715 244 710 q 232 728 232 721 q 235 746 232 739 q 247 767 239 753 l 353 932 z "},"":{"ha":897,"x_min":51,"x_max":849,"o":"m 496 -14 q 247 47 346 -14 q 100 209 149 108 q 51 431 51 310 q 90 635 51 539 q 199 796 129 732 q 334 883 260 853 q 497 914 408 914 q 638 900 583 914 q 729 871 692 886 q 801 851 767 856 q 819 742 813 794 q 832 636 826 690 q 810 628 821 631 q 786 629 799 625 q 733 742 768 689 q 638 829 699 796 q 482 863 578 863 q 370 833 428 863 q 260 739 313 803 q 200 619 222 692 q 178 457 178 547 q 201 307 178 381 q 266 174 224 233 q 367 78 308 114 q 494 43 425 43 q 667 78 592 43 q 817 194 743 114 q 849 174 838 194 q 688 33 778 81 q 496 -14 597 -14 m 522 1124 q 591 1051 554 1086 q 665 989 628 1017 q 658 972 663 979 q 643 960 653 964 q 567 999 603 979 q 496 1044 531 1018 q 422 997 457 1017 q 347 960 388 978 q 328 989 332 969 q 401 1053 367 1018 q 468 1124 436 1089 q 494 1132 483 1132 q 522 1124 506 1132 z "},"":{"ha":594,"x_min":51,"x_max":553,"o":"m 553 126 q 445 14 501 42 q 326 -14 389 -14 q 124 70 196 -14 q 51 289 51 154 q 94 460 51 388 q 202 571 136 532 q 336 610 268 610 q 492 572 436 610 q 549 478 549 535 q 526 431 549 446 q 481 417 503 417 q 444 428 458 417 q 428 467 431 439 q 417 514 425 492 q 390 550 410 536 q 329 564 371 564 q 216 499 261 564 q 171 319 171 435 q 197 179 171 239 q 265 87 222 119 q 357 54 307 54 q 445 77 401 54 q 524 146 489 100 q 553 126 546 143 m 332 917 q 404 816 363 868 q 483 722 446 764 q 469 708 478 715 q 451 699 461 700 q 308 814 371 750 q 240 751 275 781 q 164 699 204 722 q 133 722 146 703 q 214 817 171 764 q 288 917 257 869 q 310 919 299 919 q 332 917 321 919 z "},"":{"ha":897,"x_min":51,"x_max":849,"o":"m 496 -14 q 247 47 346 -14 q 100 209 149 108 q 51 431 51 310 q 90 635 51 539 q 199 796 129 732 q 334 883 260 853 q 497 914 408 914 q 638 900 583 914 q 729 871 692 886 q 801 851 767 856 q 819 742 813 794 q 832 636 826 690 q 810 628 821 631 q 786 629 799 625 q 733 742 768 689 q 638 829 699 796 q 482 863 578 863 q 370 833 428 863 q 260 739 313 803 q 200 619 222 692 q 178 457 178 547 q 201 307 178 381 q 266 174 224 233 q 367 78 308 114 q 494 43 425 43 q 667 78 592 43 q 817 194 743 114 q 849 174 838 194 q 688 33 778 81 q 496 -14 597 -14 m 422 1046 q 444 1097 422 1075 q 494 1118 465 1118 q 545 1097 524 1118 q 567 1046 567 1075 q 545 995 567 1017 q 494 974 524 974 q 444 995 465 974 q 422 1046 422 1017 z "},"":{"ha":594,"x_min":51,"x_max":553,"o":"m 553 126 q 445 14 501 42 q 326 -14 389 -14 q 124 70 196 -14 q 51 289 51 154 q 94 460 51 388 q 202 571 136 532 q 336 610 268 610 q 492 572 436 610 q 549 478 549 535 q 526 431 549 446 q 481 417 503 417 q 444 428 458 417 q 428 467 431 439 q 417 514 425 492 q 390 550 410 536 q 329 564 371 564 q 216 499 261 564 q 171 319 171 435 q 197 179 171 239 q 265 87 222 119 q 357 54 307 54 q 445 77 401 54 q 524 146 489 100 q 553 126 546 143 m 249 833 q 272 879 249 858 q 321 900 296 900 q 368 876 349 900 q 388 828 388 853 q 366 783 388 806 q 315 761 344 761 q 269 784 290 761 q 249 833 249 807 z "},"":{"ha":897,"x_min":51,"x_max":849,"o":"m 496 -14 q 247 47 346 -14 q 100 209 149 108 q 51 431 51 310 q 90 635 51 539 q 199 796 129 732 q 334 883 260 853 q 497 914 408 914 q 638 900 583 914 q 729 871 692 886 q 801 851 767 856 q 819 742 813 794 q 832 636 826 690 q 810 628 821 631 q 786 629 799 625 q 733 742 768 689 q 638 829 699 796 q 482 863 578 863 q 370 833 428 863 q 260 739 313 803 q 200 619 222 692 q 178 457 178 547 q 201 307 178 381 q 266 174 224 233 q 367 78 308 114 q 494 43 425 43 q 667 78 592 43 q 817 194 743 114 q 849 174 838 194 q 688 33 778 81 q 496 -14 597 -14 m 463 968 q 396 1039 432 1007 q 322 1100 360 1071 l 344 1128 q 421 1090 385 1110 q 492 1043 457 1069 q 566 1091 531 1071 q 640 1128 601 1111 l 661 1100 q 588 1037 622 1069 q 522 968 554 1004 l 463 968 z "},"":{"ha":594,"x_min":51,"x_max":553,"o":"m 553 126 q 445 14 501 42 q 326 -14 389 -14 q 124 70 196 -14 q 51 289 51 154 q 94 460 51 388 q 202 571 136 532 q 336 610 268 610 q 492 572 436 610 q 549 478 549 535 q 526 431 549 446 q 481 417 503 417 q 444 428 458 417 q 428 467 431 439 q 417 514 425 492 q 390 550 410 536 q 329 564 371 564 q 216 499 261 564 q 171 319 171 435 q 197 179 171 239 q 265 87 222 119 q 357 54 307 54 q 445 77 401 54 q 524 146 489 100 q 553 126 546 143 m 281 697 q 213 792 250 746 q 140 878 176 839 l 168 896 q 244 837 208 865 q 315 771 281 808 q 390 840 354 811 q 465 896 426 868 l 492 878 q 418 792 456 838 q 350 697 381 746 l 281 697 z "},"":{"ha":974,"x_min":21,"x_max":914,"o":"m 206 896 q 303 897 246 896 q 435 899 361 899 q 622 862 535 899 q 774 760 708 825 q 877 610 840 696 q 914 428 914 525 q 872 216 914 300 q 760 84 829 132 q 613 17 692 36 q 460 -3 533 -3 q 342 -2 389 -3 q 264 -1 294 -1 q 207 0 233 0 q 117 -1 168 0 q 26 -3 67 -1 q 21 21 21 4 q 26 43 21 38 q 101 53 75 46 q 138 86 128 60 q 147 169 147 113 l 147 726 q 138 810 147 785 q 101 844 128 836 q 26 853 75 851 q 21 876 21 860 q 26 899 21 893 q 118 897 68 897 q 206 896 168 896 m 265 117 q 275 78 265 94 q 317 53 285 63 q 417 44 349 44 q 556 60 490 44 q 672 114 621 75 q 751 221 722 153 q 781 394 781 289 q 760 556 781 475 q 694 703 740 636 q 571 811 647 771 q 382 851 494 851 q 298 835 331 851 q 265 783 265 819 l 265 117 m 404 968 q 338 1039 374 1007 q 264 1100 301 1071 l 286 1128 q 363 1090 326 1110 q 433 1043 399 1069 q 508 1091 472 1071 q 582 1128 543 1111 l 603 1100 q 530 1037 564 1069 q 464 968 496 1004 l 404 968 z "},"":{"ha":733,"x_min":54,"x_max":782,"o":"m 464 69 q 372 7 413 28 q 290 -14 331 -14 q 163 24 215 -14 q 82 130 110 63 q 54 282 54 197 q 80 421 54 360 q 150 526 106 482 q 241 588 192 567 q 358 610 290 610 q 406 604 382 610 q 447 592 429 599 q 467 586 464 586 q 479 599 479 586 l 479 776 q 472 858 479 835 q 446 885 465 881 q 390 890 426 889 q 383 910 385 897 q 382 932 381 924 q 449 941 410 935 q 524 955 488 947 q 576 969 560 963 q 594 956 594 969 q 592 917 594 956 q 589 810 589 878 l 589 181 q 606 107 589 129 q 690 79 624 85 q 697 61 697 74 q 690 42 697 49 q 588 20 626 35 q 526 -14 550 6 q 500 -14 514 -19 q 494 15 500 -14 q 485 68 488 43 q 476 74 483 75 q 464 69 469 74 m 479 172 l 479 436 q 475 481 479 468 q 456 511 471 494 q 408 548 435 535 q 343 561 381 561 q 284 551 322 561 q 214 492 246 540 q 186 426 199 469 q 174 307 174 382 q 197 164 174 221 q 254 79 219 107 q 326 51 289 51 q 457 118 381 51 q 476 142 472 131 q 479 172 479 153 m 699 969 q 760 938 739 969 q 782 868 782 906 q 767 810 782 843 q 720 752 751 778 q 640 721 689 726 l 633 744 q 699 785 678 754 q 721 840 721 817 q 701 869 721 869 q 648 888 658 869 q 638 922 638 906 q 653 954 638 939 q 699 969 668 969 z "},"":{"ha":974,"x_min":21,"x_max":914,"o":"m 206 896 q 303 897 246 896 q 435 899 361 899 q 622 862 535 899 q 774 760 708 825 q 877 610 840 696 q 914 428 914 525 q 872 216 914 300 q 760 84 829 132 q 613 17 692 36 q 460 -3 533 -3 q 342 -2 389 -3 q 264 -1 294 -1 q 207 0 233 0 q 117 -1 168 0 q 26 -3 67 -1 q 21 21 21 4 q 26 43 21 38 q 101 53 75 46 q 138 86 128 60 q 147 169 147 113 l 147 399 l 38 399 q 21 417 21 403 q 29 440 21 428 q 50 454 38 451 l 147 454 l 147 726 q 138 810 147 785 q 101 844 128 836 q 26 853 75 851 q 21 876 21 860 q 26 899 21 893 q 118 897 68 897 q 206 896 168 896 m 265 117 q 275 78 265 94 q 317 53 285 63 q 417 44 349 44 q 556 60 490 44 q 672 114 621 75 q 751 221 722 153 q 781 394 781 289 q 760 556 781 475 q 694 703 740 636 q 571 811 647 771 q 382 851 494 851 q 298 835 331 851 q 265 783 265 819 l 265 454 l 435 454 q 449 447 444 453 q 453 436 453 442 q 443 414 453 426 q 421 399 433 401 l 265 399 l 265 117 z "},"":{"ha":703,"x_min":54,"x_max":697,"o":"m 464 69 q 372 7 413 28 q 290 -14 331 -14 q 163 24 215 -14 q 82 130 110 63 q 54 282 54 197 q 80 421 54 360 q 150 526 106 482 q 241 588 192 567 q 358 610 290 610 q 406 604 382 610 q 447 592 429 599 q 467 586 464 586 q 479 599 479 586 l 479 740 l 274 740 q 257 758 257 744 q 265 781 257 769 q 286 796 274 793 l 479 796 q 470 863 478 844 q 443 885 463 882 q 390 890 424 889 q 383 910 385 897 q 382 932 381 924 q 449 941 410 935 q 524 955 488 947 q 576 969 560 963 q 594 956 594 969 q 592 917 594 956 q 589 810 589 878 l 589 796 l 671 796 q 685 789 681 794 q 689 778 689 783 q 679 756 689 768 q 657 740 669 743 l 589 740 l 589 181 q 606 107 589 129 q 690 79 624 85 q 697 61 697 74 q 690 42 697 49 q 588 20 626 35 q 526 -14 550 6 q 500 -14 514 -19 q 494 15 500 -14 q 485 68 488 43 q 476 74 483 75 q 464 69 469 74 m 479 172 l 479 436 q 475 481 479 468 q 456 511 471 494 q 408 548 435 535 q 343 561 381 561 q 284 551 322 561 q 214 492 246 540 q 186 426 199 469 q 174 307 174 382 q 197 164 174 221 q 254 79 219 107 q 326 51 289 51 q 457 118 381 51 q 476 142 472 131 q 479 172 479 153 z "},"":{"ha":774,"x_min":19,"x_max":733,"o":"m 521 1035 l 210 1035 q 196 1044 200 1035 q 192 1060 192 1053 q 201 1088 192 1072 q 222 1104 211 1104 l 535 1104 q 550 1096 546 1104 q 554 1081 554 1088 q 544 1051 554 1068 q 521 1035 535 1035 m 390 501 q 476 509 450 501 q 508 538 501 517 q 517 596 515 558 q 540 603 524 603 q 563 596 557 603 q 560 538 561 571 q 560 476 560 506 q 560 411 560 440 q 563 354 561 382 q 540 349 557 349 q 517 354 524 349 q 508 407 515 386 q 476 438 501 428 q 390 449 450 449 l 264 449 l 264 142 q 281 74 264 93 q 342 54 299 54 l 503 54 q 623 108 582 54 q 685 236 664 161 q 733 229 711 243 q 711 113 725 176 q 682 -3 697 50 q 651 -2 682 -3 q 579 -1 621 -1 q 504 0 538 0 l 206 0 q 117 -1 171 0 q 25 -3 64 -1 q 19 21 19 4 q 25 43 19 38 q 100 53 74 46 q 136 86 126 60 q 146 169 146 113 l 146 726 q 136 810 146 785 q 100 844 126 836 q 25 853 74 851 q 19 876 19 860 q 25 899 19 893 q 119 897 67 897 q 204 896 172 896 l 558 896 q 596 897 583 896 q 626 901 608 899 q 632 897 632 901 q 637 869 633 893 q 645 814 640 846 q 655 749 650 782 q 663 696 660 717 q 617 689 640 685 q 585 771 601 738 q 541 822 569 804 q 460 840 513 840 l 356 840 q 282 819 300 840 q 264 751 264 797 l 264 501 l 390 501 z "},"":{"ha":621,"x_min":51,"x_max":565,"o":"m 536 129 q 565 107 560 128 q 466 19 524 53 q 329 -14 408 -14 q 203 10 254 -14 q 117 75 153 33 q 67 169 82 115 q 51 281 51 222 q 77 421 51 360 q 144 523 103 482 q 235 585 186 564 q 329 607 283 607 q 476 571 426 607 q 545 479 526 535 q 564 365 564 424 q 538 342 564 342 l 168 344 q 180 237 168 285 q 213 154 192 189 q 285 78 244 101 q 364 54 326 54 q 461 72 425 54 q 536 129 497 90 m 172 392 l 424 396 q 444 415 444 396 q 426 506 444 474 q 382 549 408 538 q 329 561 356 561 q 294 556 317 561 q 248 535 272 551 q 203 485 224 519 q 172 392 182 450 m 468 719 l 157 719 q 143 728 147 719 q 139 744 139 738 q 149 773 139 757 q 169 789 158 789 l 482 789 q 497 781 493 789 q 501 765 501 772 q 492 736 501 753 q 468 719 482 719 z "},"":{"ha":774,"x_min":19,"x_max":733,"o":"m 390 501 q 476 509 450 501 q 508 538 501 517 q 517 596 515 558 q 540 603 524 603 q 563 596 557 603 q 560 538 561 571 q 560 476 560 506 q 560 411 560 440 q 563 354 561 382 q 540 349 557 349 q 517 354 524 349 q 508 407 515 386 q 476 438 501 428 q 390 449 450 449 l 264 449 l 264 142 q 281 74 264 93 q 342 54 299 54 l 503 54 q 623 108 582 54 q 685 236 664 161 q 733 229 711 243 q 711 113 725 176 q 682 -3 697 50 q 651 -2 682 -3 q 579 -1 621 -1 q 504 0 538 0 l 206 0 q 117 -1 171 0 q 25 -3 64 -1 q 19 21 19 4 q 25 43 19 38 q 100 53 74 46 q 136 86 126 60 q 146 169 146 113 l 146 726 q 136 810 146 785 q 100 844 126 836 q 25 853 74 851 q 19 876 19 860 q 25 899 19 893 q 119 897 67 897 q 204 896 172 896 l 558 896 q 596 897 583 896 q 626 901 608 899 q 632 897 632 901 q 637 869 633 893 q 645 814 640 846 q 655 749 650 782 q 663 696 660 717 q 617 689 640 685 q 585 771 601 738 q 541 822 569 804 q 460 840 513 840 l 356 840 q 282 819 300 840 q 264 751 264 797 l 264 501 l 390 501 m 578 1115 q 546 1031 574 1067 q 476 977 518 996 q 389 958 435 958 q 259 1001 313 958 q 200 1115 206 1043 l 239 1115 q 290 1053 247 1075 q 389 1031 333 1031 q 486 1053 440 1031 q 539 1115 532 1075 l 578 1115 z "},"":{"ha":621,"x_min":51,"x_max":565,"o":"m 536 129 q 565 107 560 128 q 466 19 524 53 q 329 -14 408 -14 q 203 10 254 -14 q 117 75 153 33 q 67 169 82 115 q 51 281 51 222 q 77 421 51 360 q 144 523 103 482 q 235 585 186 564 q 329 607 283 607 q 476 571 426 607 q 545 479 526 535 q 564 365 564 424 q 538 342 564 342 l 168 344 q 180 237 168 285 q 213 154 192 189 q 285 78 244 101 q 364 54 326 54 q 461 72 425 54 q 536 129 497 90 m 172 392 l 424 396 q 444 415 444 396 q 426 506 444 474 q 382 549 408 538 q 329 561 356 561 q 294 556 317 561 q 248 535 272 551 q 203 485 224 519 q 172 392 182 450 m 167 900 q 219 810 178 844 q 317 775 261 775 q 414 808 371 775 q 467 900 457 840 l 504 883 q 467 782 496 824 q 398 718 438 740 q 317 696 358 696 q 194 745 244 696 q 129 883 144 794 l 167 900 z "},"":{"ha":774,"x_min":19,"x_max":733,"o":"m 303 1046 q 324 1097 303 1075 q 375 1118 346 1118 q 426 1097 404 1118 q 447 1046 447 1075 q 426 995 447 1017 q 375 974 404 974 q 324 995 346 974 q 303 1046 303 1017 m 390 501 q 476 509 450 501 q 508 538 501 517 q 517 596 515 558 q 540 603 524 603 q 563 596 557 603 q 560 538 561 571 q 560 476 560 506 q 560 411 560 440 q 563 354 561 382 q 540 349 557 349 q 517 354 524 349 q 508 407 515 386 q 476 438 501 428 q 390 449 450 449 l 264 449 l 264 142 q 281 74 264 93 q 342 54 299 54 l 503 54 q 623 108 582 54 q 685 236 664 161 q 733 229 711 243 q 711 113 725 176 q 682 -3 697 50 q 651 -2 682 -3 q 579 -1 621 -1 q 504 0 538 0 l 206 0 q 117 -1 171 0 q 25 -3 64 -1 q 19 21 19 4 q 25 43 19 38 q 100 53 74 46 q 136 86 126 60 q 146 169 146 113 l 146 726 q 136 810 146 785 q 100 844 126 836 q 25 853 74 851 q 19 876 19 860 q 25 899 19 893 q 119 897 67 897 q 204 896 172 896 l 558 896 q 596 897 583 896 q 626 901 608 899 q 632 897 632 901 q 637 869 633 893 q 645 814 640 846 q 655 749 650 782 q 663 696 660 717 q 617 689 640 685 q 585 771 601 738 q 541 822 569 804 q 460 840 513 840 l 356 840 q 282 819 300 840 q 264 751 264 797 l 264 501 l 390 501 z "},"":{"ha":621,"x_min":51,"x_max":565,"o":"m 536 129 q 565 107 560 128 q 466 19 524 53 q 329 -14 408 -14 q 203 10 254 -14 q 117 75 153 33 q 67 169 82 115 q 51 281 51 222 q 77 421 51 360 q 144 523 103 482 q 235 585 186 564 q 329 607 283 607 q 476 571 426 607 q 545 479 526 535 q 564 365 564 424 q 538 342 564 342 l 168 344 q 180 237 168 285 q 213 154 192 189 q 285 78 244 101 q 364 54 326 54 q 461 72 425 54 q 536 129 497 90 m 172 392 l 424 396 q 444 415 444 396 q 426 506 444 474 q 382 549 408 538 q 329 561 356 561 q 294 556 317 561 q 248 535 272 551 q 203 485 224 519 q 172 392 182 450 m 250 832 q 274 878 250 857 q 322 899 297 899 q 369 875 350 899 q 389 826 389 851 q 367 782 389 804 q 317 760 346 760 q 271 783 292 760 q 250 832 250 806 z "},"":{"ha":774,"x_min":19,"x_max":733,"o":"m 692 -187 q 622 -256 661 -235 q 539 -278 582 -278 q 452 -254 488 -278 q 417 -175 417 -231 q 452 -80 417 -132 q 550 0 488 -28 q 526 0 538 0 q 504 0 514 0 l 206 0 q 117 -1 171 0 q 25 -3 64 -1 q 19 21 19 4 q 25 43 19 38 q 100 53 74 46 q 136 86 126 60 q 146 169 146 113 l 146 726 q 136 810 146 785 q 100 844 126 836 q 25 853 74 851 q 19 876 19 860 q 25 899 19 893 q 119 897 67 897 q 204 896 172 896 l 558 896 q 596 897 583 896 q 626 901 608 899 q 632 897 632 901 q 637 869 633 893 q 645 814 640 846 q 655 749 650 782 q 663 696 660 717 q 617 689 640 685 q 585 771 601 738 q 541 822 569 804 q 460 840 513 840 l 356 840 q 282 819 300 840 q 264 751 264 797 l 264 501 l 390 501 q 476 509 450 501 q 508 538 501 517 q 517 596 515 558 q 540 603 524 603 q 563 596 557 603 q 560 538 561 571 q 560 476 560 506 q 560 411 560 440 q 563 354 561 382 q 540 349 557 349 q 517 354 524 349 q 508 407 515 386 q 476 438 501 428 q 390 449 450 449 l 264 449 l 264 142 q 281 74 264 93 q 342 54 299 54 l 503 54 q 623 108 582 54 q 685 236 664 161 q 733 229 711 243 q 711 113 725 176 q 682 -3 697 50 q 678 -3 682 -3 q 669 -3 675 -3 l 669 -3 q 583 -28 621 -3 q 524 -91 544 -54 q 503 -160 503 -128 q 518 -206 503 -186 q 572 -225 533 -225 q 623 -210 603 -225 q 665 -172 643 -194 q 692 -187 683 -172 z "},"":{"ha":621,"x_min":51,"x_max":565,"o":"m 518 -187 q 448 -256 488 -235 q 365 -278 408 -278 q 278 -254 314 -278 q 243 -175 243 -231 q 276 -92 243 -132 q 360 -12 308 -51 q 329 -14 346 -14 q 203 10 254 -14 q 117 75 153 33 q 67 169 82 115 q 51 281 51 222 q 77 421 51 360 q 144 523 103 482 q 235 585 186 564 q 329 607 283 607 q 476 571 426 607 q 545 479 526 535 q 564 365 564 424 q 538 342 564 342 l 168 344 q 180 237 168 285 q 213 154 192 189 q 285 78 244 101 q 364 54 326 54 q 461 72 425 54 q 536 129 497 90 q 565 107 560 128 q 516 54 543 78 q 457 15 489 31 q 360 -77 392 -40 q 329 -160 329 -114 q 344 -206 329 -186 q 399 -225 360 -225 q 449 -210 429 -225 q 492 -172 469 -194 q 518 -187 510 -172 m 172 392 l 424 396 q 444 415 444 396 q 426 506 444 474 q 382 549 408 538 q 329 561 356 561 q 294 556 317 561 q 248 535 272 551 q 203 485 224 519 q 172 392 182 450 z "},"":{"ha":774,"x_min":19,"x_max":733,"o":"m 390 501 q 476 509 450 501 q 508 538 501 517 q 517 596 515 558 q 540 603 524 603 q 563 596 557 603 q 560 538 561 571 q 560 476 560 506 q 560 411 560 440 q 563 354 561 382 q 540 349 557 349 q 517 354 524 349 q 508 407 515 386 q 476 438 501 428 q 390 449 450 449 l 264 449 l 264 142 q 281 74 264 93 q 342 54 299 54 l 503 54 q 623 108 582 54 q 685 236 664 161 q 733 229 711 243 q 711 113 725 176 q 682 -3 697 50 q 651 -2 682 -3 q 579 -1 621 -1 q 504 0 538 0 l 206 0 q 117 -1 171 0 q 25 -3 64 -1 q 19 21 19 4 q 25 43 19 38 q 100 53 74 46 q 136 86 126 60 q 146 169 146 113 l 146 726 q 136 810 146 785 q 100 844 126 836 q 25 853 74 851 q 19 876 19 860 q 25 899 19 893 q 119 897 67 897 q 204 896 172 896 l 558 896 q 596 897 583 896 q 626 901 608 899 q 632 897 632 901 q 637 869 633 893 q 645 814 640 846 q 655 749 650 782 q 663 696 660 717 q 617 689 640 685 q 585 771 601 738 q 541 822 569 804 q 460 840 513 840 l 356 840 q 282 819 300 840 q 264 751 264 797 l 264 501 l 390 501 m 372 968 q 306 1039 342 1007 q 232 1100 269 1071 l 254 1128 q 331 1090 294 1110 q 401 1043 367 1069 q 476 1091 440 1071 q 550 1128 511 1111 l 571 1100 q 498 1037 532 1069 q 432 968 464 1004 l 372 968 z "},"":{"ha":621,"x_min":51,"x_max":565,"o":"m 536 129 q 565 107 560 128 q 466 19 524 53 q 329 -14 408 -14 q 203 10 254 -14 q 117 75 153 33 q 67 169 82 115 q 51 281 51 222 q 77 421 51 360 q 144 523 103 482 q 235 585 186 564 q 329 607 283 607 q 476 571 426 607 q 545 479 526 535 q 564 365 564 424 q 538 342 564 342 l 168 344 q 180 237 168 285 q 213 154 192 189 q 285 78 244 101 q 364 54 326 54 q 461 72 425 54 q 536 129 497 90 m 172 392 l 424 396 q 444 415 444 396 q 426 506 444 474 q 382 549 408 538 q 329 561 356 561 q 294 556 317 561 q 248 535 272 551 q 203 485 224 519 q 172 392 182 450 m 276 696 q 209 791 246 744 q 136 876 172 838 l 164 894 q 240 835 204 864 q 311 769 276 807 q 386 838 350 810 q 461 894 422 867 l 488 876 q 414 790 451 836 q 346 696 376 744 l 276 696 z "},"":{"ha":951,"x_min":51,"x_max":925,"o":"m 524 914 q 649 901 601 914 q 734 874 697 889 q 813 851 771 858 q 835 729 829 776 q 844 638 842 682 q 799 629 821 628 q 751 742 781 689 q 663 830 721 796 q 504 864 606 864 q 386 834 443 864 q 284 750 329 804 q 212 621 239 696 q 185 454 185 546 q 206 313 185 386 q 270 176 228 239 q 376 75 313 114 q 521 36 439 36 q 640 46 578 36 q 736 89 701 56 l 736 301 q 708 353 736 343 q 622 368 679 364 q 617 394 617 375 q 622 418 617 413 q 714 416 668 417 q 794 415 760 415 q 865 416 836 415 q 918 418 893 417 q 925 394 925 413 q 918 368 925 375 q 871 351 888 365 q 854 301 854 338 l 854 140 q 876 101 854 119 q 709 14 806 42 q 489 -14 613 -14 q 258 44 357 -14 q 106 202 160 103 q 51 426 51 301 q 92 632 51 542 q 200 785 132 722 q 352 881 268 847 q 524 914 436 914 m 532 1122 q 601 1050 564 1085 q 675 988 638 1015 q 667 970 672 978 q 653 958 663 963 q 576 997 613 978 q 506 1043 540 1017 q 432 996 467 1015 q 357 958 397 976 q 338 988 342 968 q 411 1052 376 1017 q 478 1122 446 1088 q 504 1131 493 1131 q 532 1122 515 1131 z "},"":{"ha":694,"x_min":44,"x_max":668,"o":"m 617 538 q 594 546 606 538 q 578 563 582 554 q 550 579 567 579 q 519 568 536 579 q 494 546 501 557 q 540 483 525 515 q 554 401 554 450 q 521 286 554 333 q 434 214 488 239 q 319 189 381 189 q 249 197 279 189 q 193 218 218 204 q 168 138 168 183 q 197 76 168 93 q 257 58 226 58 q 273 59 263 58 q 299 61 283 60 q 349 66 324 64 q 392 68 374 68 q 455 66 418 68 q 530 54 492 64 q 594 22 568 44 q 640 -30 625 -3 q 656 -90 656 -57 q 622 -191 656 -146 q 531 -267 588 -236 q 405 -314 474 -297 q 265 -331 336 -331 q 161 -316 213 -331 q 77 -267 110 -301 q 44 -172 44 -232 q 74 -83 44 -128 q 158 -4 103 -37 q 113 38 132 10 q 94 103 94 65 q 110 178 94 139 q 156 243 126 218 q 105 307 126 271 q 83 399 83 343 q 117 510 83 463 q 205 583 150 557 q 321 610 260 610 q 417 594 382 610 q 465 571 453 579 q 535 624 493 607 q 604 642 578 642 q 650 627 632 642 q 668 590 668 613 q 652 553 668 569 q 617 538 636 538 m 443 388 q 408 520 443 474 q 308 567 374 567 q 197 419 197 567 q 206 332 197 375 q 241 260 214 289 q 326 232 268 232 q 379 244 353 232 q 424 290 406 256 q 443 388 443 324 m 183 -14 q 147 -79 153 -50 q 140 -144 140 -108 q 159 -205 140 -179 q 205 -247 178 -231 q 260 -272 232 -264 q 307 -279 289 -279 q 433 -262 369 -279 q 538 -210 496 -244 q 579 -126 579 -176 q 564 -81 579 -99 q 508 -40 549 -62 q 435 -20 478 -24 q 340 -17 393 -17 q 299 -19 326 -17 q 239 -21 271 -21 q 183 -14 208 -21 m 342 915 q 414 815 372 867 q 493 721 456 763 q 479 706 488 714 q 461 697 471 699 q 318 813 381 749 q 249 750 285 779 q 174 697 214 721 q 143 721 156 701 q 224 815 181 763 q 297 915 267 868 q 319 918 308 918 q 342 915 331 918 z "},"":{"ha":951,"x_min":51,"x_max":925,"o":"m 524 914 q 649 901 601 914 q 734 874 697 889 q 813 851 771 858 q 835 729 829 776 q 844 638 842 682 q 799 629 821 628 q 751 742 781 689 q 663 830 721 796 q 504 864 606 864 q 386 834 443 864 q 284 750 329 804 q 212 621 239 696 q 185 454 185 546 q 206 313 185 386 q 270 176 228 239 q 376 75 313 114 q 521 36 439 36 q 640 46 578 36 q 736 89 701 56 l 736 301 q 708 353 736 343 q 622 368 679 364 q 617 394 617 375 q 622 418 617 413 q 714 416 668 417 q 794 415 760 415 q 865 416 836 415 q 918 418 893 417 q 925 394 925 413 q 918 368 925 375 q 871 351 888 365 q 854 301 854 338 l 854 140 q 876 101 854 119 q 709 14 806 42 q 489 -14 613 -14 q 258 44 357 -14 q 106 202 160 103 q 51 426 51 301 q 92 632 51 542 q 200 785 132 722 q 352 881 268 847 q 524 914 436 914 m 678 1119 q 646 1035 674 1071 q 576 981 618 1000 q 489 963 535 963 q 359 1005 413 963 q 300 1119 306 1047 l 339 1119 q 390 1057 347 1079 q 489 1035 433 1035 q 586 1057 540 1035 q 639 1119 632 1079 l 678 1119 z "},"":{"ha":694,"x_min":44,"x_max":668,"o":"m 617 538 q 594 546 606 538 q 578 563 582 554 q 550 579 567 579 q 519 568 536 579 q 494 546 501 557 q 540 483 525 515 q 554 401 554 450 q 521 286 554 333 q 434 214 488 239 q 319 189 381 189 q 249 197 279 189 q 193 218 218 204 q 168 138 168 183 q 197 76 168 93 q 257 58 226 58 q 273 59 263 58 q 299 61 283 60 q 349 66 324 64 q 392 68 374 68 q 455 66 418 68 q 530 54 492 64 q 594 22 568 44 q 640 -30 625 -3 q 656 -90 656 -57 q 622 -191 656 -146 q 531 -267 588 -236 q 405 -314 474 -297 q 265 -331 336 -331 q 161 -316 213 -331 q 77 -267 110 -301 q 44 -172 44 -232 q 74 -83 44 -128 q 158 -4 103 -37 q 113 38 132 10 q 94 103 94 65 q 110 178 94 139 q 156 243 126 218 q 105 307 126 271 q 83 399 83 343 q 117 510 83 463 q 205 583 150 557 q 321 610 260 610 q 417 594 382 610 q 465 571 453 579 q 535 624 493 607 q 604 642 578 642 q 650 627 632 642 q 668 590 668 613 q 652 553 668 569 q 617 538 636 538 m 443 388 q 408 520 443 474 q 308 567 374 567 q 197 419 197 567 q 206 332 197 375 q 241 260 214 289 q 326 232 268 232 q 379 244 353 232 q 424 290 406 256 q 443 388 443 324 m 183 -14 q 147 -79 153 -50 q 140 -144 140 -108 q 159 -205 140 -179 q 205 -247 178 -231 q 260 -272 232 -264 q 307 -279 289 -279 q 433 -262 369 -279 q 538 -210 496 -244 q 579 -126 579 -176 q 564 -81 579 -99 q 508 -40 549 -62 q 435 -20 478 -24 q 340 -17 393 -17 q 299 -19 326 -17 q 239 -21 271 -21 q 183 -14 208 -21 m 156 894 q 208 804 167 839 q 306 769 250 769 q 403 802 360 769 q 456 894 446 835 l 493 878 q 456 776 485 818 q 387 713 426 735 q 306 690 347 690 q 183 740 233 690 q 118 878 133 789 l 156 894 z "},"":{"ha":951,"x_min":51,"x_max":925,"o":"m 524 914 q 649 901 601 914 q 734 874 697 889 q 813 851 771 858 q 835 729 829 776 q 844 638 842 682 q 799 629 821 628 q 751 742 781 689 q 663 830 721 796 q 504 864 606 864 q 386 834 443 864 q 284 750 329 804 q 212 621 239 696 q 185 454 185 546 q 206 313 185 386 q 270 176 228 239 q 376 75 313 114 q 521 36 439 36 q 640 46 578 36 q 736 89 701 56 l 736 301 q 708 353 736 343 q 622 368 679 364 q 617 394 617 375 q 622 418 617 413 q 714 416 668 417 q 794 415 760 415 q 865 416 836 415 q 918 418 893 417 q 925 394 925 413 q 918 368 925 375 q 871 351 888 365 q 854 301 854 338 l 854 140 q 876 101 854 119 q 709 14 806 42 q 489 -14 613 -14 q 258 44 357 -14 q 106 202 160 103 q 51 426 51 301 q 92 632 51 542 q 200 785 132 722 q 352 881 268 847 q 524 914 436 914 m 422 1046 q 444 1097 422 1075 q 494 1118 465 1118 q 545 1097 524 1118 q 567 1046 567 1075 q 545 995 567 1017 q 494 974 524 974 q 444 995 465 974 q 422 1046 422 1017 z "},"":{"ha":694,"x_min":44,"x_max":668,"o":"m 617 538 q 594 546 606 538 q 578 563 582 554 q 550 579 567 579 q 519 568 536 579 q 494 546 501 557 q 540 483 525 515 q 554 401 554 450 q 521 286 554 333 q 434 214 488 239 q 319 189 381 189 q 249 197 279 189 q 193 218 218 204 q 168 138 168 183 q 197 76 168 93 q 257 58 226 58 q 273 59 263 58 q 299 61 283 60 q 349 66 324 64 q 392 68 374 68 q 455 66 418 68 q 530 54 492 64 q 594 22 568 44 q 640 -30 625 -3 q 656 -90 656 -57 q 622 -191 656 -146 q 531 -267 588 -236 q 405 -314 474 -297 q 265 -331 336 -331 q 161 -316 213 -331 q 77 -267 110 -301 q 44 -172 44 -232 q 74 -83 44 -128 q 158 -4 103 -37 q 113 38 132 10 q 94 103 94 65 q 110 178 94 139 q 156 243 126 218 q 105 307 126 271 q 83 399 83 343 q 117 510 83 463 q 205 583 150 557 q 321 610 260 610 q 417 594 382 610 q 465 571 453 579 q 535 624 493 607 q 604 642 578 642 q 650 627 632 642 q 668 590 668 613 q 652 553 668 569 q 617 538 636 538 m 443 388 q 408 520 443 474 q 308 567 374 567 q 197 419 197 567 q 206 332 197 375 q 241 260 214 289 q 326 232 268 232 q 379 244 353 232 q 424 290 406 256 q 443 388 443 324 m 183 -14 q 147 -79 153 -50 q 140 -144 140 -108 q 159 -205 140 -179 q 205 -247 178 -231 q 260 -272 232 -264 q 307 -279 289 -279 q 433 -262 369 -279 q 538 -210 496 -244 q 579 -126 579 -176 q 564 -81 579 -99 q 508 -40 549 -62 q 435 -20 478 -24 q 340 -17 393 -17 q 299 -19 326 -17 q 239 -21 271 -21 q 183 -14 208 -21 m 250 832 q 274 878 250 857 q 322 899 297 899 q 369 875 350 899 q 389 826 389 851 q 367 782 389 804 q 317 760 346 760 q 271 783 292 760 q 250 832 250 806 z "},"":{"ha":951,"x_min":51,"x_max":925,"o":"m 524 914 q 649 901 601 914 q 734 874 697 889 q 813 851 771 858 q 835 729 829 776 q 844 638 842 682 q 799 629 821 628 q 751 742 781 689 q 663 830 721 796 q 504 864 606 864 q 386 834 443 864 q 284 750 329 804 q 212 621 239 696 q 185 454 185 546 q 206 313 185 386 q 270 176 228 239 q 376 75 313 114 q 521 36 439 36 q 640 46 578 36 q 736 89 701 56 l 736 301 q 708 353 736 343 q 622 368 679 364 q 617 394 617 375 q 622 418 617 413 q 714 416 668 417 q 794 415 760 415 q 865 416 836 415 q 918 418 893 417 q 925 394 925 413 q 918 368 925 375 q 871 351 888 365 q 854 301 854 338 l 854 140 q 876 101 854 119 q 709 14 806 42 q 489 -14 613 -14 q 258 44 357 -14 q 106 202 160 103 q 51 426 51 301 q 92 632 51 542 q 200 785 132 722 q 352 881 268 847 q 524 914 436 914 m 521 -57 q 584 -90 561 -57 q 607 -176 607 -122 q 563 -272 607 -239 q 460 -314 519 -304 q 449 -281 449 -303 q 526 -247 500 -269 q 553 -207 553 -225 q 541 -179 553 -186 q 510 -171 529 -172 q 472 -156 492 -168 q 451 -117 451 -144 q 471 -74 451 -92 q 521 -57 490 -57 z "},"":{"ha":694,"x_min":44,"x_max":668,"o":"m 617 538 q 594 546 606 538 q 578 563 582 554 q 550 579 567 579 q 519 568 536 579 q 494 546 501 557 q 540 483 525 515 q 554 401 554 450 q 521 286 554 333 q 434 214 488 239 q 319 189 381 189 q 249 197 279 189 q 193 218 218 204 q 168 138 168 183 q 197 76 168 93 q 257 58 226 58 q 273 59 263 58 q 299 61 283 60 q 349 66 324 64 q 392 68 374 68 q 455 66 418 68 q 530 54 492 64 q 594 22 568 44 q 640 -30 625 -3 q 656 -90 656 -57 q 622 -191 656 -146 q 531 -267 588 -236 q 405 -314 474 -297 q 265 -331 336 -331 q 161 -316 213 -331 q 77 -267 110 -301 q 44 -172 44 -232 q 74 -83 44 -128 q 158 -4 103 -37 q 113 38 132 10 q 94 103 94 65 q 110 178 94 139 q 156 243 126 218 q 105 307 126 271 q 83 399 83 343 q 117 510 83 463 q 205 583 150 557 q 321 610 260 610 q 417 594 382 610 q 465 571 453 579 q 535 624 493 607 q 604 642 578 642 q 650 627 632 642 q 668 590 668 613 q 652 553 668 569 q 617 538 636 538 m 443 388 q 408 520 443 474 q 308 567 374 567 q 197 419 197 567 q 206 332 197 375 q 241 260 214 289 q 326 232 268 232 q 379 244 353 232 q 424 290 406 256 q 443 388 443 324 m 183 -14 q 147 -79 153 -50 q 140 -144 140 -108 q 159 -205 140 -179 q 205 -247 178 -231 q 260 -272 232 -264 q 307 -279 289 -279 q 433 -262 369 -279 q 538 -210 496 -244 q 579 -126 579 -176 q 564 -81 579 -99 q 508 -40 549 -62 q 435 -20 478 -24 q 340 -17 393 -17 q 299 -19 326 -17 q 239 -21 271 -21 q 183 -14 208 -21 m 317 710 q 253 742 276 710 q 231 811 231 774 q 263 903 231 863 q 310 941 281 925 q 378 963 339 957 q 383 950 382 958 q 385 935 385 942 q 301 894 325 922 q 278 842 278 865 q 285 822 278 821 q 318 824 293 824 q 374 804 360 824 q 388 767 388 785 q 370 730 388 750 q 317 710 353 710 z "},"":{"ha":1014,"x_min":21,"x_max":986,"o":"m 858 169 q 868 86 858 113 q 904 53 878 60 q 979 43 931 46 q 986 21 986 38 q 979 -3 986 4 q 886 -1 933 -1 q 800 0 839 0 q 714 -1 761 0 q 619 -3 667 -1 q 614 21 614 4 q 619 43 614 38 q 694 53 668 46 q 731 86 721 60 q 740 169 740 113 l 740 446 l 265 446 l 265 169 q 275 86 265 113 q 311 53 285 60 q 386 43 338 46 q 393 21 393 38 q 386 -3 393 4 q 292 -1 340 -1 q 207 0 244 0 q 120 -1 168 0 q 26 -3 72 -1 q 21 21 21 4 q 26 43 21 38 q 101 53 75 46 q 138 86 128 60 q 147 169 147 113 l 147 726 q 138 810 147 785 q 101 844 128 836 q 26 853 75 851 q 21 876 21 860 q 26 899 21 893 q 110 897 67 897 q 206 896 154 896 q 303 897 258 896 q 386 899 347 897 q 393 876 393 893 q 386 853 393 860 q 311 844 338 851 q 275 810 285 836 q 265 726 265 785 l 265 504 l 740 504 l 740 726 q 731 810 740 785 q 694 844 721 836 q 619 853 668 851 q 614 876 614 860 q 619 899 614 893 q 713 897 665 897 q 799 896 760 896 q 888 897 839 896 q 979 899 936 897 q 986 876 986 893 q 979 853 986 860 q 904 844 931 851 q 868 810 878 836 q 858 726 858 785 l 858 169 m 536 1119 q 605 1047 568 1082 q 679 985 642 1013 q 672 967 676 975 q 657 956 667 960 q 581 994 617 975 q 510 1040 544 1014 q 436 993 471 1013 q 361 956 401 974 q 342 985 346 965 q 415 1049 381 1014 q 482 1119 450 1085 q 508 1128 497 1128 q 536 1119 519 1128 z "},"":{"ha":747,"x_min":19,"x_max":732,"o":"m 232 397 l 232 169 q 238 87 232 113 q 262 53 244 61 q 315 43 279 46 q 321 21 321 38 q 315 -3 321 4 q 252 -1 286 -1 q 178 0 218 0 q 98 -1 136 0 q 25 -3 60 -1 q 19 21 19 4 q 25 43 19 38 q 86 53 65 46 q 115 87 107 61 q 122 169 122 113 l 122 776 q 115 858 122 835 q 89 885 108 881 q 33 890 69 889 q 26 910 28 897 q 25 932 24 924 q 92 941 53 935 q 167 955 131 947 q 219 969 203 963 q 238 956 238 969 q 235 917 238 956 q 232 810 232 878 l 231 497 q 235 488 231 483 q 244 497 240 493 q 369 589 308 568 q 481 610 429 610 q 547 598 517 610 q 596 563 578 586 q 626 482 619 531 q 633 376 633 433 l 633 169 q 640 87 633 113 q 667 54 647 61 q 726 43 688 47 q 732 21 732 38 q 726 -3 732 4 q 656 -1 692 -1 q 579 0 621 0 q 502 -1 538 0 q 438 -3 467 -1 q 432 21 432 4 q 438 43 432 38 q 492 54 474 47 q 517 87 511 61 q 524 169 524 113 l 524 381 q 521 440 524 413 q 507 488 518 467 q 474 524 494 511 q 433 538 454 538 q 344 516 392 538 q 256 456 296 494 q 240 433 247 446 q 232 397 232 419 m 471 922 q 536 816 499 871 q 607 718 574 761 q 594 703 603 710 q 576 693 585 696 q 450 811 504 746 q 390 747 419 776 q 322 693 360 717 q 293 718 304 699 q 365 817 326 761 q 432 922 404 872 q 451 925 442 925 q 471 922 461 925 z "},"":{"ha":1014,"x_min":21,"x_max":986,"o":"m 858 169 q 868 86 858 113 q 904 53 878 60 q 979 43 931 46 q 986 21 986 38 q 979 -3 986 4 q 886 -1 933 -1 q 800 0 839 0 q 714 -1 761 0 q 619 -3 667 -1 q 614 21 614 4 q 619 43 614 38 q 694 53 668 46 q 731 86 721 60 q 740 169 740 113 l 740 446 l 265 446 l 265 169 q 275 86 265 113 q 311 53 285 60 q 386 43 338 46 q 393 21 393 38 q 386 -3 393 4 q 292 -1 340 -1 q 207 0 244 0 q 120 -1 168 0 q 26 -3 72 -1 q 21 21 21 4 q 26 43 21 38 q 101 53 75 46 q 138 86 128 60 q 147 169 147 113 l 147 711 l 57 711 l 57 758 l 146 758 q 133 820 144 801 q 95 845 121 839 q 26 853 69 851 q 21 876 21 860 q 26 899 21 893 q 110 897 67 897 q 206 896 154 896 q 303 897 258 896 q 386 899 347 897 q 393 876 393 893 q 386 853 393 860 q 317 845 343 851 q 280 820 292 839 q 267 758 268 801 l 739 758 q 726 820 738 801 q 688 845 714 839 q 619 853 663 851 q 614 876 614 860 q 619 899 614 893 q 713 897 665 897 q 799 896 760 896 q 888 897 839 896 q 979 899 936 897 q 986 876 986 893 q 979 853 986 860 q 910 845 936 851 q 873 820 885 839 q 860 758 861 801 l 939 758 l 939 711 l 858 711 l 858 169 m 740 711 l 265 711 l 265 504 l 740 504 l 740 711 z "},"":{"ha":747,"x_min":19,"x_max":732,"o":"m 232 397 l 232 169 q 238 87 232 113 q 262 53 244 61 q 315 43 279 46 q 321 21 321 38 q 315 -3 321 4 q 252 -1 286 -1 q 178 0 218 0 q 98 -1 136 0 q 25 -3 60 -1 q 19 21 19 4 q 25 43 19 38 q 86 53 65 46 q 115 87 107 61 q 122 169 122 113 l 122 736 l 36 736 l 36 790 l 122 790 q 113 861 121 842 q 87 885 106 881 q 33 890 68 889 q 26 910 28 897 q 25 932 24 924 q 92 941 53 935 q 167 955 131 947 q 219 969 203 963 q 238 956 238 969 q 235 917 238 956 q 232 810 232 878 l 232 790 l 474 790 l 474 736 l 232 736 l 231 497 q 235 488 231 483 q 244 497 240 493 q 369 589 308 568 q 481 610 429 610 q 547 598 517 610 q 596 563 578 586 q 626 482 619 531 q 633 376 633 433 l 633 169 q 640 87 633 113 q 667 54 647 61 q 726 43 688 47 q 732 21 732 38 q 726 -3 732 4 q 656 -1 692 -1 q 579 0 621 0 q 502 -1 538 0 q 438 -3 467 -1 q 432 21 432 4 q 438 43 432 38 q 492 54 474 47 q 517 87 511 61 q 524 169 524 113 l 524 381 q 521 440 524 413 q 507 488 518 467 q 474 524 494 511 q 433 538 454 538 q 344 516 392 538 q 256 456 296 494 q 240 433 247 446 q 232 397 232 419 z "},"":{"ha":413,"x_min":13,"x_max":399,"o":"m 265 169 q 275 86 265 113 q 311 53 285 60 q 386 43 338 46 q 393 21 393 38 q 386 -3 393 4 q 292 -1 339 -1 q 207 0 244 0 q 122 -1 169 0 q 26 -3 74 -1 q 21 21 21 4 q 26 43 21 38 q 101 53 75 46 q 138 86 128 60 q 147 169 147 113 l 147 726 q 138 810 147 785 q 101 844 128 836 q 26 853 75 851 q 21 876 21 860 q 26 899 21 893 q 123 897 75 897 q 206 896 171 896 q 293 897 246 896 q 386 899 340 897 q 393 876 393 893 q 386 853 393 860 q 311 844 338 851 q 275 810 285 836 q 265 726 265 785 l 265 169 m 296 1033 q 333 1048 319 1033 q 361 1106 347 1063 q 399 1097 383 1107 q 356 997 386 1035 q 278 960 326 960 q 233 975 256 960 q 189 1004 211 990 q 151 1023 171 1015 q 114 1031 132 1031 q 74 1015 88 1031 q 50 964 61 999 q 13 971 24 960 q 53 1069 28 1032 q 124 1107 79 1107 q 179 1091 156 1107 q 224 1060 203 1075 q 296 1033 258 1033 z "},"":{"ha":376,"x_min":1,"x_max":358,"o":"m 256 796 q 289 810 276 796 q 314 868 301 825 q 349 860 335 869 q 310 760 338 797 q 239 722 282 722 q 199 738 219 722 q 160 767 179 753 q 126 785 143 778 q 92 793 108 793 q 56 777 68 793 q 35 726 44 761 q 1 733 11 722 q 37 832 14 794 q 101 869 60 869 q 151 853 129 869 q 190 822 172 838 q 256 796 222 796 m 251 169 q 259 87 251 113 q 288 53 267 61 q 351 43 310 46 q 358 21 358 38 q 351 -3 358 4 q 278 -1 317 -1 q 197 0 239 0 q 116 -1 156 0 q 42 -3 76 -1 q 36 21 36 4 q 42 43 36 38 q 106 54 85 47 q 134 87 126 61 q 142 169 142 113 l 142 440 q 135 499 142 481 q 108 524 128 518 q 51 535 89 531 q 49 555 50 542 q 49 574 47 568 q 165 593 121 583 q 239 614 210 603 q 257 604 257 614 q 256 579 257 604 q 253 517 254 554 q 251 446 251 481 l 251 169 z "},"":{"ha":413,"x_min":21,"x_max":393,"o":"m 265 169 q 275 86 265 113 q 311 53 285 60 q 386 43 338 46 q 393 21 393 38 q 386 -3 393 4 q 292 -1 339 -1 q 207 0 244 0 q 122 -1 169 0 q 26 -3 74 -1 q 21 21 21 4 q 26 43 21 38 q 101 53 75 46 q 138 86 128 60 q 147 169 147 113 l 147 726 q 138 810 147 785 q 101 844 128 836 q 26 853 75 851 q 21 876 21 860 q 26 899 21 893 q 123 897 75 897 q 206 896 171 896 q 293 897 246 896 q 386 899 340 897 q 393 876 393 893 q 386 853 393 860 q 311 844 338 851 q 275 810 285 836 q 265 726 265 785 l 265 169 m 354 1035 l 43 1035 q 29 1044 33 1035 q 25 1060 25 1053 q 35 1088 25 1072 q 56 1104 44 1104 l 368 1104 q 383 1096 379 1104 q 388 1081 388 1088 q 378 1051 388 1068 q 354 1035 368 1035 z "},"":{"ha":376,"x_min":10,"x_max":358,"o":"m 306 719 l 25 719 q 13 728 17 719 q 10 744 10 738 q 18 773 10 757 q 36 789 26 789 l 318 789 q 332 781 328 789 q 336 765 336 772 q 327 736 336 753 q 306 719 318 719 m 251 169 q 259 87 251 113 q 288 53 267 61 q 351 43 310 46 q 358 21 358 38 q 351 -3 358 4 q 278 -1 317 -1 q 197 0 239 0 q 116 -1 156 0 q 42 -3 76 -1 q 36 21 36 4 q 42 43 36 38 q 106 54 85 47 q 134 87 126 61 q 142 169 142 113 l 142 440 q 135 499 142 481 q 108 524 128 518 q 51 535 89 531 q 49 555 50 542 q 49 574 47 568 q 165 593 121 583 q 239 614 210 603 q 257 604 257 614 q 256 579 257 604 q 253 517 254 554 q 251 446 251 481 l 251 169 z "},"":{"ha":413,"x_min":18,"x_max":396,"o":"m 265 169 q 275 86 265 113 q 311 53 285 60 q 386 43 338 46 q 393 21 393 38 q 386 -3 393 4 q 292 -1 339 -1 q 207 0 244 0 q 122 -1 169 0 q 26 -3 74 -1 q 21 21 21 4 q 26 43 21 38 q 101 53 75 46 q 138 86 128 60 q 147 169 147 113 l 147 726 q 138 810 147 785 q 101 844 128 836 q 26 853 75 851 q 21 876 21 860 q 26 899 21 893 q 123 897 75 897 q 206 896 171 896 q 293 897 246 896 q 386 899 340 897 q 393 876 393 893 q 386 853 393 860 q 311 844 338 851 q 275 810 285 836 q 265 726 265 785 l 265 169 m 396 1118 q 364 1034 392 1069 q 294 980 336 999 q 207 961 253 961 q 77 1003 131 961 q 18 1118 24 1046 l 57 1118 q 108 1056 65 1078 q 207 1033 151 1033 q 304 1056 258 1033 q 357 1118 350 1078 l 396 1118 z "},"":{"ha":376,"x_min":6,"x_max":358,"o":"m 39 903 q 87 813 50 847 q 174 778 124 778 q 262 810 224 778 q 310 903 300 843 l 343 886 q 281 748 332 797 q 174 699 229 699 q 63 748 108 699 q 6 886 18 797 l 39 903 m 251 169 q 259 87 251 113 q 288 53 267 61 q 351 43 310 46 q 358 21 358 38 q 351 -3 358 4 q 278 -1 317 -1 q 197 0 239 0 q 116 -1 156 0 q 42 -3 76 -1 q 36 21 36 4 q 42 43 36 38 q 106 54 85 47 q 134 87 126 61 q 142 169 142 113 l 142 440 q 135 499 142 481 q 108 524 128 518 q 51 535 89 531 q 49 555 50 542 q 49 574 47 568 q 165 593 121 583 q 239 614 210 603 q 257 604 257 614 q 256 579 257 604 q 253 517 254 554 q 251 446 251 481 l 251 169 z "},"":{"ha":413,"x_min":21,"x_max":393,"o":"m 376 -187 q 306 -256 346 -235 q 224 -278 267 -278 q 137 -254 172 -278 q 101 -175 101 -231 q 137 -80 101 -132 q 235 0 172 -28 q 221 0 228 0 q 207 0 214 0 q 122 -1 169 0 q 26 -3 74 -1 q 21 21 21 4 q 26 43 21 38 q 101 53 75 46 q 138 86 128 60 q 147 169 147 113 l 147 726 q 138 810 147 785 q 101 844 128 836 q 26 853 75 851 q 21 876 21 860 q 26 899 21 893 q 123 897 75 897 q 206 896 171 896 q 293 897 246 896 q 386 899 340 897 q 393 876 393 893 q 386 853 393 860 q 311 844 338 851 q 275 810 285 836 q 265 726 265 785 l 265 169 q 275 86 265 113 q 311 53 285 60 q 386 43 338 46 q 393 21 393 38 q 386 -3 393 4 q 370 -3 378 -3 q 354 -1 363 -3 l 354 -3 q 267 -28 306 -3 q 208 -91 229 -54 q 188 -160 188 -128 q 203 -206 188 -186 q 257 -225 218 -225 q 308 -210 288 -225 q 350 -172 328 -194 q 376 -187 368 -172 z "},"":{"ha":376,"x_min":36,"x_max":360,"o":"m 125 832 q 149 878 125 857 q 197 899 172 899 q 244 875 225 899 q 264 826 264 851 q 242 782 264 804 q 192 760 221 760 q 146 783 167 760 q 125 832 125 806 m 360 -187 q 290 -256 329 -235 q 207 -278 250 -278 q 120 -254 156 -278 q 85 -175 85 -231 q 120 -80 85 -132 q 218 0 156 -28 l 197 0 q 116 -1 156 0 q 42 -3 76 -1 q 36 21 36 4 q 42 43 36 38 q 106 54 85 47 q 134 87 126 61 q 142 169 142 113 l 142 440 q 135 499 142 481 q 108 524 128 518 q 51 535 89 531 q 49 555 50 542 q 49 574 47 568 q 165 593 121 583 q 239 614 210 603 q 257 604 257 614 q 256 579 257 604 q 253 517 254 554 q 251 446 251 481 l 251 169 q 259 87 251 113 q 288 53 267 61 q 351 43 310 46 q 358 21 358 38 q 351 -3 358 4 q 338 -3 342 -3 l 338 -3 q 251 -28 289 -3 q 192 -91 213 -54 q 171 -160 171 -128 q 186 -206 171 -186 q 240 -225 201 -225 q 291 -210 271 -225 q 333 -172 311 -194 q 360 -187 351 -172 z "},"":{"ha":413,"x_min":21,"x_max":393,"o":"m 265 169 q 275 86 265 113 q 311 53 285 60 q 386 43 338 46 q 393 21 393 38 q 386 -3 393 4 q 292 -1 339 -1 q 207 0 244 0 q 122 -1 169 0 q 26 -3 74 -1 q 21 21 21 4 q 26 43 21 38 q 101 53 75 46 q 138 86 128 60 q 147 169 147 113 l 147 726 q 138 810 147 785 q 101 844 128 836 q 26 853 75 851 q 21 876 21 860 q 26 899 21 893 q 123 897 75 897 q 206 896 171 896 q 293 897 246 896 q 386 899 340 897 q 393 876 393 893 q 386 853 393 860 q 311 844 338 851 q 275 810 285 836 q 265 726 265 785 l 265 169 m 135 1046 q 156 1097 135 1075 q 207 1118 178 1118 q 258 1097 236 1118 q 279 1046 279 1075 q 258 995 279 1017 q 207 974 236 974 q 156 995 178 974 q 135 1046 135 1017 z "},"":{"ha":376,"x_min":36,"x_max":358,"o":"m 251 169 q 259 87 251 113 q 288 53 267 61 q 351 43 310 46 q 358 21 358 38 q 351 -3 358 4 q 278 -1 317 -1 q 197 0 239 0 q 116 -1 156 0 q 42 -3 76 -1 q 36 21 36 4 q 42 43 36 38 q 106 54 85 47 q 134 87 126 61 q 142 169 142 113 l 142 440 q 135 499 142 481 q 108 524 128 518 q 51 535 89 531 q 49 555 50 542 q 49 574 47 568 q 165 593 121 583 q 239 614 210 603 q 257 604 257 614 q 256 579 257 604 q 253 517 254 554 q 251 446 251 481 l 251 169 z "},"":{"ha":831,"x_min":21,"x_max":821,"o":"m 265 169 q 275 86 265 113 q 311 53 285 60 q 386 43 338 46 q 393 21 393 38 q 386 -3 393 4 q 292 -1 339 -1 q 207 0 244 0 q 122 -1 169 0 q 26 -3 74 -1 q 21 21 21 4 q 26 43 21 38 q 101 53 75 46 q 138 86 128 60 q 147 169 147 113 l 147 726 q 138 810 147 785 q 101 844 128 836 q 26 853 75 851 q 21 876 21 860 q 26 899 21 893 q 123 897 75 897 q 206 896 171 896 q 293 897 246 896 q 386 899 340 897 q 393 876 393 893 q 386 853 393 860 q 311 844 338 851 q 275 810 285 836 q 265 726 265 785 l 265 169 m 707 726 l 707 143 q 684 -17 707 44 q 628 -116 661 -79 q 565 -179 596 -153 q 486 -227 522 -215 q 403 -239 450 -239 q 363 -231 388 -239 q 318 -206 338 -222 q 299 -164 299 -189 q 322 -122 299 -140 q 360 -104 346 -104 q 397 -115 386 -104 q 415 -139 408 -126 q 437 -166 422 -156 q 471 -176 451 -176 q 508 -166 488 -176 q 547 -126 529 -156 q 577 -38 565 -96 q 589 113 589 19 l 589 726 q 578 810 589 785 q 539 844 568 836 q 454 853 510 851 q 449 876 449 860 q 454 899 449 893 q 558 897 507 897 q 647 896 610 896 q 731 897 688 896 q 814 899 775 897 q 821 876 821 893 q 814 853 821 860 q 749 844 772 851 q 716 810 725 836 q 707 726 707 785 z "},"":{"ha":753,"x_min":0,"x_max":0,"o":"m 251 169 q 259 87 251 113 q 288 53 267 61 q 351 43 310 46 q 358 21 358 38 q 351 -3 358 4 q 278 -1 317 -1 q 197 0 239 0 q 116 -1 156 0 q 42 -3 76 -1 q 36 21 36 4 q 42 43 36 38 q 106 54 85 47 q 134 87 126 61 q 142 169 142 113 l 142 440 q 135 499 142 481 q 108 524 128 518 q 51 535 89 531 q 49 555 50 542 q 49 574 47 568 q 165 593 121 583 q 239 614 210 603 q 257 604 257 614 q 256 579 257 604 q 253 517 254 554 q 251 446 251 481 l 251 169 m 125 832 q 149 878 125 857 q 197 899 172 899 q 244 875 225 899 q 264 826 264 851 q 242 782 264 804 q 192 760 221 760 q 146 783 167 760 q 125 832 125 806 m 532 440 q 525 499 532 481 q 499 525 518 518 q 442 535 479 532 q 439 555 440 542 q 439 574 438 568 q 556 593 511 583 q 629 614 600 603 q 647 604 647 614 q 646 579 647 604 q 643 517 644 554 q 642 446 642 481 l 642 153 q 629 -60 642 22 q 594 -189 617 -142 q 538 -262 571 -236 q 453 -302 499 -294 q 385 -310 407 -310 q 337 -295 365 -310 q 308 -250 308 -281 q 325 -214 308 -231 q 353 -197 342 -197 q 390 -210 376 -197 q 414 -233 404 -222 q 457 -249 429 -249 q 508 -198 492 -249 q 528 -67 524 -147 q 532 106 532 14 l 532 440 m 513 832 q 536 878 513 857 q 585 899 560 899 q 632 875 613 899 q 651 826 651 851 q 630 782 651 804 q 579 760 608 760 q 533 783 554 760 q 513 832 513 806 z "},"":{"ha":447,"x_min":-94,"x_max":428,"o":"m 314 726 l 314 143 q 291 -17 314 44 q 235 -116 268 -79 q 172 -179 203 -153 q 93 -227 129 -215 q 10 -239 57 -239 q -31 -231 -6 -239 q -75 -206 -56 -222 q -94 -164 -94 -189 q -71 -122 -94 -140 q -33 -104 -47 -104 q 4 -115 -7 -104 q 22 -139 15 -126 q 44 -166 29 -156 q 78 -176 58 -176 q 115 -166 94 -176 q 154 -126 136 -156 q 184 -38 172 -96 q 196 113 196 19 l 196 726 q 185 810 196 785 q 146 844 175 836 q 61 853 117 851 q 56 876 56 860 q 61 899 56 893 q 165 897 114 897 q 254 896 217 896 q 338 897 294 896 q 421 899 382 897 q 428 876 428 893 q 421 853 428 860 q 356 844 379 851 q 323 810 332 836 q 314 726 314 785 m 274 1122 q 342 1050 306 1085 q 417 988 379 1015 q 409 970 414 978 q 394 958 404 963 q 318 997 354 978 q 247 1043 282 1017 q 174 996 208 1015 q 99 958 139 976 q 79 988 83 968 q 153 1052 118 1017 q 219 1122 188 1088 q 246 1131 235 1131 q 274 1122 257 1131 z "},"":{"ha":378,"x_min":-67,"x_max":383,"o":"m 157 440 q 150 499 157 481 q 124 525 143 518 q 67 535 104 532 q 64 555 65 542 q 64 574 63 568 q 181 593 136 583 q 254 614 225 603 q 272 604 272 614 q 271 579 272 604 q 268 517 269 554 q 267 446 267 481 l 267 153 q 254 -60 267 22 q 219 -189 242 -142 q 163 -262 196 -236 q 78 -302 124 -294 q 10 -310 32 -310 q -38 -295 -10 -310 q -67 -250 -67 -281 q -50 -214 -67 -231 q -22 -197 -33 -197 q 15 -210 1 -197 q 39 -233 29 -222 q 82 -249 54 -249 q 133 -198 117 -249 q 153 -67 149 -147 q 157 106 157 14 l 157 440 m 232 914 q 304 813 263 865 q 383 719 346 761 q 369 705 378 713 q 351 696 361 697 q 208 811 271 747 q 140 749 175 778 q 64 696 104 719 q 33 719 46 700 q 114 814 71 761 q 188 914 157 867 q 210 917 199 917 q 232 914 221 917 z "},"":{"ha":885,"x_min":21,"x_max":878,"o":"m 265 169 q 275 86 265 113 q 311 53 285 60 q 386 43 338 46 q 393 21 393 38 q 386 -3 393 4 q 293 -1 339 -1 q 207 0 247 0 q 120 -1 167 0 q 26 -3 74 -1 q 21 21 21 4 q 26 43 21 38 q 101 53 75 46 q 138 86 128 60 q 147 169 147 113 l 147 726 q 138 810 147 785 q 101 844 128 836 q 26 853 75 851 q 21 876 21 860 q 26 899 21 893 q 119 897 74 897 q 206 896 165 896 q 291 897 243 896 q 386 899 339 897 q 393 876 393 893 q 386 853 393 860 q 311 844 338 851 q 275 810 285 836 q 265 726 265 785 l 265 482 q 327 499 301 485 q 375 536 353 513 l 604 781 q 632 826 633 811 q 610 845 631 840 q 565 853 590 850 q 560 876 560 860 q 565 899 560 893 q 644 897 604 897 q 722 896 683 896 q 789 897 756 896 q 854 899 822 897 q 861 876 861 893 q 854 853 861 860 q 770 838 813 850 q 679 775 728 826 l 475 565 q 433 517 440 529 q 426 497 426 504 q 431 481 426 489 q 444 463 436 472 l 749 101 q 810 55 781 64 q 871 43 840 46 q 878 21 878 38 q 871 -3 878 4 q 801 -1 836 -1 q 731 0 767 0 q 692 -1 708 0 q 656 -3 676 -1 q 649 6 650 -3 q 599 101 643 44 l 381 376 q 330 415 360 403 q 265 429 300 428 l 265 169 m 489 -57 q 552 -90 529 -57 q 575 -176 575 -122 q 531 -272 575 -239 q 428 -314 488 -304 q 417 -281 417 -303 q 494 -247 468 -269 q 521 -207 521 -225 q 509 -179 521 -186 q 478 -171 497 -172 q 440 -156 460 -168 q 419 -117 419 -144 q 439 -74 419 -92 q 489 -57 458 -57 z "},"":{"ha":711,"x_min":21,"x_max":706,"o":"m 119 169 l 119 776 q 113 858 119 835 q 86 885 106 881 q 31 890 67 889 q 23 910 25 897 q 22 932 21 924 q 89 941 50 935 q 164 955 128 947 q 217 969 200 963 q 235 956 235 969 q 232 917 235 956 q 229 810 229 878 l 229 325 q 324 368 274 332 q 381 419 350 388 q 435 482 411 451 q 449 506 442 490 q 449 536 457 522 q 403 553 442 550 q 397 576 397 560 q 403 599 397 593 q 463 597 426 597 q 539 596 500 596 q 606 597 576 596 q 660 599 636 597 q 667 576 667 593 q 660 553 667 560 q 582 537 618 549 q 514 492 546 525 l 392 365 q 386 351 386 360 q 389 341 386 346 q 396 332 392 336 l 579 101 q 635 57 607 67 q 699 43 664 47 q 706 21 706 38 q 699 -3 706 4 q 647 -1 678 -1 q 585 0 617 0 q 542 -1 564 0 q 499 -3 519 -1 q 493 4 494 -3 q 478 38 492 17 q 435 101 465 60 l 333 238 q 289 283 311 268 q 229 290 271 289 l 229 169 q 235 87 229 113 q 258 53 242 61 q 301 43 274 46 q 308 21 308 38 q 301 -3 308 4 q 244 -1 278 -1 q 175 0 211 0 q 97 -1 133 0 q 26 -3 61 -1 q 21 21 21 4 q 26 43 21 38 q 85 53 65 46 q 113 87 106 61 q 119 169 119 113 m 369 -57 q 433 -90 410 -57 q 456 -176 456 -122 q 412 -272 456 -239 q 308 -314 368 -304 q 297 -281 297 -303 q 375 -247 349 -269 q 401 -207 401 -225 q 390 -179 401 -186 q 358 -171 378 -172 q 320 -156 340 -168 q 300 -117 300 -144 q 319 -74 300 -92 q 369 -57 339 -57 z "}}}
